<svg xmlns="http://www.w3.org/2000/svg" xmlns:v="https://vecta.io/nano" width="420" height="420"><g fill-rule="evenodd"><path d="M210 406.4c-108.3 0-196.4-88.1-196.4-196.4S101.7 13.6 210 13.6 406.4 101.7 406.4 210 318.3 406.4 210 406.4zm0-387.2C104.8 19.2 19.2 104.8 19.2 210S104.8 400.8 210 400.8 400.8 315.2 400.8 210 315.2 19.2 210 19.2z" fill="#a46497"></path><path d="M47.7 175.8l1-3.4 22.6-2.1-18.1-13.8 1-3.4L75 169.4l-1 3.6zm9.3-29.1l6.8-14.5 2.5 1.2-5.5 11.8 7.2 3.4 5.4-11.5 2.5 1.2-5.4 11.5 7.7 3.6 5.5-11.8 2.5 1.2-6.8 14.5zm27.7-20.3l-2.7 4.1 8.1 5.4-1.7 2.5L68 124.7l5.5-8.2c2.5-3.7 6.7-4.8 10.4-2.3s4 6.3 2.4 9.3l12 .1-2 3zm-9.1-8l-3.6 5.3 7.8 5.2 3.6-5.3c1.6-2.4 1.1-5.1-1.2-6.7-2.3-1.5-5-.9-6.6 1.5zM83 104l2-2.3 18.7 15.9-2 2.3zm7.9-9l11.6-11 1.9 2-9.4 9 5.4 5.7 9.2-8.8 1.9 2-9.2 8.8 7.7 8.1-2.2 2.1zm17.4-15.5l2.4-1.9 14.9 19.5-2.4 1.9zm9.6-7.1l13.7-8.3 1.4 2.3-11.1 6.7 4.1 6.8 10.9-6.6 1.4 2.3-10.9 6.6 4.4 7.2 11.1-6.7 1.4 2.3-13.7 8.3zm21.5-12.3l7.8-3.1c7.1-2.8 13.6.3 16.2 6.7 2.6 6.5-.1 13.2-7.1 16l-7.8 3.1zm15.9 17.1c5.5-2.2 7.2-7.4 5.2-12.3s-6.6-7.6-12.3-5.4l-4.9 2 7.1 17.7zm39.5-22.7l-2.2 15.7-6.7.6-9.3-23.7 7.1-.7 5.3 15.9 2.6-16.7 4.8-.5 5.7 15.9 2.1-16.6 7.1-.7-4.6 25.1-6.7.6zm34.1-9.2c7.5.8 12.4 6.7 11.6 14.1s-7 12-14.4 11.1c-7.5-.8-12.5-6.7-11.6-14.1.8-7.4 6.9-12 14.4-11.1zm-.6 5.5c-4.1-.5-7 2.3-7.4 6.3-.4 3.9 1.8 7.3 5.8 7.8s7-2.4 7.4-6.3c.4-4-1.8-7.3-5.8-7.8zm32.3 1.3c7.1 2.3 10.9 9 8.6 16.1s-9.2 10.4-16.3 8.1-10.9-9-8.6-16.1c2.2-7.1 9.2-10.4 16.3-8.1zm-1.7 5.3c-3.9-1.2-7.3.9-8.5 4.7s.3 7.6 4.2 8.8 7.3-.9 8.5-4.7-.3-7.6-4.2-8.8zm20.6 2.2l15.9 8.4-2.5 4.7-10.3-5.4-1.9 3.6 10.1 5.3-2.5 4.7-10.1-5.3-2.1 3.9 10.3 5.4-2.5 4.7-15.9-8.3zm20.6 31.6l-9.2 3.3-6-4.5 14.4-4.8.8-14.4 5.9 4.5-.8 9 8.4-3.3 6 4.5-13.6 4.7-.8 15.2-5.9-4.5zm24.1-1.2l8.4 9c3.8 4 3.1 8.8-.1 11.8s-7.9 3.3-11.7-.7l-4.1-4.3-6.1 5.7-4.3-4.6zm3.9 12l-3.5-3.7-4 3.8 3.5 3.7c1.2 1.2 2.8 1.4 4 .3 1.2-1.2 1.2-2.9 0-4.1zm14.3 8.5l10 14.9-4.4 3-6.5-9.7-3.4 2.3 6.4 9.5-4.5 3-6.4-9.5-3.7 2.5 6.5 9.7-4.4 3-10-14.9zm3.1 36.9l-1.4-2.9-7.5 3.5-2.6-5.7 22.3-10.2 5.1 11.2c2.3 4.9.3 9.3-3.9 11.2-3.9 1.8-7 .4-8.7-1.4l-6.1 8.3-3-6.6zm10.6-2.9L354 140l-5 2.3 2.1 4.5c.7 1.5 2.2 2.3 3.8 1.6s1.9-2.4 1.2-3.9zm7.2 19.8l-1.8-6.6 5.3-1.5 5.3 19.3-5.3 1.5-1.8-6.6-18.3 5.1-1.7-6.1zm-253.9 10.3c1.3-1.7 3.2-2.6 5.7-2.8 4.6-.3 7.3 1.9 8 6.6 2.9 19.1 5.9 35.2 9.2 48.5l20-38.1c1.8-3.4 4.1-5.3 6.9-5.5 4-.3 6.5 2.3 7.5 7.7q3.5 18.1 8.7 31.2c2.4-23.2 6.4-40 12-50.3 1.3-2.5 3.4-3.9 6-4.1 2.1-.2 4.1.5 5.8 1.8 1.7 1.4 2.6 3.1 2.8 5.2.1 1.6-.2 3.1-.9 4.4-3.6 6.6-6.5 17.6-8.8 33-2.3 14.9-3.1 26.5-2.5 34.9.2 2.3-.2 4.3-1.1 6-1.1 2-2.7 3.1-4.9 3.3-2.4.2-4.8-1-7.2-3.4-8.5-8.7-15.2-21.7-20.2-38.9l-13.2 26.3q-8.1 15.4-13.8 15.9c-2.5.2-4.6-1.9-6.4-6.3-4.7-11.9-9.7-35.1-15.1-69.4-.2-2.2.2-4.3 1.5-6zm200.8 32.3c0 9.4-2.4 18-7.1 25.9-5.4 9.1-12.6 13.7-21.4 13.7-1.6 0-3.3-.1-5-.5-6.4-1.3-11.3-4.9-14.6-10.6-2.9-5-4.4-11-4.4-18.1 0-9.3 2.4-17.9 7.1-25.7 5.6-9.1 12.7-13.7 21.5-13.7 1.6 0 3.3.1 5 .5 6.4 1.3 11.3 4.9 14.6 10.6 2.9 4.9 4.4 10.9 4.3 17.9zm-15.2.6c0-2.7-.5-5.4-1.6-8.3-1.4-3.5-3.2-5.5-5.4-5.9-3.3-.7-6.5 1.1-9.5 5.6-2.4 3.5-4 7.1-4.8 10.9-.5 2.1-.7 4.4-.7 6.7 0 2.7.5 5.4 1.6 8.3 1.4 3.5 3.2 5.5 5.4 5.9 2.3.5 4.7-.5 7.4-2.9 3.4-3 5.7-7.5 7-13.5.4-2.1.6-4.4.6-6.8zm-41.9-.6c0 9.4-2.4 18-7.1 25.9-5.5 9.1-12.7 13.7-21.5 13.7-1.6 0-3.3-.1-5-.5-6.4-1.3-11.3-4.9-14.6-10.6-2.9-5-4.4-11-4.4-18.1 0-9.3 2.4-17.9 7.1-25.7 5.5-9.1 12.6-13.7 21.4-13.7 1.6 0 3.3.1 5 .5 6.4 1.3 11.3 4.9 14.6 10.6 3 4.9 4.4 10.9 4.5 17.9zm-15.4.6c0-2.7-.5-5.4-1.6-8.3-1.4-3.5-3.2-5.5-5.4-5.9-3.3-.7-6.5 1.1-9.5 5.6-2.4 3.5-4 7.1-4.8 10.9-.5 2.1-.7 4.4-.7 6.7 0 2.7.5 5.4 1.6 8.3 1.4 3.5 3.2 5.5 5.4 5.9 2.3.5 4.7-.5 7.4-2.9 3.4-3 5.7-7.5 7-13.5.4-2.1.6-4.4.6-6.8z" fill="#231f20"></path><path d="M120.5 329.4L112 336l-1.4-1 4.8-12.5 1.4 1.1-4.2 10.3 8.8-6.8 1.1.8-4.1 10.4 8.7-6.9 1.4 1.1-10.7 8.1-1.4-1zm14.8 6.6c3.3 1.9 4 5.7 2.1 9s-5.6 4.4-8.9 2.5c-3.3-2-4-5.7-2.1-9s5.6-4.5 8.9-2.5zm-.8 1.2c-2.5-1.5-5.2-.5-6.8 2.1-1.5 2.6-1.1 5.5 1.4 6.9 2.5 1.5 5.2.5 6.8-2.1 1.6-2.5 1.1-5.4-1.4-6.9zm14.2 5.8c3.5 1.6 4.6 5.3 3 8.8s-5.2 5-8.6 3.4c-3.5-1.6-4.6-5.3-3-8.8 1.5-3.5 5.1-5 8.6-3.4zm-.6 1.3c-2.6-1.2-5.2 0-6.5 2.8-1.3 2.7-.5 5.5 2.1 6.8 2.6 1.2 5.2-.1 6.5-2.8 1.2-2.8.5-5.6-2.1-6.8zm6.3 8.6c1.3-3.8 5-5.4 8.4-4.1 2.2.8 3.4 2.3 3.8 4l-1.5.3c-.3-1.3-1.3-2.5-2.8-3-2.6-.9-5.4.4-6.4 3.3s.3 5.7 2.9 6.6c1.4.5 3 .2 4-.6l1.1 1.2c-1.5 1-3.3 1.6-5.5.8-3.4-1.3-5.3-4.8-4-8.5zm21.2-.5c3.7.9 5.6 4.3 4.7 8s-4.1 5.9-7.8 5-5.6-4.3-4.7-8 4-5.9 7.8-5zm-.4 1.4c-2.8-.7-5.1 1.1-5.8 4s.6 5.5 3.4 6.2 5.1-1.1 5.8-4c.7-3-.6-5.6-3.4-6.2zm20 4.4l-5.8 10.1-.7-.1-2.9-11.2-1.4 10.7-1.6-.2 1.7-12.8 2.3.3 2.7 10.3 5.3-9.2 2.3.3-1.7 12.8-1.6-.2zm16.1.7l-4.6 10.6h-.7l-4.1-10.8-.2 10.7h-1.6l.3-12.9 2.3.1 3.8 9.9 4.2-9.7 2.3.1-.3 12.9h-1.6zm5.1-2.3l8.4-.6.1 1.4-6.8.5.3 4.2 6.7-.5.1 1.4-6.7.5.3 4.4 6.8-.5.1 1.4-8.4.6zm16.7 6.1l-2.5.4.8 5.1-1.6.2-1.9-12.8 5.1-.8c2.3-.4 4.2.9 4.6 3.2.3 2.3-1 3.8-2.8 4.2l4.2 4.7-1.9.3zm-.1-6.4l-3.4.5.7 4.9 3.4-.5c1.5-.2 2.4-1.4 2.2-2.8-.2-1.5-1.4-2.3-2.9-2.1zm7.9 3.8c-.9-3.9 1.3-7.2 4.8-8 2.3-.6 4.1.1 5.4 1.3l-1.1 1.1c-1-.9-2.5-1.3-3.9-1-2.7.7-4.3 3.3-3.5 6.3.7 3 3.3 4.6 6 3.9 1.5-.4 2.6-1.4 3.1-2.7l1.5.4c-.7 1.7-2 3.1-4.2 3.7-3.7.8-7.2-1.1-8.1-5zm12-9.7l8-2.7.5 1.4-6.5 2.2 1.3 3.9 6.4-2.1.5 1.4-6.4 2.1 1.4 4.2 6.5-2.2.5 1.4-8 2.7zm15.7 6c.5-.2 1.2.1 1.4.6s-.1 1.2-.6 1.4-1.2-.1-1.4-.6c-.2-.6.1-1.2.6-1.4zm2.2-5.7c-1.7-3.6-.2-7.3 3.1-8.9 2.1-1 4-.7 5.6.2l-.9 1.3c-1.1-.7-2.7-.8-4.1-.1-2.5 1.2-3.5 4.1-2.2 6.9s4.2 3.8 6.7 2.6c1.4-.7 2.3-1.9 2.4-3.2l1.6.1c-.3 1.8-1.3 3.4-3.4 4.4-3.3 1.5-7.1.3-8.8-3.3zm14.7-15.2c3.3-2 7-.9 8.9 2.4 2 3.3 1.2 7.1-2 9-3.3 2-7 .9-8.9-2.4-2-3.2-1.3-7 2-9zm.8 1.2c-2.5 1.5-2.9 4.4-1.4 6.9 1.6 2.6 4.3 3.5 6.8 2s2.9-4.4 1.4-6.9c-1.6-2.5-4.4-3.5-6.8-2zm17.3-10.9l3 11.2-.5.4-10-5.9 6.5 8.6-1.3 1-7.8-10.3 1.8-1.4 9.1 5.4-2.7-10.3 1.8-1.4 7.8 10.3-1.3 1z" fill="#194068"></path></g><path d="M210 326.7c-31.7 0-61.4-12.5-83.6-35.2-1.3-1.3-1.2-3.3.1-4.6s3.3-1.2 4.6.1c20.9 21.4 48.9 33.3 78.9 33.3s58-11.8 78.9-33.3q.5-.5 1-.7.6-.3 1.3-.3.6 0 1.2.2.6.3 1.1.7.5.5.7 1 .3.6.3 1.3 0 .6-.2 1.2-.3.6-.7 1.1c-22.2 22.7-51.9 35.2-83.6 35.2zm84.8-188.9c-.9 0-1.8-.4-2.4-1.1-20.9-23.5-50.9-36.9-82.3-36.9s-61.4 13.5-82.3 36.9c-1.2 1.3-3.2 1.5-4.6.3s-1.5-3.2-.3-4.6c22.1-24.9 53.9-39.1 87.2-39.1s65 14.3 87.2 39.1c1.2 1.3 1.1 3.4-.3 4.6-.7.5-1.5.8-2.2.8zM210 318.3c-29.4 0-56.9-11.6-77.5-32.7l.7-.7c20.4 20.9 47.6 32.4 76.8 32.4s56.4-11.5 76.8-32.4l.7.7c-20.6 21.1-48.1 32.7-77.5 32.7zm80.1-179.6c-20.3-22.8-49.5-35.9-80.1-35.9s-59.8 13.1-80.1 35.9l-.7-.7c20.5-23.1 50-36.3 80.9-36.3s60.3 13.2 80.9 36.3z" fill="#a46497"></path></svg>