<svg xmlns="http://www.w3.org/2000/svg" xmlns:v="https://vecta.io/nano" width="512" height="97"><path d="M72 77.3c-10.3 18.4-33.5 25-51.9 14.8C1.6 81.8-5.3 58.4 5.3 40.1c2.1-3.6 5.3-7.1 6.1-7.8.3-.4 2.5.9 1.8 2C9.7 46.5 11.4 55 15.6 63c.3.2 1.8.9 2 .3.9-25.1 14-40.7 29.5-51.3 8.8-2.8 16.2-3.7 18.8-2.2 7 3.9 18 46.2 6.1 67.5z" fill="#82b541"></path><path fill-rule="evenodd" d="M131.9 20c19 0 31.9 11.4 34.6 30.6.3 2.2.3 3.3.3 4.8 0 5.2-2.6 7.7-8 7.7h-49.3c.6 11.9 10.7 21.2 23.1 21.2 8.9 0 14.3-3.9 18.4-7.7 1.8-1.6 3.4-2.3 5.2-2.3 3.8 0 6.5 2.6 6.5 6.3 0 .8-.2 3-2.4 5.4-7.2 7.3-16.2 10.9-27.7 10.9-22.6 0-38.5-15.7-38.5-38.3C94.1 36.2 110 20 131.8 20zm-22.3 31.7h42.3c-.5-12.2-8.1-19.7-20-19.7-11.6 0-21.2 8.4-22.3 19.7zM214 20c20.2 0 27.4 15.4 27.4 29.8v38.1c0 7.8-6.3 8.2-7.6 8.2-1.2 0-7.5-.4-7.5-8.2V54.5c0-14.7-5.2-21.8-16.1-21.8-11.2 0-19 9.7-19 23.5v31.7c0 7.8-6.3 8.2-7.5 8.2-1.3 0-7.5-.4-7.5-8.2V28.7c0-5.9 3.7-8 7.2-8 1.2 0 7 .4 7 8v4.9C194.3 25.7 204.1 20 214 20zm102.7 7.8c0 .7-.1 2.1-.9 4.1L292 88c-2.8 6.7-7.5 8.1-10.8 8.1-3.4 0-8.1-1.4-10.9-8.1l-23.6-55.8c-.8-2-1-3.3-1-4.3 0-3.9 3.4-7.2 7.6-7.2 3.5 0 6 2 7.6 6l20.4 51.8 20.6-51.8c1.5-3.9 4-6 7.5-6 4.2 0 7.3 3.1 7.3 7.1zm36.4-7.8c19.1 0 30.5 10.7 30.5 28.7v39.8c0 7.4-6.1 7.6-6.8 7.6-3.2 0-7-2-7-7.6v-3.8c-5.4 7.9-13.8 12-24.4 12-13.2 0-26.5-6.9-26.5-22.6 0-21.7 25.3-24.7 50.3-24.7v-1.6c0-9.9-6.4-15.5-17.5-15.5-5.8 0-11.2 1.7-16.9 5.5-1.5 1.1-3 1.6-4.5 1.6-3.2 0-5.8-2.6-5.8-6 0-2.4 1.1-4.3 3.4-5.9 6.6-4.9 15.5-7.5 25.2-7.5zm-18.9 53.8c0 10.2 11.1 11 14.4 11 12.5 0 20.6-8.2 20.6-20.9v-3.4H366c-13.6 0-31.8 1.3-31.8 13.3zm88.5-39.4h-13.5v37.3c0 8 2.7 11.7 8.4 11.7.9 0 1.8-.1 3.1-.4 1-.4 2-.5 2.7-.5 3.4 0 6 2.5 6 6 0 2.4-1.6 4.6-4.2 5.9-2.3 1.1-5.8 1.7-9.5 1.7-14 0-21.4-7.9-21.4-22.9V8.3c0-7.9 6.3-8.3 7.6-8.3 3.4 0 7.3 2.2 7.3 8.3V22h13.5c5.1 0 7 3.2 7 6.2 0 1.1-.4 6.2-7 6.2zM472.4 20c22.9 0 39.4 16.1 39.4 38.3 0 22-16.9 38.6-39.4 38.6-10.8 0-20.7-3.9-27.9-10.9-7.3-7.1-11.3-16.9-11.3-27.7 0-22.2 16.5-38.3 39.2-38.3q0 0 0 0zm23.8 38.3c0-17.7-12.3-25.7-23.8-25.7-11.4 0-23.7 8-23.7 25.7 0 12.8 8.2 25.9 23.7 25.9 11.5 0 23.8-8.1 23.8-25.9z"></path></svg>