<svg xmlns="http://www.w3.org/2000/svg" viewBox="0 0 771 483" width="771" height="483"><style>.a{fill:#002347}.b{fill:#005491}.c{fill:#006cac}.d{fill:#0084d0}</style><path class="a" d="m215 470c-68.4-99.5-132.9-193.5-202.9-295.5 56.1 0.1 104.2-0.3 152.3 1 6.8 0.2 15.3 7.7 19.7 14 38.1 54.5 75.5 109.5 114.4 166.2-27.3 37.2-53.6 73.3-83.5 114.3z"></path><path class="b" d="m213.6 469.4c45-112 87.4-217.9 133.5-332.6 31 46.7 58 86.5 83.6 127.2 3.6 5.8 2.1 17-0.8 24.2-24.2 61.9-49.2 123.5-74.8 187.3-46.1-2-90.7-3.9-141.5-6.1z"></path><path class="c" d="m545.4 433c-68.3-99.6-132.9-193.6-202.9-295.5 56.1 0.1 104.2-0.4 152.3 0.9 6.8 0.2 15.3 7.7 19.7 14.1 38.1 54.4 75.5 109.4 114.4 166.1-27.2 37.3-53.5 73.4-83.5 114.4z"></path><path class="d" d="m544 432.4c45-112.1 87.5-217.9 133.5-332.7 31 46.7 58.1 86.5 83.6 127.3 3.7 5.7 2.1 16.9-0.7 24.2-24.2 61.9-49.3 123.4-74.9 187.2-46.1-2-90.7-3.9-141.5-6z"></path><ellipse class="d" cx="413.2" cy="62.5" rx="50.2" ry="50.2"></ellipse></svg>