<svg xmlns="http://www.w3.org/2000/svg" xmlns:v="https://vecta.io/nano" width="333" height="97"><path d="M1.6 1.6h44.6v44.6H1.6z" fill="#f1521b"></path><path d="M51.4 1.6H96v44.6H51.4z" fill="#80cd29"></path><path d="M1.6 51.9h44.6v44.6H1.6z" fill="#00adef"></path><path d="M51.4 51.9H96v44.6H51.4z" fill="#fabc09"></path><path d="M119.9 7.2l10.7 28.3 10.6-28.3h8.3v36.9h-6.4V31.9l.6-16.2-10.9 28.4h-4.5l-10.9-28.4.6 16.2v12.2h-6.4V7.2zm37 9.5h6.2v27.4h-6.2zm-.3-7.1q0-1.4.8-2.4 1-.9 2.6-.9 1.7 0 2.6.9.9 1 .9 2.4 0 1.4-.9 2.3-.9.9-2.6.9-1.6 0-2.6-.9-.8-.9-.8-2.3zm24.5 30.1q2.3 0 3.9-1.4 1.5-1.3 1.6-3.3h5.8q-.1 2.6-1.6 4.8-1.5 2.2-4.1 3.5-2.5 1.3-5.5 1.3-5.7 0-9.1-3.7-3.4-3.7-3.4-10.3V30q0-6.3 3.4-10 3.3-3.8 9.1-3.8 4.9 0 7.9 2.8 3.1 2.9 3.3 7.5h-5.8q-.1-2.3-1.6-3.9-1.5-1.5-3.9-1.5-3 0-4.6 2.2-1.6 2.2-1.6 6.6v.9q0 4.5 1.6 6.7 1.6 2.2 4.6 2.2zm30.3-17.4q-1.2-.2-2.5-.2-4.2 0-5.7 3.3v18.7h-6.1V16.7h5.9l.1 3.1q2.2-3.6 6.2-3.6 1.3 0 2.2.3zm1.9 7.9q0-4.1 1.6-7.3 1.6-3.2 4.4-4.9 2.9-1.8 6.7-1.8 5.5 0 9 3.6 3.4 3.6 3.7 9.5v1.4q0 4-1.5 7.2-1.6 3.2-4.5 5-2.9 1.7-6.7 1.7-5.8 0-9.3-3.8-3.4-3.9-3.4-10.3zm6.1.5q0 4.2 1.8 6.6 1.7 2.4 4.8 2.4 3.1 0 4.9-2.4 1.7-2.4 1.7-7.1 0-4.2-1.8-6.6-1.8-2.4-4.8-2.4-3 0-4.8 2.4-1.8 2.3-1.8 7.1zm40 6q0-1.7-1.4-2.5-1.3-.9-4.5-1.5-3.1-.7-5.2-1.7-4.6-2.2-4.6-6.5 0-3.5 3-5.9 3-2.4 7.6-2.4 4.9 0 7.9 2.4 3 2.5 3 6.4h-6.1q0-1.8-1.3-3-1.4-1.2-3.5-1.2-2.1 0-3.4 1-1.2.9-1.2 2.5 0 1.4 1.2 2.2 1.2.8 4.8 1.6 3.6.8 5.7 1.9 2 1.1 3 2.6 1 1.5 1 3.7 0 3.7-3 6.1-3.1 2.2-8.1 2.2-3.3 0-6-1.2-2.6-1.2-4.1-3.3-1.4-2.2-1.4-4.6h5.9q.2 2.2 1.7 3.4 1.5 1.1 4 1.1 2.4 0 3.7-.9 1.3-.9 1.3-2.4zm10.3-6.5q0-4.1 1.6-7.3 1.6-3.2 4.5-4.9 2.9-1.8 6.6-1.8 5.6 0 9 3.6 3.5 3.6 3.8 9.5v1.4q0 4.1-1.6 7.2-1.5 3.2-4.4 5-2.9 1.7-6.7 1.7-5.8 0-9.3-3.8-3.5-3.9-3.5-10.3zm6.2.5q0 4.2 1.7 6.6 1.8 2.4 4.9 2.4 3.1 0 4.8-2.4 1.8-2.4 1.8-7.1 0-4.2-1.8-6.6-1.8-2.4-4.9-2.4-3 0-4.7 2.4-1.8 2.3-1.8 7.1zm26.8 13.4V21.3h-4.2v-4.6h4.2v-2.5q0-4.5 2.5-7 2.5-2.5 7.1-2.5 1.6 0 3.4.4l-.1 4.9q-1-.2-2.4-.2-4.4 0-4.4 4.5v2.4h5.6v4.6h-5.6v22.8zm24-34v6.6h4.8v4.6h-4.8v15.3q0 1.6.6 2.3.7.6 2.2.6 1.1 0 2.2-.2v4.8q-2.1.5-4.1.5-7 0-7-7.8V21.3H316v-4.6h4.6v-6.6zM118 82.3V96h-6.4V59.1h14.1q6.2 0 9.8 3.2 3.7 3.2 3.7 8.5 0 5.4-3.6 8.4-3.5 3.1-9.9 3.1zm0-5.2h7.7q3.4 0 5.2-1.6 1.8-1.6 1.8-4.6 0-3-1.8-4.8-1.9-1.8-5.1-1.8H118zm42.3 18.8q-.4-.8-.7-2.6-3 3.1-7.2 3.1-4.1 0-6.8-2.4-2.6-2.3-2.6-5.8 0-4.4 3.3-6.7 3.2-2.3 9.3-2.3h3.8v-1.8q0-2.2-1.2-3.4-1.2-1.3-3.6-1.3-2.1 0-3.5 1-1.3 1.1-1.3 2.7h-6.2q0-2.3 1.5-4.2 1.5-2 4.1-3.1 2.5-1.1 5.7-1.1 4.8 0 7.7 2.4 2.8 2.4 2.9 6.8v12.4q0 3.7 1.1 5.9v.4zm-6.8-4.4q1.8 0 3.4-.9 1.6-.9 2.5-2.4V83H156q-3.4 0-5.1 1.2-1.7 1.2-1.7 3.4 0 1.8 1.1 2.8 1.2 1.1 3.2 1.1zm32.9-17.4q-1.2-.2-2.5-.2-4.3 0-5.7 3.3v18.7H172V68.5h5.9l.1 3.1q2.3-3.6 6.2-3.6 1.3 0 2.2.3zm12.9-12.2v6.6h4.9v4.6h-4.9v15.3q0 1.5.6 2.3.7.6 2.3.6 1 0 2.1-.2v4.7q-2.1.6-4 .6-7.1 0-7.1-7.8V73.1h-4.5v-4.6h4.5v-6.6zm15.3 6.6l.2 3.2q3-3.7 8-3.7 8.5 0 8.7 9.8v18.1h-6.2V78.2q0-2.6-1.1-3.9-1.1-1.3-3.7-1.3-3.7 0-5.5 3.4v19.5h-6.2V68.5zm35.3 27.9q-5.8 0-9.5-3.6-3.6-3.7-3.6-9.9v-.7q0-4.1 1.6-7.4 1.6-3.2 4.4-5 2.9-1.8 6.4-1.8 5.6 0 8.6 3.6 3.1 3.6 3.1 10.1v2.5H243q.3 3.4 2.3 5.3 2 2 5 2 4.2 0 6.9-3.4l3.3 3.2q-1.7 2.4-4.4 3.8-2.8 1.3-6.2 1.3zm-.7-23.5q-2.6 0-4.1 1.8-1.6 1.8-2 5h11.7v-.5q-.2-3.1-1.6-4.7-1.5-1.6-4-1.6zm30.9 1.2q-1.2-.2-2.5-.2-4.2 0-5.7 3.3v18.7h-6.1V68.5h5.8l.2 3.1Q274 68 278 68q1.3 0 2.1.4z" fill-rule="evenodd" fill="#6f6d6e"></path></svg>