<svg xmlns="http://www.w3.org/2000/svg" viewBox="0 0 705 255" xmlns:v="https://vecta.io/nano"><path d="M705 255H0V0h705zM5 250h695V5H5zM429 85.9a14.8 14.8 0 0 1-4.1-1.2v-4.1a30.9 30.9 0 0 0 4.3 1.4 23.3 23.3 0 0 0 5.3.6 9.6 9.6 0 0 0 5.7-1.5 5.3 5.3 0 0 0 1.3-6.8 5.7 5.7 0 0 0-2.5-2.1 30.6 30.6 0 0 0-4.9-2.2 17.8 17.8 0 0 1-6.6-3.9 9 9 0 0 1-2.2-6.3 8.3 8.3 0 0 1 1.4-4.6 8.5 8.5 0 0 1 3.8-3 14.3 14.3 0 0 1 5.8-1.1 29.4 29.4 0 0 1 5.1.5 30.9 30.9 0 0 1 4.3 1.4l-1.3 3.7a29.7 29.7 0 0 0-3.9-1.3 15.8 15.8 0 0 0-4.3-.5 7 7 0 0 0-4.9 1.3 4.4 4.4 0 0 0-1.6 3.7 4.5 4.5 0 0 0 .7 2.8 6.1 6.1 0 0 0 2.4 2.1 29.4 29.4 0 0 0 4.4 2 29.3 29.3 0 0 1 5.1 2.4 8.1 8.1 0 0 1 3.1 3 7.7 7.7 0 0 1 1.1 4.5 8.6 8.6 0 0 1-3.3 7.1c-2.2 1.7-5.2 2.5-8.9 2.5a30.8 30.8 0 0 1-5.3-.4zm38.9-2.5l-4-.9V55.1l4-1v-2.5h-12.4V54l4 1v27.4l-4 .9v2.5h12.4zm30.7-1.4h-15V51.6h-4.3v34.2h19.3zm21.6 3.8l12.2-34.2h-4.6l-7.6 21.9a37 37 0 0 0-1.3 4 25.8 25.8 0 0 0-.9 3.5 30.2 30.2 0 0 0-.9-3.5 23.2 23.2 0 0 0-1.3-4l-7.7-22h-4.5l12.2 34.2zM561 82h-14.8V69.8h14v-3.7h-14V55.4H561v-3.8h-19.1v34.2H561zm16.7 3.8h-4.4V51.6h9.5c4.2 0 7.4.8 9.4 2.4s3 4.1 3 7.3a9.1 9.1 0 0 1-1 4.6 8.9 8.9 0 0 1-2.6 2.9 14.1 14.1 0 0 1-3.2 1.7l9.4 15.3h-5l-8.3-14.1h-6.8zm0-17.8h5.1c2.8 0 4.8-.6 6.1-1.7a6.1 6.1 0 0 0 1.9-4.8c0-2.3-.7-3.9-2-4.8s-3.4-1.4-6.3-1.4h-4.8zm-138 41l13.3 34.4h-4.4l-4.1-10.6h-13.6l-4.1 10.6h-4.4l13.4-34.4zm3.5 20l-3.9-10.4c-.1-.2-.2-.7-.5-1.4l-.6-2-.5-1.7c-.1-.4-.5 2-.8 2.9l-.7 2.2-3.9 10.4zm33.2.2h7.6v10.1a15 15 0 0 1-2.9.6l-3.9.3a14 14 0 0 1-7.4-1.8 9.8 9.8 0 0 1-4.1-4.9 19.6 19.6 0 0 1-1.4-7.2c0-4.3 1.2-7.6 3.5-10.1s5.5-3.7 9.5-3.7a19.7 19.7 0 0 1 4.8.6 32.4 32.4 0 0 1 4.1 1.3l1.6-3.7a19.2 19.2 0 0 0-4.8-1.5 32.9 32.9 0 0 0-5.4-.5 19.1 19.1 0 0 0-9.6 2.2 14.9 14.9 0 0 0-6.1 6.1 21.4 21.4 0 0 0-2.1 9.3 23.6 23.6 0 0 0 1.9 9.4 14.3 14.3 0 0 0 5.6 6.1 17.3 17.3 0 0 0 9 2.1 45.8 45.8 0 0 0 6.4-.4 35.3 35.3 0 0 0 5.6-1.4v-16.8h-11.8zm24.9 14.2h19.2v-3.7h-14.9v-12.3h14v-3.7h-14V113h14.9v-3.8h-19.2zm54.6-34.2v19.3c0 1 .1 2.2.1 3.4s.1 2.3.1 3.3.1 1.8.2 2.3h-.2l-18.3-28.3h-5v34.3h4v-19.2c0-1.8-.1-3.5-.2-5.1s-.1-3.1-.2-4.2h.2l18.4 28.4h5v-34.2zm32.8 3.3a13.2 13.2 0 0 1 4.4.5l3.5 1.3 1.7-3.6a20.4 20.4 0 0 0-9.4-2 16.5 16.5 0 0 0-9 2.2 14 14 0 0 0-5.6 6.2 19.4 19.4 0 0 0-1.9 9.1 23.4 23.4 0 0 0 1.7 9.4 13.1 13.1 0 0 0 5.3 6.1 15.5 15.5 0 0 0 8.7 2.2 40.3 40.3 0 0 0 4.9-.3 29.8 29.8 0 0 0 4-1.1v-3.7l-4 .9a20.2 20.2 0 0 1-4.3.4c-3.9 0-6.8-1.2-8.8-3.7s-3-5.8-3-10.1 1-7.7 3.2-10.1a10.4 10.4 0 0 1 8.6-3.7zm29.4 13.5l-8.8-16.8h-4.7l11.4 21.1v13.2h4.2v-13.3l11.5-21H627zm-172.2 43.4a9.2 9.2 0 0 1 3.1 7.4 10.7 10.7 0 0 1-1.3 5.3 8.6 8.6 0 0 1-4.2 4 17.9 17.9 0 0 1-8.2 1.6h-3.9V201h-4.3v-34.3h9.1c4.4 0 7.7.9 9.7 2.7zm-3.5 2.7c-1.4-1.1-3.6-1.7-6.6-1.7h-4.4V184h3.5c3.2 0 5.7-.5 7.3-1.6s2.3-2.8 2.3-5.4a5.5 5.5 0 0 0-2.1-4.9zm28.7-5.5l13.4 34.4H480l-4.1-10.6h-13.6l-4.1 10.6h-4.3l13.4-34.4zm3.5 20l-3.9-10.4-.4-1.4a17.2 17.2 0 0 1-.7-2.1l-.5-1.6c-.3 1-.5 2-.8 2.9s-.5 1.7-.7 2.2l-3.9 10.4zm34.4-1l9.4 15.4h-5l-8.3-14.2h-6.8V201H494v-34.3h9.4c4.3 0 7.4.8 9.4 2.5s3 4 3 7.3a7.9 7.9 0 0 1-1 4.5 8.1 8.1 0 0 1-2.5 3 12.6 12.6 0 0 1-3.3 1.6zm.5-4.1a5.5 5.5 0 0 0 1.9-4.8c0-2.3-.6-3.9-2-4.8s-3.4-1.4-6.2-1.4h-4.9v12.7h5.1c2.8 0 4.8-.6 6.1-1.7zm14.9-11h10.7V201h4.4v-30.5h10.6v-3.8h-25.7zm58.9 15.6v3.4c0 1.1.1 2.3.2 3.3a22 22 0 0 1 .1 2.3h-.2l-18.3-28.4h-5V201h4v-19.2c0-1.7 0-3.4-.1-5.1l-.3-4.2h.2l18.3 28.5h5v-34.3h-4zm18.1 14.9h19.1v-3.8h-14.8V185h14v-3.8h-14v-10.7h14.8v-3.8h-19.1zm55.9 0h-5l-8.3-14.2h-6.8V201h-4.3v-34.3h9.4c4.2 0 7.4.8 9.4 2.5s3 4 3 7.3a8.7 8.7 0 0 1-1 4.5 8.3 8.3 0 0 1-2.6 3 10.7 10.7 0 0 1-3.2 1.6zm-8.9-19.5a6.1 6.1 0 0 0 1.9-4.8c0-2.3-.7-3.9-2-4.8s-3.4-1.4-6.3-1.4h-4.8v12.7h5.1c2.8 0 4.8-.6 6.1-1.7z" fill="gray"/><path d="M120.1 53.3a72.1 72.1 0 1 0 72.1 72.1h0a72.1 72.1 0 0 0-72.1-72.1zm-64.8 72.1A64.8 64.8 0 0 1 60.9 99l30.9 84.7a64.8 64.8 0 0 1-36.5-58.3zm64.8 64.8a66.3 66.3 0 0 1-18.3-2.6l19.4-56.6 20 54.6.4.9a63.1 63.1 0 0 1-21.5 3.7zM129 95l7.4-.6a2.8 2.8 0 0 0 2.4-3A2.8 2.8 0 0 0 136 89s-10.5.9-17.3.9-17.1-.9-17.1-.9c-3.4-.2-3.9 5.2-.4 5.4l6.8.6 10.1 27.7-14.1 42.5L80.4 95l7.4-.6a2.8 2.8 0 0 0 2.4-3 2.8 2.8 0 0 0-2.8-2.4s-10.5.9-17.3.9h-4.2a64.9 64.9 0 0 1 89.8-18.6 72.2 72.2 0 0 1 8.2 6.4h-.9c-6.3 0-10.8 5.6-10.8 11.5s3 9.9 6.3 15.2 5.4 9.9 5.4 17.9c0 5.6-1.7 12.6-5 21l-6.4 21.6zm23.7 86.4l19.8-57.2c3.7-9.3 4.9-16.7 4.9-23.2a49.1 49.1 0 0 0-.5-6.7 64.8 64.8 0 0 1-24.2 87.1zm103.6-85.7l-14.6 43a74.6 74.6 0 0 0-3.2 14.9h-.4a82.3 82.3 0 0 0-3.2-14.9l-14.6-43h-19.5l27.6 72.5h19.7l27.7-72.5zm29.2 0l-5.5 14.4v58.1h19.5V95.7zm83.1 8.5q-7.2-9.9-20.1-9.9c-9 0-15.2 3.6-19.8 10.8h-.9l-2.8-9.4h-15.8v105.4h19.5v-30.4c0-1-.4-4.5-1-10.5h1c4.8 6.2 10.8 9.3 19.3 9.3a25.1 25.1 0 0 0 14.8-4.5 28.5 28.5 0 0 0 9.7-13 53.3 53.3 0 0 0 3.4-20.2c0-11.8-2.4-21-7.3-27.6zm-25.5 49.3c-5 0-8.6-1.7-11-5.1s-3.5-9-3.4-16.7v-2.2c0-6.9 1.2-11.9 3.5-14.9s5.8-4.5 10.7-4.5 8.1 1.8 10.2 5.4 3.3 8.9 3.3 16c0 14.6-4.4 21.9-13.3 21.9z" fill="#151e25"/></svg>