<svg xmlns="http://www.w3.org/2000/svg" width="1500" height="1000" xmlns:v="https://vecta.io/nano"><style><![CDATA[.M{mix-blend-mode:soft-light}.S{mix-blend-mode:soft-light}.AE{mix-blend-mode:soft-light}.AH{mix-blend-mode:soft-light}.AM{fill:#e3b598}.AN{fill:#fff}.AO{fill:#2f579f}.AP{opacity:.5}.AQ{fill:#f99746}.AR{fill:#e0ebff}.AS{fill:none}.AT{stroke:#fff}.AU{fill:#d5dfef}.AV{fill:#30376d}.AW{fill:#162858}.AX{fill:#2c4690}.AY{stroke-linecap:round}.AZ{stroke-linejoin:round}.Aa{stroke-width:2}.Ab{opacity:.6}.Ac{fill:#29458c}.Ad{fill-rule:evenodd}.Ae{fill:#aec4ff}.Af{fill:#d78b73}.Ag{fill:#e2843d}.Ah{fill:#3563a8}.Ai{fill:#e1eaff}]]></style><path d="M151.9 772q-102.7-198.2-2.4-289c43-38.9 83-83 107.4-136.1 27.6-60.2 20.7-125.8 40.9-187.8 14.1-43.4 41.4-85 82.7-104.5 49.7-23.4 108.4-10.9 161.1 4.7C604.4 77.9 664 91.2 729.4 79c45-8.4 86.1-29.7 131.2-37.4 69.9-11.8 144.2-2 209.2 25.9 45.1 19.4 81 47.3 106.8 89.3 24.6 40.2 41 85.8 72.4 121.7 30.9 35.3 73.8 56.9 106.5 90.2 35.7 36.5 52.8 93.4 63.2 142.2 9.9 46.4 12.9 95.4 2.6 142-5 22.6-13.3 44.6-25.6 64.4-7 11.1-32.2 49.9-47 49.9q0 0-1196.8 4.8z" fill="#eaf3fa"/><g class="AR"><path d="M693.1 224c-13.4 37.5-54.7 57.1-92.3 43.8-37.6-13.4-57.2-54.7-43.8-92.3s54.7-57.2 92.3-43.8c37.5 13.4 57.2 54.7 43.8 92.3zm-28.9-10.3c7.7-21.7-3.6-45.4-25.2-53.1s-45.4 3.6-53.1 25.2 3.6 45.4 25.2 53.1 45.4-3.6 53.1-25.2z" class="Ad"/><path d="M667.7 155.9l-48-17.1 17.2-40.4 43 15.3zm-59.1-16.1l-38.8 33-26.4-35.1 34.8-29.6zm-43.5 43.1l9.2 50.1-43.6 5.2-8.2-44.8zm15.5 59.2l48 17.1-17.2 40.4-42.9-15.3zm59.1 16.5l38.4-33.4 26.8 34.8-34.4 29.9zm43.5-43.5l-9.1-50.1 43.5-5.2 8.3 44.8z"/></g><g class="AP"><path d="m1083 312.8l-194.6-33.5 34.3-199.1 194.7 33.6z" class="AR"/><path d="m1056.1 173.5c-1.9 10.7-7.1 20-14.4 26.9-10.8 10.2-26 15.4-41.7 12.6-15.8-2.7-28.5-12.7-35.1-26-4.5-9-6.3-19.4-4.5-30 4.6-26.5 29.7-44.2 56.1-39.6 26.4 4.5 44.1 29.7 39.6 56.1z" class="AN"/><g class="AR"><path d="M1041.7 200.4c-10.8 10.2-26 15.4-41.7 12.6-15.8-2.7-28.5-12.7-35.1-26 10.7-10.2 26-15.4 41.7-12.7a48.8 48.8 0 0 1 35.1 26.1zm-16.9-41.9c-1.4 8-9.1 13.4-17.1 12.1-8-1.4-13.4-9.1-12-17.1 1.3-8 9-13.4 17-12 8.1 1.3 13.4 9 12.1 17z"/></g><g class="AN"><path d="M1084.5 255.5l-173-29.8 1.6-9.2 173 29.9zm-2.8 16.5l-173-29.8 1.5-9.1 173.1 29.8zm-3.1 18l-173-29.9 1.5-9.1 173.1 29.8z"/></g><path d="m609.6 235.2l45.1 260.7-325.8 56.4-45.1-260.8c-1-5.9 2.9-11.5 8.8-12.5l304.5-52.7c5.8-1 11.4 3 12.5 8.9z" class="AR"/><path d="m609.6 235.2l2.4 14.2-325.7 56.3-2.5-14.2c-1-5.9 2.9-11.5 8.8-12.5l304.5-52.7c5.8-1 11.4 3 12.5 8.9z" class="AU"/><g class="AN"><path d="M309 290.5c.6 3.1-1.5 6-4.6 6.5-3.1.6-6-1.5-6.6-4.6-.5-3.1 1.6-6 4.7-6.6 3.1-.5 6 1.6 6.5 4.7zm16.5-2.9a5.62 5.62 0 0 1-4.6 6.6c-3.1.5-6.1-1.6-6.6-4.7-.5-3 1.5-6 4.6-6.5a5.62 5.62 0 0 1 6.6 4.6zm16.5-2.8c.6 3.1-1.5 6-4.6 6.5a5.62 5.62 0 0 1-6.6-4.6c-.5-3.1 1.5-6 4.6-6.6 3.1-.5 6.1 1.6 6.6 4.7zm233.6 6.5l-269.2 46.5-3.6-20.8L572 270.4z"/><path d="M591.4 281.9c-1.2.2-2.4-.1-3.5-.8-1-.7-1.7-1.8-2-3-.2-1.2.1-2.5.8-3.5.7-1.1 1.7-1.8 3-2 1.2-.3 2.5 0 3.5.7 1.1.7 1.8 1.8 2 3 .3 1.2 0 2.5-.7 3.5-.7 1.1-1.8 1.8-3 2q-.1.1-.1.1zm-1.4-8c-.9.2-1.7.6-2.2 1.4s-.7 1.7-.5 2.5c.2.9.7 1.7 1.4 2.2a3.12 3.12 0 0 0 2.5.5c.9-.2 1.7-.7 2.2-1.4.5-.8.6-1.7.5-2.5-.2-.9-.7-1.7-1.4-2.2-.8-.5-1.7-.6-2.5-.5z" class="Ad"/><path d="M600.6 284.3q-.3 0-.5-.1l-6.3-4.2a.78.78 0 0 1-.2-1 .78.78 0 0 1 1-.2l6.2 4.3c.3.2.4.6.2.9q-.2.2-.4.3zm10.6 29.8L310.9 366l-2.1-12.4 300.3-52zm3.6 20.6l-300.3 51.9-2.2-12.4 300.3-51.9zm3.5 20.6l-300.2 52-2.2-12.4 300.3-52zm16.5 103L335.9 510l-1.5-8.8 298.8-51.7zm2.5 14.7l-298.8 51.7-1.6-8.8 298.9-51.7zm2.5 14.6L341 539.3l-1.5-8.8 298.8-51.7zm-230.9-8.4l-75.8 13.1-13.2-75.9 75.9-13.1zm136-23.6l-121.1 21-13.1-75.9 121.1-20.9zm87.6-15.1l-75.9 13.1-13.1-75.8 75.8-13.2z"/></g></g><path d="M86.3 711.1q0 0 0 0-.1-.1-.8-.8c-9.4-8.8-97.4-92-58.1-107.6 41.5-16.5 59.4 105.5 58.9 108.4z" class="AU"/><path d="M86.3 711.1q-.1-.1-.8-.8c-5.6-16.1-17.4-37.9-27.4-55.1-14.2-24.4-28.2-45.4-28.3-45.6l.4-.3c.2.2 14.2 21.2 28.4 45.6 10.2 17.6 22.2 39.8 27.7 56.2z" class="AN"/><path d="M156.7 621.5c30 20.5-59.3 73.7-68.9 79.4q-.7.4-.8.4 0 0-.1 0c.2-2.4 38.1-101.5 69.8-79.8z" class="AU"/><path d="M120.8 659.4c16.5-17.8 32.2-32.8 32.3-32.9l.4.3c-.2.1-15.9 15.1-32.4 32.9-11.6 12.6-25.5 28.7-33.3 41.2q-.7.4-.8.4c7.7-12.6 21.9-29 33.8-41.9z" class="AN"/><path d="M108.9 590.9c40.3 4-18.8 103.8-25.2 114.4q-.5.7-.5.9 0 0-.1 0c-1.1-2.5-16.7-119.6 25.8-115.3z" class="AR"/><path d="M94 647.1c6.6-26.2 14-49.2 14.1-49.5l.4.2c0 .2-7.4 23.3-14 49.5-4.7 18.5-9.8 41.6-10.8 58q-.5.7-.5.9c.8-16.5 6-40.2 10.8-59.1z" class="AN"/><path d="M125.5 692.5l-.1.1-.5 7.5-4.2 62.9-.6 9H58.6l-.6-9-4.2-62.9-.5-7.5v-.1z" class="AR"/><path d="M120.7 763l-.6 9H58.6l-.6-9z" class="AU"/><path d="M125.4 692.6l-.5 7.5H53.8l-.5-7.5z" fill="#eef5ff"/><path d="M1415.2 705.8q0-.1 0-.1-.1 0-.9-.7c-9.4-8.8-97.3-92-58-107.6 41.4-16.5 59.3 105.5 58.9 108.4z" class="AU"/><path d="M1415.2 705.7q-.1 0-.9-.7c-5.6-16.2-17.3-37.9-27.4-55.1-14.2-24.5-28.1-45.5-28.3-45.7l.5-.3c.1.2 14.1 21.3 28.3 45.7 10.2 17.6 22.2 39.8 27.8 56.1z" class="AN"/><path d="M1485.6 616.2c30 20.4-59.4 73.7-69 79.3q-.7.5-.8.5 0 0 0 0c.1-2.4 38.1-101.5 69.8-79.8z" class="AU"/><path d="M1449.6 654.1c16.5-17.8 32.2-32.8 32.4-33l.3.4c-.2.1-15.8 15.1-32.3 32.9-11.7 12.6-25.6 28.6-33.4 41.1q-.7.5-.8.5c7.7-12.6 21.9-29 33.8-41.9z" class="AN"/><path d="M1437.8 585.5c40.2 4.1-18.9 103.8-25.3 114.4q-.4.8-.5.9 0 0 0 0c-1.2-2.4-16.8-119.6 25.8-115.3z" class="AR"/><path d="M1422.8 641.8c6.7-26.2 14-49.2 14.1-49.5l.5.2c-.1.2-7.5 23.2-14.1 49.4-4.7 18.6-9.8 41.7-10.8 58q-.4.8-.5.9c.8-16.5 6-40.1 10.8-59z" class="AN"/><path d="M1454.3 687.1v.2l-.5 7.5-4.2 62.9-.6 9h-61.5l-.6-9-4.2-62.9-.5-7.5v-.2z" class="AR"/><path d="M1449.6 757.7l-.6 9h-61.5l-.6-9z" class="AU"/><path d="M1454.3 687.3l-.5 7.5h-71.1l-.5-7.5z" fill="#eef5ff"/><circle cx="971.5" cy="346.6" r="17.7" class="AN"/><path d="M838.3 769.8H641.5q46.5-17.4 53-85.8 0 3.5 96.3-.7 0 1.3.1 2.5c.6 16.2 5.3 30.3 11.5 42.1q14 26.9 35.9 41.9z" fill="#7c9de2"/><path class="M Ab" d="M802.4 727.9q-26-18.1-109.3-32.7l97.8-9.4c.6 16.2 5.3 30.3 11.5 42.1z"/><rect x="430.2" y="282.1" width="619.4" height="413.8" rx="18.8" fill="#7c9de2"/><path d="M1025.6 640.3H454.2V311.8h571.4z" fill="#d0e0fa"/><circle class="M Ab" cx="739.9" cy="667.3" r="17.7"/><path class="M Ab" d="M488.2 640.4L474 282.1h14.1zm506.4-358.3h14.1l-14.1 358.3z"/><path d="M994.7 234.9v405.5H488.1V234.9c0-9.2 7.5-16.6 16.6-16.6h473.4c9.1 0 16.6 7.4 16.6 16.6z" fill="#c0d1ff"/><path d="M994.7 234.9V257H488.1v-22.1c0-9.2 7.5-16.6 16.6-16.6h473.4c9.1 0 16.6 7.4 16.6 16.6z" fill="#9eb3e8"/><g class="AN"><circle cx="517.8" cy="239.9" r="8.7"/><circle cx="543.4" cy="239.9" r="8.7"/><circle cx="569.1" cy="239.9" r="8.7"/><path d="M928.7 310.7H510.1v-32.4h418.6z"/></g><g class="AV"><path d="M955 300.7c-1.9 0-3.6-.7-5-2-1.4-1.4-2.2-3.2-2.2-5.1-.1-2 .6-3.8 2-5.2 1.3-1.4 3.1-2.2 5.1-2.2 1.9 0 3.7.7 5.1 2s2.2 3.1 2.2 5.1c.1 1.9-.6 3.7-2 5.1-1.3 1.4-3.1 2.2-5 2.3q-.1 0-.2 0zm0-12.4c-1.3 0-2.7.5-3.7 1.6-1 1-1.5 2.3-1.4 3.6a4.84 4.84 0 0 0 1.6 3.6c.9 1 2.2 1.5 3.6 1.5 1.4-.1 2.7-.6 3.6-1.6 1-1 1.5-2.3 1.5-3.7-.1-1.4-.6-2.6-1.6-3.6-1-.9-2.3-1.4-3.6-1.4z" class="Ad"/><path d="M968.2 306.7q-.4 0-.7-.3l-8.3-7.9c-.4-.4-.5-1.1-.1-1.5s1.1-.5 1.5-.1l8.4 8a1.09 1.09 0 0 1 0 1.5c-.2.2-.5.3-.8.3z"/></g><path d="M736.1 551.4h-226V332.7h226z" class="AO"/><path d="M726.1 362H520.6v-15.7h205.5zm0 26.1H520.6v-15.7h205.5zm0 26.5H520.6v-15.7h205.5zm0 31h-88.4v-10h88.4zm0 16.9h-88.4v-10h88.4zm0 16.9h-88.4v-10h88.4zm0 16.9h-88.4v-10h88.4zm0 16.8h-88.4v-9.9h88.4zm0 16.9h-88.4v-9.9h88.4zm-94.7 3.9H520.6V425.4h110.8zm345.1-179.4H747.7v-19.4h228.8zm0 32H747.7v-19.3h228.8zm0 32.1H747.7v-19.3h228.8zm-2.1 159.8H509.8v-13.7h464.6zm0 22.8H509.8v-13.7h464.6zm0 22.8H509.8v-13.7h464.6zm-106-167.3H745.8v-9.9h122.6zm0 16.9H745.8v-9.9h122.6zm0 16.9H745.8v-9.9h122.6zm0 16.9H745.8v-9.9h122.6zm0 16.9H745.8v-9.9h122.6zm0 16.9H745.8v-9.9h122.6z" class="AN"/><path class="S AP" d="M1069 534.5q2.8-.8 5.7-1.9l-8.4 30.5q-.7.2-1.5.4-4.5 7.1-7.3 4.3c-2-2-.5-4.3.5-5.4-.9.8-2.7 1.7-5-.1-2.4-1.9.3-4.1 1.9-5.1-1.4.7-4 1.4-5.9-1.1q-2.2-3.6 2.8-5.7c-.3.1-3.7 1.2-5-2.1q0-4.1 6.8-5.4-10.4 0-9.1-4.1 1.2-4 8.6-4.5 5.1-4.5 15.9.2z"/><path d="M1074.7 783l-65.9-3.4.1-3.5 66 3.4z" class="AW"/><path d="M1082.5 708.8q-5.7 42.1-6.1 43.5-.4 1.4-31.5-3.7l1.6-40.5z" class="AM"/><path d="M1078.1 750.4l-3.2 29.1-66-3.4q.6-16.4 32.8-14.8l1.2-13z" class="AX"/><path d="M1033.2 761c2.8 1.7 4.9 4.8 5.2 8.1m-11.3-7.8c2.9 1.7 4.9 4.8 5.3 8.1m-11.1-6.8c2.9 1.7 4.9 4.8 5.3 8.1" class="AS AT AY AZ Aa"/><path d="M1170.5 483.5q-27.2 55.2-46.4 122.1-.2 1-.5 2c-1.4 4.9-2.9 9.6-4.3 14.2-12.6 39.3-28 69.6-36.5 111.7l-42.6-3.1q-1.2-70.9 9.8-136.1c7.6-45.7 31.2-87.8 41.9-109.4z" class="Ac"/><path class="S AP" d="M1124.1 605.6q-.2 1-.5 2c-1.4 4.9-2.9 9.6-4.3 14.2q-3.8-29.5-7.2-64.1z"/><path d="M1204.3 785l-65.1 11.2-.6-3.5 65.1-11.2z" class="AW"/><path d="M1195.6 710.9q3.7 42.3 3.6 43.7-.1 1.5-31.5 3.3l-7.3-39.9z" class="AM"/><path d="m1200.5 752.4l3.2 29.1-65.1 11.2q-3-16.2 28.7-21.6l-1.6-13z" class="AX"/><path d="M1158.9 772.6c3.2 1.1 5.9 3.6 7 6.8m-12.8-5.1c3.2 1 5.8 3.6 6.9 6.7m-12.3-4.2c3.2 1 5.9 3.6 7 6.7" class="AS AT AY AZ Aa"/><path d="m1191 482.8q15.8 149.5 13.2 254.9l-44.9 5.7q-44.9-148-53.7-257.8z" class="AO"/><path d="m1108.7 390.3q-30.1 25.9-106.2 58l-12.9-26.8q33.3-10.1 97.4-47.5z" class="AM"/><g class="AQ"><path d="m1101.5 401.1l-20.5-27.8q40.8-27 68.4-1.6z"/><path d="M1194.3 409.3q-4.1 58.5-3.1 74.4l-99.3 1.2.2-6.2.5-25.5 1.4-65.4q-10.3-39.5 49.2-37.6 55.2.7 51.1 59.1z"/></g><g style="mix-blend-mode:soft-light" class="AP"><path d="M1049.6 433.3V536l-10.5 37.8-133.1-37 37-133.1z"/></g><path d="m1071.2 432.3l-9.8 35.2-8.4 30.4-18.8 67.5-133.1-37 37-133.1z" class="AO"/><path d="m960.5 504l15-54 39.3 40z" class="AN"/><path d="M1035.6 494.1c-7.6 27.3-35.9 43.2-63.2 35.7-27.3-7.6-43.3-35.9-35.7-63.2s35.9-43.3 63.2-35.7 43.3 35.9 35.7 63.2z" stroke-width="4" class="AS AT"/><path class="S AP" d="M1164.6 445.2l-2-2.8c-19.9 13.5-49.2 27.2-70.5 36.3l.5-25.5c22.9-12 45.8-26.5 54.5-32.2l-2.8-3.8 42.7-36.7q15.8 34.1-22.4 64.7z"/><g class="AM"><path d="M1065 484.8q-4.9 6.4-13.1 8.5-4.6 7.2-7.4 4.4-2.7-2.8 1.3-6.1-2.5 3.2-5.7.5-3.3-2.6 2.8-5.6-4.1 3-6.8-.5-2.3-3.7 2.8-5.7-3.7 1.3-5.1-2.1 0-4.2 6.8-5.4-10.3-.1-9.1-4.1 1.2-4.1 8.6-4.6 5.6-4.9 17.5.9z"/><path d="m1172.7 430q-30.3 25.7-107.7 54.8l-9.1-20.4q33.4-9.8 95.3-50.8z"/></g><path d="m1187.3 375.5q15.8 34.1-22.4 64.7l-20.2-28z" class="AQ"/><path d="M1104.6 281.5c-1.6-2.2-3.1-4.4-4.1-6.9-.9-2.5-1.1-5.4 0-7.9 1.2-2.4 3.9-4.2 6.6-3.6-2.1-3.1-1.7-7.6.8-10.3s6.9-3.4 10.1-1.5c.2-3.7 3.1-7.1 6.7-8 3.6-.8 7.6.9 9.5 4.1 2-3.2 6.3-5 10-4.1 3.8 1 6.8 4.5 7.1 8.4 3.7-3.3 9.8-3.7 13.9-.9 4.1 2.9 5.9 8.6 4.2 13.3 5.7-2 12.8 1.9 14.2 7.8 1.3 6-3.3 12.6-9.4 13.3 2.8 1.1 3.8 4.7 3.1 7.5-.7 2.9-2.8 5.3-4.8 7.4-2.7 2.9-5.6 5.8-9.2 7.5-4 1.8-8.5 1.9-12.9 1.8-9.7-.3-19.4-2.1-28.7-5.3-6-2.1-15.7-5.8-18.9-11.8-1.8-3.4-1.6-8.4 1.8-10.8z" class="AV"/><path d="m1141.6 366.6c-7.2 0-13.1-5.9-13.1-13.1v-25h26.3v25c0 7.2-5.9 13.1-13.2 13.1z" class="AM"/><path d="m1128.5 348.9v-20.4h26.3v13c-7 9-22.3 7.9-26.3 7.4z" class="Af"/><path d="M1165.5 278.2c6.6 16.6 5.8 54.9-13 64.3-18.9 9.3-36.2-1.6-41-28.5-2.1-11.9-.9-23.8 1.2-33.4 4.6-21.4 31.7-28.9 46.4-12.7 2.7 3 4.8 6.5 6.4 10.3z" class="AM"/><path d="M1159.9 297.9c-2.9-2.4-4.8-5.7-6.5-9-1.5-2.8-2.9-5.6-5.2-7.7-2.6-2.2-6.1-3.2-9.4-4.1-4.3-1.2-9-2.3-13.3-1-3.4 1-6.2 3.3-9.5 4.6-3.3 1.2-7.7.8-9.3-2.4-1.1-2.4 0-5.2 1.3-7.4 6.4-10.8 19.5-16.2 32-16.1 6.3.1 12.7 1.5 18 4.8 6.6 4.1 11.1 11.1 12.9 18.6 1.5 6 1.4 12.3.2 18.2-.6 2.6-.6 4.5-3.5 4.7-2.7.1-5.7-1.4-7.7-3.2z" class="AV"/><path d="M1172.8 303.5c-.4 3.8-3.9 6.6-7.7 6.2s-6.6-3.8-6.2-7.6c.4-3.9 3.8-6.6 7.7-6.2 3.8.4 6.6 3.8 6.2 7.6z" class="AM"/><circle class="M Ab" cx="1166.3" cy="302.8" r="3.4"/><path d="m518.2 950.8l60.8-23.9 1.3 3.2-60.8 24z" class="AW"/><path d="M522.3 874.8l14.2 37.5q-27.5 14.6-28.3 13.4-.8-1.1-19.4-38.8z" class="AM"/><path d="m538.4 911.5l5.2 11.8q29.7-11.7 35.4 3.6l-60.8 23.9-12.2-26.3z" class="AX"/><path d="M551.5 920.3c-2.2 2.5-3.1 6-2.4 9.3m8.2-10.9c-2.2 2.5-3.1 6-2.4 9.3m8.2-10c-2.1 2.5-3.1 6.1-2.4 9.3" class="AS AT AY AZ Aa"/><path d="m488.7 651.8q25.7 52.1 45.3 241.5l-42.6 13.5q-52.8-81.2-80.5-256.4z" class="Ac"/><path class="S AP" d="m468.7 723.8q-9 92.6-14 103.2l-6.9-19.8z"/><path d="M377.2 952.4l64.4 11.1-.6 3.4-64.4-11z" class="AW"/><path d="M420.1 889.6l-7.3 39.5q-31.1-1.8-31.2-3.3-.1-1.4 3.6-43.3z" class="AM"/><path d="m414.8 929.2l-1.6 12.9q31.4 5.4 28.4 21.4l-64.4-11.1 3.2-28.8z" class="AX"/><path d="M421.5 943.6c-3.2 1-5.8 3.6-6.9 6.7m12.7-5.1c-3.2 1.1-5.8 3.6-6.9 6.7m12.2-4.2c-3.2 1-5.8 3.6-6.9 6.7" class="AS AT AY AZ Aa"/><path d="m475.2 652.4q-2.1 109.6-49.4 256.4l-50.7-6.7q-10.2-102.2 15.5-252.4z" class="AO"/><path d="M507.8 551.9q39.1 62.2 63.7 86.3L548 655.8q-52.2-63-66.7-99.6z" class="AM"/><g class="AQ"><path d="m454.1 521.3q35.9-9.7 59.3 32.8l-30.7 15z"/><path d="m486.7 555.7l2 96.1-98.3-1.2q1.1-15.8-3-73.6-4.1-57.8 50.6-58.5 58.8-1.9 48.7 37.2z"/></g><path d="m631.4 669l-63.8 119.3-149-79.7 63.8-119.3c1.4-2.7 4.8-3.7 7.5-2.2l139.2 74.4c2.7 1.4 3.7 4.8 2.3 7.5z" fill="#c0d1ff"/><path d="m631.4 669l-3.5 6.5-149-79.7 3.5-6.5c1.4-2.7 4.8-3.7 7.5-2.2l139.2 74.4c2.7 1.4 3.7 4.8 2.3 7.5z" fill="#9eb3e8"/><path d="M492.9 596.8c-.8 1.5-2.5 2-4 1.2-1.4-.7-1.9-2.5-1.1-3.9.7-1.4 2.5-2 3.9-1.2a2.95 2.95 0 0 1 1.2 3.9zm7.5 4.1c-.7 1.4-2.5 1.9-3.9 1.2-1.4-.8-2-2.6-1.2-4a2.95 2.95 0 0 1 3.9-1.2c1.4.8 2 2.6 1.2 4zm7.6 4c-.8 1.4-2.6 2-4 1.2a2.95 2.95 0 0 1-1.2-3.9c.8-1.5 2.6-2 4-1.2 1.4.7 1.9 2.5 1.2 3.9zm43.6 48.9l-73.3-39.2 3.1-5.8 73.3 39.2zm-6.3 11.8L472 626.4l3.1-5.8 73.3 39.2zm-7.3 13.6L464.7 640l3.1-5.8 73.3 39.2zm61.2 32.9l-55.9-29.9 16.8-31.4 55.9 29.9z" class="AN"/><path d="M547.1 684.2l25.5-16 1.2 24.8 18.2-10.7 1.7 26.8zm61.4 2.5c-1.2 2.4-4.1 3.2-6.5 2-2.4-1.3-3.2-4.2-2-6.6 1.3-2.3 4.2-3.2 6.6-1.9 2.3 1.2 3.2 4.2 1.9 6.5z" class="Ai"/><path d="M494.7 716.9l-55.3-29.6 2.1-4 55.4 29.6zm-24.8-3.4L435.3 695l2.1-4 34.6 18.5zm-4.1 7.6l-34.6-18.4 2.1-4 34.6 18.5zM500 709l-55.9-29.9 16.8-31.4 55.9 29.9z" class="AN"/><path d="m448 681.2l25.5-16 1.2 24.8 18.2-10.7 1.7 26.8z" class="Ai"/><path d="m509.4 683.7c-1.2 2.3-4.2 3.2-6.5 2-2.4-1.3-3.3-4.2-2-6.6 1.3-2.3 4.2-3.2 6.5-2 2.4 1.3 3.3 4.2 2 6.6z" fill="#ebf5ff"/><path d="M573.2 758.8l-55.4-29.6 2.2-3.9 55.3 29.6zm-24.9-3.4l-34.6-18.5 2.2-4 34.5 18.5zm-4.1 7.7l-34.6-18.5 2.2-4 34.5 18.5zm34.2-12.2L522.5 721l16.8-31.3 55.9 29.9z" class="AN"/><path d="M526.4 723.1l25.5-16 1.2 24.8 18.2-10.7L573 748zm61.4 2.5c-1.2 2.4-4.1 3.3-6.5 2s-3.2-4.2-2-6.5c1.3-2.4 4.2-3.3 6.6-2 2.3 1.2 3.2 4.2 1.9 6.5z" class="Ai"/><path class="S AP" d="M522.7 680.6q-.3 4.4-10.5.7 6.2 3.7 4.7 7.8-2.6 2.8-5.7.1 4.2 4 .7 6.7c-2.8 1.7-5.1.1-6.2-1.1 1.2 1.6 3 4.7 0 5.7-2.9.9-4.4-.7-5-1.8.6 1.5 1.2 4.3-1.5 5.5q-3.7 1.8-5.6-7c-6.5-4.6-9.1-11.5-9.6-12.8q-52.6-41.5-78.8-73.6l-2.6 2q-28-39.5-3.7-67.6l30.6 46.5-3.8 3c10.4 12.6 47.9 57 72.8 72.7q13.7-1.3 17.4 5.6 7.1 3.2 6.8 7.6z"/><path d="M422.5 582.9q46.4 57.7 75.6 76.2L483.5 676q-64.2-50.6-86-83.4z" class="AM"/><path d="m429.1 583.3l-26.9 21.1q-28-39.5-3.7-67.6z" class="AQ"/><path d="M498.1 659.1q13.7-1.4 17.4 5.5 7.1 3.2 6.8 7.6-.3 4.5-10.5.7 6.2 3.7 4.7 7.8-2.6 2.8-5.8.2 4.3 3.9.7 6.6-4 2.5-6.9-2 4.9 5.3.7 6.6-4.2 1.3-5.4-2.6 2.7 4.6-1 6.4-3.7 1.7-5.6-7-7.3-5.2-9.7-13.2zm-64.5-141.3v-26.1H461v26.1c0 7.6-6.1 13.8-13.7 13.8s-13.7-6.2-13.7-13.8z" class="AM"/><path d="M433.6 505.3v-13.6H461V513c-4.2.6-20.2 1.7-27.4-7.7z" class="Af"/><path d="m429 428.3c15.4-17.1 43.7-9.2 48.6 13.2 2.2 10.1 3.5 22.6 1.3 35.1-5.1 28.1-23.2 39.5-42.9 29.7-19.8-9.8-20.6-49.9-13.6-67.3 1.6-4 3.8-7.6 6.6-10.7z" class="AM"/><path d="M419.4 478.3q-4.8-22.8-12.2-33c-7.5-10.2 4.3-15.9 13.5-15.4q10.7-21.2 33.5-18.8c22.8 2.3 25.2 7.8 25.7 16.7q15.3 3.7 0 31.6.5-14.4-6.5-19.1c-7-4.6-40.2 10.4-49 .2q6.5 20.6-5 37.8z" class="AV"/><g class="AQ"><path d="M440.4 472.4c-6-1.4-9.8-7.5-8.3-13.5 1.4-6 7.4-9.7 13.4-8.3s9.8 7.5 8.3 13.5c-1.4 6-7.4 9.7-13.4 8.3zm4.8-20.2c-5.2-1.2-10.3 2-11.5 7.1-1.3 5.1 1.9 10.3 7.1 11.5 5.1 1.2 10.2-2 11.5-7.1 1.2-5.1-2-10.3-7.1-11.5z" class="Ad"/><path d="M432.6 460.4q-.1 0-.3-.1c-6.4-1.9-11.7.9-11.8 1-.4.2-.9 0-1.1-.4-.2-.3-.1-.8.3-1.1.3-.1 6.1-3.2 13.1-1 .4.1.7.6.5 1-.1.3-.4.5-.7.6z"/><path d="M465.3 471.9c-6-1.4-9.7-7.5-8.3-13.5s7.4-9.7 13.4-8.3c6.1 1.4 9.8 7.5 8.4 13.5-1.5 6-7.5 9.7-13.5 8.3zm4.8-20.2c-5.2-1.2-10.3 2-11.5 7.1s1.9 10.3 7.1 11.5c5.1 1.2 10.3-2 11.5-7.1s-2-10.3-7.1-11.5z" class="Ad"/><path d="M452.7 459.5q-.2-.1-.3-.3c-.3-.3-.3-.9.1-1.1.1-.1 2.5-2.1 5.6-.4.4.3.6.8.3 1.2-.2.4-.7.5-1.1.3-2.1-1.3-3.8.1-3.8.1-.2.2-.5.3-.8.2z"/></g><path d="M421.2 457.5c4-.4 7.6 2.5 8 6.5s-2.5 7.6-6.5 8c-4 .5-7.6-2.5-8-6.5s2.5-7.6 6.5-8z" class="AM"/><circle class="M Ab" cx="421.5" cy="464.8" r="3.5"/><path d="M761.1 773.3V614.1c0-5.1 4.1-9.3 9.2-9.3h72.9c2.1 0 4.1.8 5.8 2.1l23.2 19.1c1.3 1.1 3.1 1.7 4.8 1.7h88.3c5.1 0 9.2 4.2 9.2 9.3v136.7z" fill="#e58741"/><path class="AE" d="M961.9 691.5H773.7V648c0-6.4 5.2-11.7 11.7-11.7h164.8c6.5 0 11.7 5.3 11.7 11.7z" opacity=".3"/><path d="m958.5 691.5h-181.4v-39.8c0-6.1 4.9-11 11-11h159.4c6.1 0 11 4.9 11 11z" class="AN"/><rect x="760.8" y="661.6" width="214" height="122.3" rx="11.2" class="AQ"/><path d="M253.5 827.1l54.3-13 .7 2.9-54.3 13z" class="AW"/><path d="M265.9 763.3l7.7 33.4q-25.1 9.1-25.6 8-.6-1.1-11.9-35.2z" class="AM"/><path d="m275.2 796.2l3 10.7q26.5-6.4 29.6 7.2l-54.3 13-7.2-23.7z" class="AX"/><path d="M285.3 805.2c-2.1 1.9-3.3 4.8-3.1 7.6m8.2-8.3c-2.2 1.9-3.3 4.8-3.2 7.6m8.2-7.4c-2.1 1.9-3.3 4.8-3.1 7.6" class="AS AT AY AZ Aa"/><path d="M274.4 780.6l-38.6 7.5Q201.6 676.9 198.3 666q-.1-.6-.4-1.4c-2.2-5.3-10-19.5-19.5-36.4q-20.2-35.4-48.1-82.5l93.5 1.6q28.3 92.5 35.3 115.1 7.1 22.6 15.3 118.2z" class="Ac"/><path class="S AP" d="m214.3 578.9q-5.3 45.5-16.4 85.7c-2.2-5.3-10-19.5-19.5-36.4z"/><path d="m90.9 819.5l50.5 23.9-1.3 2.7-50.5-24z" class="AW"/><path d="M140.7 777.6l-15.1 30.8q-25.1-8.6-24.9-9.8.3-1.2 12.9-34.8z" class="AM"/><path d="m127.3 809l-4.4 10.2q24.6 11.7 18.5 24.2l-50.5-23.9 9.3-23z" class="AX"/><path d="M129.4 822.4c-2.8.1-5.5 1.6-7.2 3.9m11.6-1.2c-2.8.1-5.6 1.6-7.2 3.9m11-.7c-2.8.2-5.6 1.7-7.2 4" class="AS AT AY AZ Aa"/><path d="M220.6 546.7q-4.8 75.1-82.9 248.5L102 779.3l28.3-233.6q90.6-3.5 90.3 1z" class="AO"/><path d="M130.2 546.2q.5-8.6-.9-36.8l-2-33.3c-.9-12.4 1-22 4.5-29.4q12.3-26 43.7-26.4 56.1-1.8 46.4 35.4l1.9 91.6z" class="Ae"/><path d="M237.4 472.7q.6 69.9 11.6 100.9l-15.9 3.1q-23.1-74-20.2-111.4z" class="AM"/><path d="m204.2 424.1q34.8 6.7 37.1 52.8h-32.6z" class="Ae"/><path d="M247.6 572.8q8.3 4.4 7.8 9.6 2.8 4.5 1 6.9-1.8 2.4-6.2-3.5 2.1 4.4-.3 6.1-2.5.7-3.3-2 .9 3.8-2.1 4-3.2-.1-3.1-3.8.7 4.9-2.1 4.1-2.9-.8-2.1-3.6-.2 3.7-3 3.3-2.7-.4-.5-6.1-2.2-5.6-.6-11.1z" class="AM"/><path d="M267 468.1l31.4 85.8c2 5.4-.8 11.5-6.2 13.5l-72.8 26.7a10.49 10.49 0 0 1-13.5-6.3l-36.3-98.9c-2-5.4.8-11.5 6.2-13.5l60.3-22.1.1.1z" class="AQ"/><path d="m267 468.1l-22.7 8.3-8.2-23.1z" class="Ag"/><path class="AH" d="m267 468.1l1 2.8-23.7 5.5z" opacity=".2"/><path d="m292.6 537.9l5.8 16c2 5.4-0.8 11.5-6.2 13.5l-72.8 26.7c-5.5 2-11.5-0.8-13.5-6.3l-5.9-16z" class="Ag"/><path d="M245.9 577.9c-.5.5-1.8 1.3-3.6 2-5.2 1.9-9.1-.4-10.6-4.6-1.9-5.1.7-9.3 5.2-11 1.8-.6 3.2-.8 4-.6l.2 2.9c-.7-.1-1.8 0-3 .5-2.7.9-4.2 3.3-3 6.7 1.2 3 3.6 4.2 6.6 3.1 1.1-.4 2.1-1 2.7-1.5zm1.2-4c1 .1 2.6.1 4.1-.4 1.5-.6 2.1-1.6 1.8-2.5-.4-1-1.3-1.2-3.3-1.2-2.8 0-5-.8-5.8-2.9-.9-2.6.5-5.3 4-6.6 1.8-.6 3.1-.7 4.1-.6l.3 2.9c-.7 0-1.9-.1-3.4.5-1.5.5-1.9 1.5-1.6 2.2.3 1 1.3 1.1 3.5 1.1 3 0 4.8.9 5.5 3.1.9 2.5-.2 5.3-4.3 6.8-1.7.6-3.6.8-4.6.6zm12-4.4c1.1.1 2.7.1 4.1-.4 1.6-.6 2.1-1.6 1.8-2.5-.4-1-1.3-1.2-3.3-1.2-2.8 0-5-.8-5.8-2.9-.9-2.6.5-5.3 4.1-6.6 1.7-.6 3-.8 4.1-.7l.2 3c-.7 0-1.9-.1-3.4.5-1.4.5-1.9 1.5-1.6 2.2.3 1 1.3 1.1 3.5 1.1 3 0 4.8.9 5.5 3 1 2.6-.2 5.4-4.3 6.9-1.7.6-3.6.8-4.6.6zm-53.8-49.2c3.2-1.4 2.9-3.2 2.4-4.6-.4-1.1-1-2.3-1.6-3.6l-1.6-3.6c-1.6-4.4.4-7.3 4.8-8.9l1.6-.6 1.5 4-.8.3c-2.1.8-2.4 2.3-1.7 4.4.3.8.7 1.6 1.2 2.5s1 2 1.5 3.2c1.3 3.5.3 5.4-2.1 6.9l.1.1c2.8-.4 4.7.4 6 4 .4 1.2.7 2.3 1 3.4.2 1 .4 1.9.7 2.7.7 2 1.9 3.1 4.1 2.3l.8-.3 1.5 3.9-1.7.7c-4.2 1.5-7.7.9-9.4-3.8-.5-1.2-.8-2.5-1.1-3.8-.4-1.3-.7-2.6-1.1-3.8-.5-1.3-1.5-2.9-4.8-1.9zm47-13.2c-3.2 1.3-2.9 3.2-2.4 4.5.4 1.2 1 2.3 1.6 3.5l1.6 3.7c1.7 4.7-.6 7.4-4.8 9l-1.6.6-1.5-4 .9-.3c2.1-.8 2.3-2.3 1.6-4.4-.3-.8-.7-1.7-1.2-2.5-.5-1-1-2-1.5-3.3-1.3-3.5-.4-5.4 2.1-6.9l-.1-.1c-2.8.4-4.7-.4-6-3.9-.4-1.3-.7-2.4-.9-3.4-.3-1-.5-1.9-.8-2.7-.8-2.1-2-3-4.1-2.3l-.8.3-1.5-4 1.7-.6c4.3-1.6 7.8-.7 9.4 3.7.4 1.2.8 2.5 1.1 3.8.4 1.3.7 2.7 1.1 3.8.5 1.4 1.5 3 4.8 1.9z" class="AN"/><path class="S AP" d="M209.9 490.5q-3.7 4.8-9.2 6.2-27.7 39.1-57.3 24.7c-6.5-3.2-11-7.4-14.1-12l-2-33.3c-.9-12.4 1-22 4.5-29.4q10.5-13.6 24.3-15.3l-3 50.3h-1.9c9.1 28.3 34.9 7.7 38.6 4.6q-.5-9.3 4.3-11.7 2.4-4.6 5.4-4.3c2.9.3.4 6.6.2 7.1q2.7-4.1 5.4-2.9c1.7 1.7.2 3.5 0 3.9q2.7-2.7 4.5-.3c1 2-.1 3.4-1 4.2 1.1-.8 3.3-1.9 3.9.2.5 2-.7 2.9-1.4 3.3 1-.3 2.9-.7 3.7 1.2q1.1 2.6-4.9 3.5z"/><path d="m149.2 472.5q8.2 37.4 40.2 8.6l10.4 10.9q-27.6 39.1-57.2 24.7-29.6-14.4-17.5-49.6z" class="AM"/><path d="m152.2 476.9h-32.6q2.3-46.1 37.1-52.8z" class="Ae"/><path d="M188.9 481.6q-.4-9.4 4.4-11.7 2.4-4.7 5.4-4.4 3 .4.1 7.2 2.7-4.1 5.4-3 1.9 1.9 0 3.9 2.8-2.7 4.5-.2 1.5 2.8-1.6 4.6 3.7-3.1 4.5-.3.8 2.9-2 3.6 3.3-1.7 4.3.9 1.1 2.6-4.9 3.6-3.7 4.8-9.2 6.2z" class="AM"/><path d="M162.6 321q-.3 2.1-.9 4.1c-1.9 6.4-5.8 12.5-11 16.5-2.9 2.2-7.2 3.2-11.5 3.3q-2 0-4-.2c-2.5-.2-4.9-.7-6.9-1.3-5.5-1.7-10.5-6.5-10.6-12.3 0-5.9 5-10.6 10-13.7 6.6-4.2 14-7 21.7-8.3 3.8-.7 8.2-.8 11 1.9 2.5 2.5 2.7 6.5 2.2 10z" class="AV"/><path d="M161.7 325.1c-1.9 6.4-5.8 12.5-11 16.5-2.9 2.2-7.2 3.2-11.5 3.3q-2 0-4-.2c1-4.6 4.1-9.5 6.9-12.4 4.4-4.4 10.5-7.1 16.7-7.3q1.5-.1 2.9.1z" class="AQ"/><path d="M154.9 379.8c-9.7-.8-17.5-10-18.2-19.6-.7-9.7 4.6-19.2 12.4-25 7.8-5.7 17.7-8.2 27.4-8.5 10.6-.4 22.6 2.3 28.2 11.3 7.3 11.7-.4 28-12.4 34.7-11.9 6.8-26.4 6.7-40.2 6.3" class="AV"/><path d="M164.1 422.5v-22.4h23.6v22.4c0 6.5-5.3 11.8-11.8 11.8s-11.8-5.3-11.8-11.8z" class="AM"/><path d="M164.1 411.8v-11.7h23.6v18.3c-3.7.5-17.4 1.4-23.6-6.6z" class="Af"/><path d="M160.2 345.7c13.2-14.6 37.5-7.8 41.7 11.4 1.8 8.6 3 19.3 1 30-4.3 24.1-19.8 34-36.7 25.6s-17.7-42.9-11.7-57.8c1.4-3.4 3.3-6.5 5.7-9.2z" class="AM"/><path d="M187.3 347.2c-5.6 11.5-15.5 20.7-27.3 25.4-3.3 1.3-6.9 2.3-10.3 1.5-4.5-1.2-7.7-5.5-8.4-10.1-.6-4.6 1.1-9.2 3.9-12.9 2.7-3.7 6.5-6.5 10.5-9 6.1-3.7 12.9-6.7 20.1-7.5 7.1-.8 14.7.7 20.5 5 2.7 2 5 4.7 6.5 7.7 1.1 2.2 3.2 7.2 1.6 9.6-3.2 4.5-14.8-7.2-17.1-9.7z" class="AV"/><path d="M153.5 370.8c3.4-.4 6.5 2.1 6.9 5.6.3 3.4-2.2 6.5-5.6 6.8-3.4.4-6.5-2.1-6.9-5.5-.3-3.5 2.2-6.5 5.6-6.9z" class="AM"/><circle class="M Ab" cx="153.8" cy="377" r="3"/><path d="M729.7 857.9l-.2 21c0 1.8-1.2 3.4-2.9 4-6.5 2.2-24 7.2-49.5 7.2-26 0-46.8-5.1-54.4-7.3-1.9-.5-3.1-2.2-3.1-4.1v-20.8z" class="AO"/><ellipse cx="674.7" cy="857.9" rx="55.1" ry="8.1" class="Ah"/><ellipse cx="675.3" cy="857.7" rx="43" ry="6.3" class="AO"/><path d="M718 863c-28.6 4.5-57.7 4.4-87.2-.1v-20.1h87.1z" class="Ac"/><path d="M729.7 821.6l-.2 21c0 1.8-1.2 3.4-2.9 4-6.5 2.2-24 7.2-49.5 7.2-26 0-46.8-5.2-54.4-7.3-1.9-.6-3.1-2.2-3.1-4.2v-20.7z" class="AO"/><ellipse cx="674.7" cy="821.6" rx="55.1" ry="8.1" class="Ah"/><ellipse cx="675.3" cy="821.3" rx="43" ry="6.3" class="AO"/><path d="M718 826.6c-28.6 4.5-57.7 4.4-87.2-.1v-20.1h87.1z" class="Ac"/><path d="m729.7 785.2l-0.2 21c0 1.9-1.2 3.5-2.9 4.1-6.5 2.2-24 7.2-49.5 7.2-26 0-46.8-5.2-54.4-7.4-1.9-0.5-3.1-2.2-3.1-4.1v-20.8z" class="AO"/><ellipse cx="674.7" cy="785.2" rx="55.1" ry="8.1" class="Ah"/><ellipse cx="675.3" cy="785" rx="43" ry="6.3" class="AO"/><path d="M718 790.2c-28.6 4.5-57.7 4.4-87.2-.1V770h87.1z" class="Ac"/><path d="M729.7 751.8l-.2 21c0 1.8-1.2 3.4-2.9 4-6.5 2.3-24 7.3-49.5 7.3-26 0-46.8-5.2-54.4-7.4-1.9-.5-3.1-2.2-3.1-4.1v-20.8z" class="AO"/><ellipse cx="674.7" cy="751.8" rx="55.1" ry="8.1" class="Ah"/><ellipse cx="675.3" cy="751.6" rx="43" ry="6.3" class="AO"/><path d="m1422.5 893.8l-40.5 49.7-2.7-2.1 40.5-49.8z" class="AW"/><path d="M1368.8 845.1q29.7 28.6 30.5 29.7.9 1.2-20.9 22.5l-30.9-24.4z" class="AM"/><path d="m1398.8 872.4l21 19.2-40.5 49.8q-12.5-9.9 7.2-34.2l-9.5-8.4z" class="AX"/><path d="M1381.3 913.7c3-1.3 6.6-1.1 9.4.5m-12.6 4.4c3-1.3 6.6-1.1 9.4.6m-11.7 4.7c3-1.3 6.6-1.1 9.4.5" class="AS AT AY AZ Aa"/><path d="m1354.6 643.8q-26.9 64.1-31.1 136.6c-1.4 23.3 48.4 51.2 69.3 81.1l-34.2 29.2q-108.4-73.6-102.2-133.4c4.7-45.7 11.3-90.7 21.9-112.2z" class="Ac"/><path d="M1363.4 945.7l-64.2.9v-3.4l64.1-1z" class="AW"/><path d="M1366.2 873.3q-2.8 41.1-3.1 42.5-.4 1.3-30.8-1.6l-1-39.4z" class="AM"/><path d="M1364.6 913.8l-1.3 28.4-64.1 1q-.5-16 30.8-16.5l.4-12.7z" class="AX"/><path d="M1321.7 926.9c2.9 1.5 5.1 4.4 5.6 7.6m-11.4-6.9c2.9 1.5 5 4.4 5.6 7.6m-11.2-6c2.9 1.5 5.1 4.4 5.7 7.6" class="AS AT AY AZ Aa"/><path d="M1374.9 643.1q-17 64.3-12.8 137.2c2.2 38.6 10.4 78.2 12.4 114h-48.3q-20.3-46.8-33.8-107.5c-9.9-44.7.3-95.5-.5-141z" class="AO"/><path d="m1275.7 538.2q-7.2 37.9-50.7 106.2l-18.2-9.8q19.2-27.7 42.6-95.6z" class="AM"/><g class="Ae"><path d="m1276.7 550.9l-32.3-8.8q14.7-45.2 51.1-42.5z"/><path d="m1310.5 497.1q71.2-7.1 68.7 72.3-1.8 56.8-4.3 73.7l-96.6 2-11.3-93.9q-15.9-53.1 43.5-54.1z"/></g><path d="M1264.7 581l47.5 93.5c3.1 5.9.7 13.2-5.3 16.3l-79.3 40.3c-5.9 3-13.2.6-16.2-5.3L1156.6 618c-3.1-5.9-.7-13.2 5.3-16.2l65.6-33.4.1.1z" class="AQ"/><path d="m1264.7 581l-24.7 12.6-12.5-25.2z" class="Ag"/><path class="AH" d="m1264.7 581l1.6 3.1-26.3 9.5z" opacity=".2"/><path d="M1303.4 657.1l8.8 17.4c3.1 5.9.7 13.2-5.3 16.3l-79.3 40.3c-5.9 3-13.2.6-16.2-5.3l-8.9-17.4z" class="Ag"/><path d="M1230.7 701.1l3.2 6.3 6.1-3.1-3.2-6.3 3.7-1.8 8.3 16.3-3.7 1.9-3.5-6.9-6.1 3.1 3.5 6.9-3.7 1.8-8.3-16.3zm17.7-5.1l-4.4 2.3-1.6-3.1 12.6-6.4 1.6 3.1-4.5 2.2 6.7 13.3-3.6 1.8zm27.4-5.1l-3.5-6.7-.1.1 1.4 7.2 1.2 7.4-2.9 1.5-4.9-5.4-4.7-5.7h-.1l3.2 6.9 2.8 6.4-3.4 1.7-7.3-16.8 5-2.5 4.3 4.6c1.5 1.6 3.1 3.4 4.4 5.2l.1-.1-1.4-6.7-1.1-6.3 4.9-2.4 9.1 15.9-3.5 1.8zm1.6-13.5l3.7-1.9 6.7 13.2 6.5-3.3 1.6 3.1-10.2 5.2zm-83.8-19.4l18.8-23.9 2.7 5.4-14.5 17.6.1.1 22.8-1.3 2.7 5.4-30.4 1.1zm37.4 3.4l-8-42.7 5.2-2.6 7.9 42.7zm36.9-35.4l-18.9 23.7-2.8-5.4 14.9-17.8v-.1l-23.2 1.5-2.8-5.4 30.4-1.2z" class="AN"/><path class="S AP" d="M1360.3 582.3l-2.7-1.9c-23.1 31.5-70.5 71.8-74.1 74.8q-2.4 7.9-9.5 12.9-1.9 8.6-5.5 6.9c-2.7-1.2-2.1-4-1.5-5.4-.6 1.1-2.1 2.6-4.9 1.7-3-1-1.2-4 0-5.6-1.1 1.2-3.3 2.8-6.1 1.1q-3.5-2.7.7-6.5-3.1 2.6-5.7-.2-1.4-4.1 4.6-7.7-10 3.7-10.2-.7-.3-4.3 6.6-7.5 3.7-6.7 17.2-5.4c23.3-16.9 57.6-60.5 67.3-73l-3.8-2.6 27.1-47.4q25.5 26.1.5 66.5z"/><path d="m1363.3 566.3q-19.4 33.3-80.9 84.9l-14.1-16.6q27.4-19.8 69.9-76.4z" class="AM"/><path d="M1358.9 511.6q25.5 26.1.5 66.5l-27.6-19z" class="Ae"/><path d="M1282.6 651q-2.4 7.9-9.5 12.9-1.9 8.6-5.5 6.9-3.7-1.7-1.1-6.3-1.2 3.9-5.3 2.6-4.1-1.3.7-6.5-2.8 4.5-6.8 2-3.5-2.7.7-6.5-3.1 2.6-5.7-.2-1.4-4 4.7-7.7-10.1 3.7-10.3-.6-.3-4.4 6.6-7.5 3.7-6.8 17.2-5.5zm28.1-136.4c-7.5 0-13.6-6-13.6-13.5v-25.7h27.1v25.7c0 7.5-6.1 13.5-13.5 13.5z" class="AM"/><path d="m1297.1 496.4v-21h27.1v13.4c-7.2 9.2-22.9 8.1-27.1 7.6z" class="Af"/><path d="m1335.2 423.5c6.9 17.2 6 56.6-13.4 66.3-19.4 9.6-37.2-1.7-42.2-29.3-2.2-12.3-0.9-24.6 1.3-34.5 4.7-22 32.6-29.8 47.7-13 2.8 3.1 5 6.6 6.6 10.5z" class="AM"/><path d="M1333.2 425c-8.7 10.1-41.3-4.7-48.2-.2q-6.9 4.6-6.4 18.8c-4.6-8.3-7.9-15.1-10.3-20.6-8.2-18.5 3.8-39.8 23.9-42.1q.3 0 .6-.1 22.5-2.2 43.4 34.5c9.1-.5 17.5 7.2 10.2 17.3q-7.3 10.1-8.3 29.6-11.3-17-4.9-37.2z" class="AV"/><path d="M1342.8 449.6c-.5 4-4 6.8-7.9 6.4-4-.4-6.8-3.9-6.4-7.9.4-3.9 3.9-6.8 7.9-6.4 3.9.5 6.8 4 6.4 7.9z" class="AM"/><circle class="M Ab" cx="1336.1" cy="448.9" r="3.5"/><path d="M1108.9 798.2l49.1 89.2-111.6 61.4-49.1-89.3c-1.1-2-.3-4.6 1.7-5.7l104.2-57.3c2-1.1 4.6-.4 5.7 1.7z" fill="#d2ddf0"/><path d="M1108.9 798.2l2.7 4.8-111.6 61.4-2.7-4.9c-1.1-2-.3-4.6 1.7-5.7l104.2-57.3c2-1.1 4.6-.4 5.7 1.7z" fill="#c7d1e0"/><path d="M1006.4 856c.6 1 .2 2.3-.9 2.9-1 .6-2.4.2-2.9-.8-.6-1.1-.2-2.4.8-3 1.1-.6 2.4-.2 3 .9zm5.6-3.2c.6 1.1.2 2.4-.8 3-1.1.6-2.4.2-3-.8-.6-1.1-.2-2.4.9-3 1-.6 2.4-.2 2.9.8zm5.7-3.1c.6 1.1.2 2.4-.9 3-1 .6-2.4.2-2.9-.8-.6-1.1-.2-2.4.8-3 1.1-.6 2.4-.2 3 .8zm96.4-32.7l-102.7 56.5-4-7.1 102.8-56.5zm5.3 9.7l-102.8 56.5-2.4-4.2 102.8-56.6zm3.8 7l-102.8 56.6-2.3-4.3 102.8-56.5zm3.9 7.1l-102.8 56.6-2.3-4.3 102.8-56.5zm18.9 35.4l-102.3 56.3-1.7-3 102.4-56.3zm2.8 5.1l-102.3 56.2-1.7-3 102.3-56.3zm2.7 5l-102.3 56.2-1.6-3 102.3-56.2zm-85.1 25.8l-26 14.3-14.2-26 25.9-14.2zm46.6-25.6l-41.5 22.8-14.3-25.9 41.5-22.8zm29.9-16.5l-25.9 14.3-14.3-25.9 26-14.3z" class="AN"/><path d="M1096.3 798.6l50.6 92-115 63.2-50.6-92c-1.1-2.1-.4-4.7 1.7-5.8l107.4-59.1c2.1-1.1 4.7-.4 5.9 1.7z" class="AR"/><path d="M1096.3 798.6l2.7 5-114.9 63.2-2.8-5c-1.1-2.1-.4-4.7 1.7-5.8l107.4-59.1c2.1-1.1 4.7-.4 5.9 1.7z" class="AU"/><path d="M990.7 858.2c.6 1 .2 2.4-.9 3s-2.5.2-3.1-.9-.2-2.4.9-3 2.5-.2 3.1.9zm5.8-3.2c.6 1 .2 2.4-.9 3s-2.5.2-3.1-.9-.2-2.4.9-3 2.5-.2 3.1.9zm5.8-3.2c.6 1 .2 2.4-.9 3s-2.5.2-3.1-.9-.2-2.4.9-3 2.5-.2 3.1.9zm99.4-33.8l-105.9 58.3-4.1-7.4 105.9-58.2zm5.4 10l-106 58.3-2.4-4.4 106-58.3zm4 7.3l-106 58.2-2.4-4.3 106-58.3zm4 7.2l-106 58.3-2.4-4.4 106-58.2zm19.4 36.6l-105.4 58-1.7-3.2 105.4-57.9zm2.9 5.1l-105.5 58-1.7-3.1 105.5-58zm2.8 5.2l-105.4 58-1.7-3.1 105.4-58zm-87.7 26.6l-26.8 14.8L1011 904l26.8-14.7zm48-26.3l-42.8 23.5-14.7-26.8 42.8-23.5zm30.9-17l-26.8 14.7-14.7-26.8 26.8-14.7z" class="AN"/><path d="M1154.8 968.5h-140V867.4h140z" class="AQ"/><path d="M1015.8 968.5h-40.4V867.4h40.4z" fill="#e58741"/><path d="m1154.8 867.4l12.8 33.4h-142.5l-9.2-33.4z" fill="#ffa664"/><path d="m1015.8 867.4l-10.5 33.2h-41.4l11.7-33.2z" class="AQ"/></svg>