<svg xmlns="http://www.w3.org/2000/svg" xmlns:xlink="http://www.w3.org/1999/xlink" width="2832" height="2848" xmlns:v="https://vecta.io/nano"><defs><linearGradient id="A" gradientUnits="userSpaceOnUse"/><linearGradient id="B" x1="2008.5" y1="4370.6" x2="-358.6" y2="1430.7" href="#A"><stop stop-color="#dae3fe"/><stop offset="1" stop-color="#e9effd"/></linearGradient><linearGradient id="C" x1="1373.1" y1="2576.9" x2="1342.6" y2="1973" href="#A"><stop stop-color="#09005d"/><stop offset="1" stop-color="#1a0f91"/></linearGradient><linearGradient id="D" x1="390.7" y1="603.4" x2="2792.8" y2="603.4" href="#A"><stop stop-color="#162858"/><stop offset="1" stop-color="#162858"/><stop offset="1" stop-color="#1a0f91"/></linearGradient><linearGradient id="E" x1="2862.7" y1="-13.2" x2="2678.7" y2="2361.6" href="#A"><stop stop-color="#53d8ff"/></linearGradient><linearGradient id="F" x1="2067.2" y1="2516.1" x2="1787.7" y2="3129.6" href="#A"><stop stop-color="#162858"/></linearGradient><linearGradient id="G" x1="458.9" y1="644.9" x2="2722.6" y2="644.9" href="#A"><stop stop-color="#2f579f"/></linearGradient><linearGradient id="H" x1="1826.5" y1="1411" x2="1798.7" y2="2692.2" href="#A"><stop stop-color="#162858"/></linearGradient><linearGradient id="I" x1="-7.5" y1="3490.7" x2="190.2" y2="1054.7" href="#A"><stop stop-color="#2f579f"/></linearGradient><linearGradient id="J" x1="1859.2" y1="41.7" x2="1859.2" y2="546" href="#A"><stop stop-color="#e2833d"/></linearGradient><linearGradient id="K" x1="679.2" y1="57.4" x2="679.2" y2="561.7" href="#A"><stop stop-color="#e2833d"/></linearGradient><linearGradient id="L" x1="1029.2" y1="-134.5" x2="336.8" y2="1139.2" href="#A"><stop stop-color="#e09761"/><stop offset="1" stop-color="#e09862"/></linearGradient><linearGradient id="M" x1="1067.2" y1="570.4" x2="1202.4" y2="905.9" href="#A"><stop stop-color="#e09761"/></linearGradient><linearGradient id="N" x1="1641.8" y1="206.1" x2="955.8" y2="1468" href="#A"><stop stop-color="#e09761"/></linearGradient><linearGradient id="O" x1="1108.7" y1="-89.1" x2="416.9" y2="1183.4" href="#A"><stop stop-color="#e6a473"/><stop offset="1" stop-color="#e09761"/></linearGradient><linearGradient id="P" x1="920.3" y1="-83.7" x2="1820.4" y2="742.1" href="#A"><stop stop-color="#d97d39"/></linearGradient><linearGradient id="Q" x1="561.8" y1="2590.3" x2="905.4" y2="2786.4" href="#A"><stop stop-color="#febbba"/><stop offset="1" stop-color="#ff928e"/></linearGradient><linearGradient id="R" x1="819.6" y1="2514.6" x2="973.5" y2="2887" href="#A"><stop stop-color="#2f579f"/></linearGradient><linearGradient id="S" x1="879.9" y1="2162.9" x2="-295.8" y2="1426.8" href="#A"><stop stop-color="#febbba"/><stop offset="1" stop-color="#ff928e"/></linearGradient><linearGradient id="T" x1="871.9" y1="2597.5" x2="1097.7" y2="2930.7" href="#A"><stop stop-color="#2f579f"/></linearGradient><linearGradient id="U" x1="921.8" y1="2211" x2="1182.5" y2="2496.7" href="#A"><stop stop-color="#e09862"/></linearGradient><linearGradient id="V" x1="1174.3" y1="1647.1" x2="1310.2" y2="1804.1" href="#A"><stop stop-color="#162858"/></linearGradient><linearGradient id="W" x1="1648.2" y1="1752.6" x2="1574.2" y2="1893.9" href="#A"><stop stop-color="#e2833d"/></linearGradient><linearGradient id="X" x1="1299.7" y1="2195.2" x2="1639.9" y2="2195.2" href="#A"><stop stop-color="#febbba"/><stop offset="1" stop-color="#ff928e"/></linearGradient><linearGradient id="Y" x1="1112.5" y1="2061.3" x2="1120.1" y2="1943.8" href="#A"><stop stop-color="#febbba"/><stop offset="1" stop-color="#ff928e"/></linearGradient><linearGradient id="Z" x1="1119.7" y1="1979.8" x2="994.6" y2="1740.3" href="#A"><stop stop-color="#febbba"/><stop offset="1" stop-color="#ff928e"/></linearGradient><linearGradient id="a" x1="1002.8" y1="1766.1" x2="1201.3" y2="1805.9" href="#A"><stop stop-color="#162858"/></linearGradient><linearGradient id="b" x1="1195.8" y1="1949" x2="1063.6" y2="1696" href="#A"><stop stop-color="#febbba"/><stop offset="1" stop-color="#ff928e"/></linearGradient><linearGradient id="c" x1="1299.7" y1="2278.2" x2="1124.1" y2="2335.7" href="#A"><stop stop-color="#162858"/></linearGradient><linearGradient id="d" x1="813.5" y1="2087.7" x2="2410" y2="1953.4" href="#A"><stop offset="0" stop-color="#09005d"/><stop stop-color="#162858"/></linearGradient><linearGradient id="e" x1="1095.6" y1="1857" x2="921.8" y2="2284.8" href="#A"><stop stop-color="#bccffb"/></linearGradient><linearGradient id="f" x1="1866.4" y1="979.3" x2="2344.5" y2="979.3" href="#A"><stop stop-color="#2f579f"/></linearGradient><linearGradient id="g" x1="1493.3" y1="1757.6" x2="2128.9" y2="1757.6" href="#A"><stop stop-color="#162858"/></linearGradient><linearGradient id="h" x1="1480.6" y1="2676.7" x2="1547.2" y2="1690.3" href="#A"><stop stop-color="#2f579f"/></linearGradient><linearGradient id="i" x1="1945.2" y1="60.6" x2="1945.2" y2="564.9" href="#A"><stop stop-color="#e2833d"/></linearGradient><path id="j" d="M532.2 647l2125.2 42.9c36.4.9 65.5 30.7 65.4 67.2l-3.5 1008.1c-.2 51-42 92-93 91.2l-2075.8-25.6c-51.4-.8-92.6-42.7-92.6-94.1V719.5c0-40.8 33.5-73.5 74.3-72.5z"/></defs><path d="m2471.3 2419.1c-56.9 59.9-110.8 98.6-153.4 129.1-500.4 359.1-1092.6 254.4-1218.4 228.9-185.9-37.8-545.1-110.7-804.8-416.1-392.9-462.1-331.7-1190.1-27-1670.6 55.8-87.9 350.3-575.8 948.8-654 362.2-47.4 784.4 48.1 1090.2 304.3 641.9 537.7 596.2 1624.1 164.6 2078.4z" fill="url(#B)"/><path d="m1873.8 1876.5l76.5 454.3h-587.7l50.7-454.3z" fill="url(#C)"/><path d="M506.1 606.7c372.1-8.4 1821.9 24.9 2149.5 35.4 59.2 1.9 108.5 45.6 117.6 104.1 43.2 277.6 31.5 875.7 24.3 1124.5-1.8 63.9-53.6 115.1-117.6 116.1-372.3 5.4-1740-19-2131-29.1-88-2.3-158.2-74.3-158.2-162.4V724.7c0-64.2 51.2-116.6 115.4-118z" fill="url(#D)"/><use xlink:href="#j" fill="url(#E)"/><path d="m2734.9 1898.6q0 0 0 0l-2277.1-38.8c-1.8-0.1-3.3-1.6-3.3-3.4 0-1.9 1.5-3.3 3.4-3.3l2277.1 38.8c1.8 0 3.3 1.5 3.2 3.4 0 1.8-1.5 3.3-3.3 3.3z" fill="#7d97f4"/><path d="M2076.9 2423.7h-860.1c-23.4 0-40.9-16.6-36.4-34.5l11-43.6c3.3-13.2 17.8-22.8 34.9-23.3l829.2-25.9c17.9-.6 33.8 8.9 37.7 22.6l19.9 69.5c5.2 18.1-12.5 35.2-36.2 35.2z" fill="url(#F)"/><use xlink:href="#j" fill="#91b3fa"/><path d="M458.9 875V719.5c0-40.8 33.1-73.6 73.8-72.6l2124.7 42.9c36.4.9 65.5 30.6 65.4 67.1l-.5 118.1z" fill="url(#G)"/><g fill="#91b3fa"><circle cx="594.5" cy="785.3" r="24.3"/><circle cx="678.8" cy="785.3" r="24.3"/><circle cx="760.5" cy="785.3" r="24.3"/></g><path d="M2596.2 1800.8L600.9 1772c-30.3-.4-54.7-25.1-54.7-55.4v-199.8c0-28.2 23.1-51 51.3-50.6l2000 22.7c23 .3 41.5 19 41.5 41.9v227.9c0 23.5-19.3 42.4-42.8 42.1zm-718.3-359.6l-1275.5-18.3c-31.1-.5-56.2-25.9-56.2-57V971c0-22.3 18.1-40.4 40.4-40.4h1282.8c25.6 0 46.4 20.8 46.4 46.4v426.9c0 20.8-17.1 37.6-37.9 37.3zm718.9.5h-607.6c-21.5 0-38.9-17.4-38.9-38.8V979.1c0-26.8 21.7-48.5 48.4-48.5h611.1c16.1 0 29.2 13.1 29.2 29.2v439.8c0 23.3-18.9 42.1-42.2 42.1z" fill="#bdd0fb"/><path d="M130.5 1463.7c-.5-20.3 7.4-39.9 21.8-54.2 14.4-14.4 34-22.2 54.3-21.7l1555.6 40.3c34.9-2.4 54 29.2 54 45.4l-13.3 914.6c0 16.2-13.2 29.4-29.4 29.4H181.8c-16.2 0-29.4-13.2-29.4-29.4z" fill="url(#H)"/><path d="M159.3 1476c-.4-14.2 5.2-28 15.3-38.1s23.9-15.6 38.1-15.2l1490.9 40c26.6-1.1 70.4 16.9 71.8 66.9l-12.5 830.3c0 15.3-12.5 27.9-27.8 27.9H209.3c-15.3 0-27.9-12.6-27.9-27.9z" fill="#91b3fa"/><path d="M162.7 1613.3l-3.4-136.7c-.4-14.3 5.2-28.6 15.3-38.6 10.1-10.1 23.9-15.5 38.1-15.2l1490.9 40.2c26.6-1.1 70.4 17.1 71.8 67.1l-1.2 83.2z" fill="url(#I)"/><path d="M1746.5 1965.5q-.1 0-.1 0c-2.3-.1-4.1-1.9-4-4.2l1-67.3c0-2.3 1.8-4.1 4-4.1q.1 0 .1 0c2.3.1 4.1 1.9 4 4.2l-1 67.3c0 2.3-1.8 4.1-4 4.1z" fill="#fff"/><g fill="#bdd0fb"><path d="M1748.9 1800.4q-.1 0-.1 0c-2.2 0-4-1.9-4-4.1l3.8-257.9c-.1-15.4-4.7-27.6-13.8-36.3-17-16.3-44-15.5-45.1-15.4l-476.6-12.8c-2.2 0-4-1.9-3.9-4.2 0-2.2 1.8-4.1 4.2-3.9l476.2 12.7c3-.1 31.7-.6 50.8 17.7 10.8 10.3 16.3 24.5 16.3 42.2l-3.7 258c-.1 2.2-1.9 4-4.1 4z"/><rect x="226.9" y="1653.9" width="910.9" height="382.5" rx="37.6"/><rect x="1185.3" y="1653.9" width="544.7" height="382.5" rx="27"/><rect x="226.9" y="2092" width="1503.2" height="259.6" rx="33.1"/></g><g fill="#91b3fa"><circle cx="238.6" cy="1515.4" r="19.1"/><circle cx="302.4" cy="1517.2" r="19.1"/><circle cx="362" cy="1520.8" r="19.1"/></g><ellipse cx="1716.6" cy="921.8" rx="262.8" ry="266.1" fill="#fff"/><path d="M1707.4 1065.2c-11.4 0-22-6.1-27.9-16l-98.9-166.7c-9.2-15.6-4.2-35.8 11.2-45.2 15.4-9.3 35.3-4.3 44.6 11.3l68.6 115.7 90.7-180.5c8.2-16.2 27.8-22.6 43.8-14.4 16 8.3 22.4 28.1 14.2 44.3l-117.3 233.5c-5.4 10.6-16.1 17.5-27.9 18q-.6 0-1.1 0z" fill="url(#J)"/><ellipse cx="536.7" cy="1943.1" rx="262.8" ry="266.1" fill="#fff"/><path d="M527.4 2086.5c-11.4 0-22-6.1-27.9-16l-98.8-166.7c-9.3-15.6-4.3-35.8 11.1-45.2 15.4-9.3 35.4-4.3 44.7 11.3l68.6 115.7 90.7-180.5c8.1-16.2 27.7-22.6 43.7-14.4 16 8.3 22.4 28.1 14.3 44.3l-117.4 233.5c-5.4 10.6-16 17.5-27.8 17.9q-.6.1-1.2.1z" fill="url(#K)"/><path d="m181.1 562.3c-2.8-1-4.2-4.3-3-7.1 85.1-190.3 267.3-318.8 473.7-321.1 2.7 0 4.9 2.2 4.9 4.9l-5 317c-73.2 8.3-136.2 54.7-170.1 120.5z" fill="url(#L)"/><path d="m1172.4 836c-23 266.3-230.7 481.1-495.2 498-91.1 5.9-163.6-4.3-240.7-42.9l158.8-289.6c1.6-3.1 5.3-4.5 8.6-3.2q2.7 1 5.4 1.9c62.9 21 138.4 13.1 191-29.4 20.7-16.8 37.5-38 50.6-61.1 7.1-12.5 13.1-25.5 18.3-38.9 1.1-2.7 7.5-24.5 11.1-35.8 1.3-4.1 5-6.8 9.3-6.7z" fill="url(#M)"/><path d="m1176.4 834.2c-23.1 266.4-230.8 487.6-495.3 504.6-91 5.8-178.1-13.1-255.2-51.8l163.2-280.8c1.5-2.5 4.6-3.6 7.4-2.5 26.2 10.6 61.8 17.5 91.6 16.5 106.2-3.6 184.3-86.2 201.5-191.9z" fill="url(#N)"/><path d="M134.4 774.4c0-57.5 8.4-113.1 24-165.4.8-2.5 3.5-3.8 5.9-2.9l302.4 113.1c-3.6 16.5-5.5 33.6-5.5 51.2 0 70 29.9 132.2 76.9 173.5 3.1 2.7 3.8 7.2 1.7 10.8l-163.7 279.9c-144.9-95.4-241.7-264.2-241.7-460.2z" fill="url(#O)"/><path d="M718 24.7c364.3 43 636.3 368 637.7 747.3l-3.6 3.4-453.4-15.2c-5.3-.1-9.6-4.2-10.3-9.4-12.3-98.7-85-177.6-178.8-193.3z" fill="url(#P)"/><path d="M751.3 2669.5c.4-.2 218.4-381.9 247.8-417.8 5-6 12.7-9.1 20.4-8.2l60.9 7.3 71.4 154.6-119-69.4c11.8 81.5-141.2 202.6-193.7 246.8a12.02 12.02 0 0 0-.9 17.5l20.9 22c-34.4 34.8-74 57.2-118.8 67.5z" fill="url(#Q)"/><path d="M847 2610.4q13.4 4.4 17.9 16.3c2.2 5.7-.2 12.1-5.1 15.7-22 15.7-94.6 66.6-128.1 76.6-2.8.8-5.4-1.7-4.8-4.5 1.8-7.8 7.3-23.3 25.2-46l-1.6 3.2c-2 4.1 2.5 8.4 6.5 6.1 22.4-12.6 68-40.3 90-67.4z" fill="url(#R)"/><path d="M836.2 2763.2c.4-.3 33.1-79.1 33.5-79.3 29.9-182.5 103.1-338.9 124.7-380 3.6-6.9 10.5-11.5 18.3-12.2l61-5.2 101.3 137-130.6-43.8c28 77.4-97.3 226.9-139.7 280.8a12.1 12.1 0 0 0 2.6 17.4l24.9 17.2c-26.6 41.1-60.9 71-102.7 90.2z" fill="url(#S)"/><path d="M918 2686q13.9 1.5 20.8 12.2c3.3 5.2 2.3 12-1.9 16.4-18.3 19.9-79.1 84.5-109.9 101-2.5 1.4-5.6-.5-5.5-3.4.1-8 2.4-24.3 15.3-50.2l-.9 3.5c-1.2 4.4 4.1 7.7 7.5 4.7 19.4-16.9 58.5-53.3 74.6-84.2z" fill="url(#T)"/><path d="M1359.5 2257.7q55.2 82.1 59.7 119.6c4.5 37.4-15.3 50.4-73.1 55.2q-172 14.2-256.8-37.3c-11.7-75.1-20.1-94.2-118.4-134.9q124.3 9.8 149.3.1 25.1-9.7 239.3-2.7z" fill="url(#U)"/><path d="m1139.2 1797.5q38.5-45.5 79.4 10.3c7.4 10.1 35.8 1.8 46.3 23 5.4 10.9 17 17.1 29 14.9 29.8-5.5 78.6-6 102.7 40.8 18.3 35.7 4.1 56.6-14.2 68.5-13.5 8.7-18.3 26.5-10.2 40.3 7.8 13.3 9.3 31.3-10.9 53q-45.3 48.5-134.9-30.8l-71.2-168.2z" fill="url(#V)"/><path d="m1210.1 2246.8q-64.3-61.2-95.9-101.8c-17.2-21.9-22.5-50.8-14.6-77.4 14.4-48.7 40.1-99.1 42.5-107q3.5-12 75.7-11.5 141.8 92.1 197.6 248l-62.6 19.5q-37.1-62.1-73.7-101.6 63.4 83.6 65.6 117.9z" fill="url(#W)"/><path d="m1087.6 2271l48.3-52.6 55.8 15q65.1 10.1 102.3 0 37.2-10.1 37.2-10.1l84.2-26.2 13.2 37.4c3.4 9.5 0 20-8.2 25.8-7.3 5.2-15.8 10.9-21.3 13.3q-11 4.8-255.2 1.5z" fill="url(#X)"/><path d="M1168.2 1862.4l48.5 90.1c-3.2 19.7-52.8 20.2-60.4 8.5-.8-1.2-1.3-2.6-1.6-4l-29-60.2c-1.2-5.9 14.9-25.7 20.2-28.5l19.3-10.2c7.4-4-23.6-4.3 3 4.3z" fill="url(#Y)"/><path d="m1168.5 1858.1c6.6 38.6-8 61.6-20.1 75.4-12.1 13.9-35.9 15.6-59.8-23.1q-24-38.7-18.5-69.2c8.3-38.8 91.8-21.7 98.4 16.9z" fill="url(#Z)"/><path d="M1139.5 1862.3q-38.8-50.9-68.5-6.5l.5 15.3q-38.7-1.8-34.5-37.4c4.2-35.7 35.8-60 79.6-47.9 43.7 12.2 69.3 26.1 74.3 56.5q4.9 30.4-19.9 25.4-9.5-20.9-20.9-22.4-11.5-1.4-7.3 15.2z" fill="url(#a)"/><path d="m1148.4 1861q-20.1-26.1-1.8-31.5c18.2-5.4 17.6 25.5 16.4 37.1z" fill="url(#b)"/><path d="M1247.5 2291.8q-.2 0-.5 0l-222.2-.3c-5.5 0-10-4.4-10-9.9s4.5-10 10-9.9l222.2.2c5.5 0 10 4.5 10 10 0 5.3-4.2 9.6-9.5 9.9z" fill="url(#c)"/><path d="m825 2090h185.1c13.6 0 26.1 7.9 31.9 20.2l85.5 181.5h-230c-8.8 0-16.7-5.4-19.9-13.6l-66.4-167.9c-3.8-9.7 3.3-20.2 13.8-20.2z" fill="url(#d)"/><path d="m955.4 2183c4 12.5 1 24.6-6.6 27-7.7 2.5-17.2-5.6-21.2-18-4-12.5-1-24.6 6.6-27.1 7.7-2.4 17.2 5.7 21.2 18.1z" fill="url(#e)"/><path d="M2263.4 2473q-153.3 218.7-397 280.6c177.4-131.5 320-347.2 236.6-938.1-66.5-471 200.2-740.5 311.2-830.5 10.9-8.9 28.8-.4 25.8 12.3-53 225.6 199.8 938.4-176.6 1475.7z" fill="url(#f)"/><g fill="#7d97f4"><path d="M2355.5 1181.8c-13.8 65.8-26.2 131.8-35.8 198.1-9.9 66.2-17.6 132.7-22.8 199.2-4.9 66.6-8.4 133.3-8.6 200-.6 66.6 2.2 133.3 5.3 200.1 2.6 66.9 5.7 134.2.8 202-4.8 67.7-19.1 136-47.4 200-7 15.9-14.5 31.8-22.9 47.2-8.1 15.5-17 30.7-26.2 45.8-18.7 30-39.6 59-63 86.6-46.9 55-103.5 103.7-165.8 145-6.5 4.4-15.9 3.3-21-2.3-4.9-5.6-3.8-13.5 2.4-17.9l.1-.1c14.8-10.4 29.5-20.9 43.6-32 7.1-5.4 13.9-11.1 20.9-16.7 6.7-5.8 13.7-11.4 20.2-17.4 26.5-23.6 51-48.7 73.2-75.3 44.8-52.8 80.6-111.8 107.7-172.9 13.2-30.7 23.7-62.1 31.4-94.2 7.6-32.1 12.5-64.7 15.1-97.6 5.4-65.8 2.9-132.5.9-199.4-2-66.8-3.4-134.1-1.7-201.2q1.2-50.4 4.5-100.7c.9-16.8 2.3-33.5 3.6-50.3q2.2-25.1 4.9-50.2c7.2-66.8 16.7-133.4 28.7-199.7 12.4-66.2 26.8-132.1 44.1-197.5.5-1.8 2.6-3 4.8-2.6 2.1.5 3.4 2.2 3 4z"/><path d="m1912.1 1227.5c7.4-16.7 31.7-14.3 35.7 3.4 18.9 84.1 72.9 265.7 226.6 573.5 182 364.5 71.8 680.9 23.1 788.5-8.8 19.4-34.6 23.9-49.3 8.3-531.6-564-317.3-1189.8-236.1-1373.7z"/></g><path d="M2168 2581.8c-.1-5.2-10.2-524.4-203.2-958.9-1.8-4.2.1-9.2 4.3-11 4.2-1.9 9.1 0 11 4.2 194.4 437.7 204.5 960.2 204.6 965.5a8.22 8.22 0 0 1-8.2 8.4q-.8 0-1.6-.1c-3.9-.7-6.8-4-6.9-8.1z" fill="#91b3fa"/><path d="M1540.4 1761.5c124-9.4 447 17.9 542.5 29.1 22.2 2.6 39.6 23.3 41.5 49.3 15.6 216.7 9 689.7 6 857.9-.6 35-24.3 63.3-54.2 64.8-143.5 7-465.1-1.5-552.8-4.8-17.8-.7-32-17.4-32.6-38.1-5.2-195.9 5.8-748.6 9.2-908.9.6-26.2 18.1-47.6 40.4-49.3z" fill="url(#g)"/><path d="M1574.3 1818.4c101.9-6.5 398.3 15.6 486.7 24.9 21.4 2.3 38 22.8 38.8 47.9 4.5 157.3-12.9 557.9-19 689.9-1.2 25.3-18.1 45.7-39.7 47.7-119.9 11.3-398.9-1.1-480.6-6.7-19.9-1.3-35.6-20.1-36.3-43.4-4.7-159.1 10.2-589.4 14.9-718.7.9-22.4 16.1-40.3 35.2-41.6z" fill="#91b3fa"/><path d="M1724.4 1780.3c35.2-1.5 88.4 3.8 106.1 5.6 3.5.4 6.3 3.5 7 7.5l.2 1c.9 5.9-3.1 11.3-8.2 11l-105.2-6.7c-4.2-.2-7.5-4.3-7.5-9.2s3.3-9 7.6-9.2z" opacity=".5" fill="#fff"/><path d="M1536.8 1927.4l2.3-67.2c.9-22.4 16.1-40.5 35.2-41.7 101.9-6.5 398.3 15.6 486.7 24.9 21.4 2.3 38 22.8 38.8 47.9l.7 48.8z" fill="url(#h)"/><g fill="#fff"><path d="M1814.6 2215.8h-230.5c-13.6 0-24.7-11.4-24.7-25.4v-202.5c0-12.8 10.3-23.1 22.7-22.8l232.7 5.7c12.8.4 23 11.1 23 24.3v196.8c0 13.2-10.4 23.9-23.2 23.9zm249.8 0h-197.2a8.96 8.96 0 0 1-9-9v-228.4c0-3.8 3.1-7 7-7h199.7c3.9 0 7 3.2 7 7.1v229.7c0 4.2-3.3 7.6-7.5 7.6zm.3 198.3h-505.6c-4.4 0-8-3.5-8-8v-151.8a6.49 6.49 0 0 1 6.5-6.5h506.8c4.1 0 7.5 3.4 7.5 7.6v151.5a7.17 7.17 0 0 1-7.2 7.2zm-46.8 187.8l-443.2-6.2c-13.2-.2-23.7-9.8-23.7-21.5v-107.3c0-10.4 9.3-18.8 20.9-18.8h466.4c11 0 20 8 20 17.9l.3 100c.1 20-18.2 36.2-40.7 35.9z" opacity=".4"/><circle cx="1585.3" cy="1887.4" r="15.6" opacity=".7"/><circle cx="1637.5" cy="1888.9" r="15.6" opacity=".7"/><circle cx="1686.2" cy="1891.8" r="15.6" opacity=".7"/><ellipse cx="1834.5" cy="2185.9" rx="203.3" ry="205.9"/></g><path d="M1827.3 2296.9c-8.8 0-17-4.7-21.6-12.4l-76.5-128.9c-7.1-12.1-3.3-27.8 8.7-35 11.9-7.3 27.3-3.3 34.5 8.7l53.1 89.5 70.2-139.6c6.3-12.5 21.5-17.5 33.8-11.2 12.4 6.4 17.4 21.8 11.1 34.3l-90.9 180.7c-4.1 8.2-12.4 13.6-21.5 13.9q-.4 0-.9 0z" fill="url(#i)"/></svg>