<svg xmlns="http://www.w3.org/2000/svg" width="217" height="97" xmlns:v="https://vecta.io/nano"><path d="M51.6 68.5v15.6h-4.9V45.6h13.1q5 0 8.5 3.3 3.6 3.4 3.6 8.2 0 4.9-3.6 8.2-3.4 3.2-8.5 3.2zm0-18.2v13.5h8.3q3 0 4.9-2 2-2 2-4.7 0-2.7-2-4.7-1.9-2.1-4.9-2.1zm33.5 6.6q5.5 0 8.7 2.9 3.1 3 3.1 8.1v16.2h-4.7v-3.6H92Q88.9 85 83.8 85q-4.3 0-7.3-2.6-2.9-2.6-2.9-6.4 0-4.1 3.1-6.5 3.1-2.5 8.2-2.5 4.5 0 7.3 1.6v-1.1q0-2.6-2-4.4-2.1-1.8-4.8-1.8-4.2 0-6.6 3.5l-4.4-2.7q3.7-5.2 10.7-5.2zm-6.4 19.2q0 1.9 1.6 3.2 1.7 1.3 3.9 1.3 3.1 0 5.6-2.3 2.4-2.3 2.4-5.5-2.3-1.8-6.4-1.8-3.1 0-5.1 1.5-2 1.4-2 3.6z" fill-rule="evenodd" fill="#6d7878"/><path d="M102.5 57.8h4.8v4.3h.2q2.2-5.1 9.1-5.1l1 .1v5.2l-2.2-.2q-3.4 0-5.7 2.1-2.2 2.1-2.2 5.4v14.5h-5zm30.9 26.9q-3.2 0-5.3-2-2.2-2-2.2-5.6V62.4h-4.6v-4.6h4.6v-8h4.9v8h6.5v4.6h-6.5v13.1q0 2.6 1.1 3.6 1 .9 2.3.9.6 0 1.1-.1.6-.1 1.1-.4l1.5 4.5q-1.9.7-4.5.7zm8.9-26.9h4.7v3.6h.2q1.2-1.9 3.5-3.2 2.4-1.3 4.9-1.3 4.8 0 7.4 2.8 2.6 2.7 2.6 7.9v16.5h-4.9V67.9q-.2-6.5-6.5-6.5-3 0-5 2.4-2 2.4-2 5.7v14.6h-4.9z" fill="#6d7878"/><path fill-rule="evenodd" d="M183.3 85q-5.8 0-9.6-4-3.7-4-3.7-10 0-6.1 3.6-10.1 3.7-4 9.4-4 5.8 0 9.3 3.8 3.5 3.8 3.5 10.6l-.1.6H175q.1 3.8 2.6 6.2 2.5 2.4 5.9 2.4 4.8 0 7.4-4.8l4.4 2.2q-1.7 3.3-4.9 5.2-3.1 1.9-7.1 1.9zm-7.9-17.2h15.1q-.2-2.8-2.2-4.6-2-1.8-5.4-1.8-2.8 0-4.8 1.7-2.1 1.8-2.7 4.7z" fill="#6d7878"/><path d="M205.2 84.1h-4.9V57.8h4.7v4.3h.2q.8-2.1 3.2-3.6 2.3-1.5 4.5-1.5 2.2 0 3.7.7l-1.5 4.7q-.9-.3-2.9-.3-2.8 0-4.9 2.2-2.1 2.3-2.1 5.3z" fill="#6d7878"/><path d="M69.2 23.1q.2.9.2 2.1 0 5.1-3.3 8.2-3.2 3.1-8.2 3.1-3.3 0-6.2-1.7-3-1.6-4.6-4.5-1.7-2.8-1.7-6.1 0-3.3 1.7-6.1 1.7-2.9 4.6-4.5 2.9-1.7 6.2-1.7 4.9 0 8.4 3.4L64 17.6q-2.6-2.4-6.1-2.4-3.7 0-6.3 2.6-2.5 2.6-2.5 6.4 0 3.7 2.5 6.3 2.6 2.6 6.3 2.6 3.2 0 5.4-1.7 2.3-1.8 2.6-5h-8v-3.3z" fill="#3980c5"/><path fill-rule="evenodd" d="M84.2 22.9q2.3 2.3 2.3 5.7 0 3.3-2.3 5.6-2.3 2.3-5.7 2.3-3.3 0-5.6-2.3-2.3-2.3-2.3-5.6 0-3.4 2.3-5.7 2.3-2.3 5.6-2.3 3.4 0 5.7 2.3zM83 28.6q0-2.1-1.3-3.5-1.3-1.3-3.2-1.3-1.8 0-3.1 1.3-1.3 1.4-1.3 3.5 0 2 1.3 3.4 1.3 1.4 3.1 1.4 1.9 0 3.2-1.4 1.3-1.4 1.3-3.4z" fill="#ff3b23"/><path d="M122.9 12.7h3.5V36h-3.5z" fill="#1eb14d"/><g fill-rule="evenodd"><path d="m101.5 22.9q2.3 2.3 2.3 5.7 0 3.3-2.3 5.6-2.3 2.3-5.6 2.3-3.4 0-5.6-2.3-2.4-2.3-2.4-5.6 0-3.4 2.3-5.7 2.3-2.3 5.7-2.3 3.3 0 5.6 2.3zm-1.1 5.7q0-2.1-1.3-3.5-1.3-1.3-3.2-1.3-1.9 0-3.2 1.3-1.3 1.4-1.3 3.5 0 2 1.3 3.4 1.3 1.4 3.2 1.4 1.8 0 3.1-1.4 1.4-1.4 1.4-3.4z" fill="#ffb32f"/><path d="M139.8 31.2l2.7 1.8q-2.4 3.5-6.6 3.5-3.4 0-5.6-2.3-2.3-2.3-2.3-5.6 0-3.4 2.2-5.7 2.1-2.3 5.3-2.3 1.2 0 2.2.4 1.1.3 1.9 1 .9.7 1.6 1.6.7 1 1.1 2.1l.3.9-10.5 4.4q1.2 2.4 3.8 2.4 2.4 0 3.9-2.2zm-8.3-2.9l7.1-2.9q-.3-.8-1.1-1.2-.9-.5-1.9-.5-1.6 0-2.9 1.3-1.3 1.3-1.2 3.3z" fill="#ff3b23"/><path d="M117.2 21.1h3.3v14.2q0 4-2 6.2-2 2.1-5.6 2.1-1.2 0-2.2-.3-1.1-.4-2-1-1-.6-1.6-1.5-.7-.8-1.2-1.9l3-1.2q.6 1.2 1.6 2 1.1.8 2.4.8 4.3 0 4.3-5v-.8h-.1q-1.6 1.8-4.2 1.8-3.1 0-5.4-2.3-2.2-2.4-2.2-5.6 0-3.3 2.2-5.6 2.3-2.4 5.4-2.4 2.6 0 4.2 1.8h.1zm.2 7.5q0-2.1-1.2-3.5-1.2-1.4-3-1.4-1.8 0-3.1 1.5-1.3 1.3-1.3 3.4 0 2 1.2 3.4 1.3 1.4 3.2 1.4 1.7 0 3-1.4 1.2-1.4 1.2-3.4z" fill="#3980c5"/></g><path d="M.9.8h25.3v96H.9z" fill="#3980c5"/></svg>