<svg xmlns="http://www.w3.org/2000/svg" width="2800" height="2000"><style>.s0{fill:#fff}.s1{fill:#ebf3fa}.s3{fill:#aec3ff}.s4{fill:#739af0}.s5{fill:#dfebfd}.s6{opacity:.5;fill:#ebf3fa}.s7{fill:#f99746}.s8{fill:#ffb27d}.s9{fill:#233862}.s10{fill:#f4904d}.s11{fill:#ffa561}.s13{fill:#afcdfb}.s14{fill:#95b3ef}.s15{fill:#1c4b8e}.s17{fill:#163560}.s18{fill:#1f4d84}.s20{fill:#82b378}.s21{fill:#a8d29f}.s22{fill:#f9ddbf}.s25{fill:#1f4a91}</style><g id="&#x2018;&#x43B;&#x43E;&#x439;_1"><path id="&lt;Path&gt;" class="s0" d="M2800 2000H0V0h2800z"></path><g id="&lt;Group&gt;"><path id="&lt;Path&gt;" class="s1" d="M354.7 1822.6s-297.8-314.4-108.1-684.1c189.6-369.7 444.1-183.6 431.9-614-12.1-430.3 585.6-467.1 775.8-342.2 190.2 124.8 207 205.2 599.8 155.6 392.7-49.6 575.4 316.7 446.3 570.9-150.7 296.9 303.4 325.6-41.7 914.5z"></path><g id="&lt;Group&gt;" style="opacity:.4"><path id="&lt;Path&gt;" d="M2412.5 717.6c0 19-1.7 37.6-5 55.7-7.9 43.5-24.8 83.8-48.8 118.9-55.8 81.5-149.6 135.1-255.9 135.1-126.4 0-235.1-75.8-283.2-184.4-6.4-14.3-11.7-29.1-15.8-44.5-7-25.8-10.7-52.9-10.7-80.8 0-22.7 2.4-44.7 7-65.9l.2-.8c12.9-58.7 42.4-111.1 83.4-152.2 11.6-11.6 24.1-22.3 37.5-32q9.5-6.9 19.6-13.1c47.2-29 102.6-45.8 162-45.8q11.9 0 23.4.9 16.4 1.2 32.2 4.1c44.5 8.1 85.6 25.6 121.2 50.4 22.3 15.5 42.3 33.8 59.8 54.4 9.2 10.9 17.6 22.3 25.2 34.4q7.1 11.2 13.3 23c9.9 19 17.8 39.2 23.6 60.3 7.2 26.2 11 53.8 11 82.3z" style="fill:#d7e5ff"></path><g id="&lt;Group&gt;"><path id="&lt;Path&gt;" class="s3" d="M1997.6 578.9c-12.3 19.6 5.2 53.6-31.9 44.3-37.1-9.3-59.7-13.4-61.8 7.2-2.1 20.6 27.8 20.6 27.8 42.3 0 21.6-13.4 28.7-34 18.5-20.6-10.3-26.5-25.3-50.4-16-24 9.3-37.9 3.1-43.3-15.4-1-3.3-2.3-5.9-3.9-8.1l.2-.8c12.9-58.7 42.4-111.1 83.4-152.2 11.6-11.6 24.1-22.3 37.5-32q9.5-6.9 19.6-13.1c9.7.3 21.2 4 31.1 16.1 21.6 26.8 36 13.4 30.9 44.3-5.2 30.9 3.1 35.1 20.6 34 17.5-1 38.1-1 40.1 12.4 2.1 13.4-53.5-1-65.9 18.5zM2156.2 780.3c-14.9 19.5-5.1 36-19.5 56.6-14.5 20.6-33-2.6-42.3 5.7-9.2 8.2 15 27.8 13.4 40.7-1.5 12.8-20.3 12.8-25 31.4-4.6 18.5-16.2 10-23.1 22.4-7 12.3 14.6 28.6 10.8 40.9-3.9 12.4-29.4 6.2-42.5-12.3-13.1-18.6-7.7-20.1-15.5-46.4-7.7-26.3 7.8-39.4 17.8-56.4 10.1-17-11.6-11.6-23.2-23.9-11.5-12.4-2.3-19.3-7.7-35.6-5.4-16.2-32.2-20-32.7-44.8-.5-24.7 16-18.5 34-31.9 18-13.4 10.3-19.6 25.8-21.6 15.4-2.1 17.5 14.4 41.7 20.1 24.2 5.6 15.9 9.8 23.1 28.8 7.2 19.1 34.5 10.3 34.5 10.3 10.3-11.3 45.4-3.6 30.4 16zM2412.5 717.6c0 19-1.7 37.6-5 55.7-7.9 43.5-24.8 83.8-48.8 118.9-8.2 2.7-16.6 2.6-24.8-.7-38.6-15.4-10.1-57.2 5.4-78 15.4-20.9-23.9-11.6-52.5-30.9-28.6-19.3 3.1-71.1-26.3-62.6-29.3 8.5-64.9 19.3-81.9-9.3-17-28.5 15.5-33.2.8-57.1-14.7-24 8.5-37.9 37.9-40.2 29.3-2.3 25.4-23.2 61.7-26.2 36.4-3.1 35.6 43.2 75.7 40.1 40.2-3.1 38.4 6.2 38.4 6.2 2.9-.1 5.7.5 8.4 1.8 7.2 26.2 11 53.8 11 82.3zM2377.9 575c-33.4 16.3-46.8-27.9-75.4-14.6-28.8 13.4-23.7-12.4-46.4-28.9-22.6-16.4-67.9 13.4-65.9-12.3 2.1-25.8 36.1-18.6 43.3-39.1 7.2-20.6 40.1-15.5 40.1-15.5q2.9-1.1 6-1.4c22.3 15.5 42.3 33.8 59.8 54.4 9.2 10.9 17.6 22.3 25.2 34.4q7.1 11.2 13.3 23zM2067.4 520.9c-14.7 18.7-27.8-16.4-44-34.7-16.3-18.3-7.8-35 13.9-32.7 21.6 2.3 21.1-7.4 48.9 0 27.8 7.5 10.3 32.7 10.3 32.7-17.3 1.8-14.4 16-29.1 34.7z"></path></g></g><path id="&lt;Path&gt;" class="s3" d="M2213.9 670.6v964c0 16.9-12.2 30.6-27.2 30.6H795.8c-15 0-27.2-13.7-27.2-30.6v-964c0-16.9 12.2-30.6 27.2-30.6h1390.9c15 0 27.2 13.7 27.2 30.6z"></path><g id="&lt;Group&gt;"><path id="&lt;Path&gt;" class="s4" d="M2213.9 667.2V740H768.6v-72.8c0-15 12.2-27.2 27.2-27.2h1390.9c15 0 27.2 12.2 27.2 27.2z"></path><g id="&lt;Group&gt;"><path id="&lt;Path&gt;" class="s5" d="M812.9 690c0-7 5.6-12.6 12.6-12.6s12.7 5.6 12.7 12.6-5.7 12.7-12.7 12.7c-7 0-12.6-5.7-12.6-12.7zM862.7 690c0-7 5.7-12.6 12.7-12.6 7 0 12.6 5.6 12.6 12.6s-5.6 12.7-12.6 12.7-12.7-5.7-12.7-12.7zM913.9 690c0-7 5.6-12.6 12.6-12.6s12.7 5.6 12.7 12.6-5.7 12.7-12.7 12.7c-7 0-12.6-5.7-12.6-12.7z"></path></g></g><path id="&lt;Path&gt;" class="s6" d="M1698.7 1517.5h-152.4V1365h152.4z"></path><g id="&lt;Group&gt;"><path id="&lt;Path&gt;" class="s4" d="m1557.8 1500.1 45-81.2 33.1 45.1 16.5-18 35.1 54.1zM1624.2 1407.2c0-6.4 5.3-11.6 11.7-11.6 6.4 0 11.6 5.2 11.6 11.6 0 6.5-5.2 11.7-11.6 11.7-6.4 0-11.7-5.2-11.7-11.7z"></path></g><path id="&lt;Path&gt;" class="s6" d="M1926.4 1306.3h-380.1V1086h380.1z"></path><path id="&lt;Path&gt;" class="s4" d="m1779.2 1196.2-85.8 56.4v-112.9z"></path><path id="&lt;Path&gt;" class="s1" d="M2100.3 922c0 24.8-10 47.4-26 63.8s-38 26.6-62.3 26.6H983.5c-52.5 0-95.5-40.7-95.5-90.4 0-24.9 10.8-47.5 28.1-63.8 17.3-16.4 41.1-26.6 67.4-26.6H2012c48.5 0 88.3 40.7 88.3 90.4z"></path><path id="&lt;Path&gt;" class="s7" d="M2100.3 922c0 24.8-10 47.4-26 63.8s-38 26.6-62.3 26.6h-186.1V831.6H2012c48.5 0 88.3 40.7 88.3 90.4z"></path><g id="&lt;Group&gt;"><g id="&lt;Group&gt;"><path id="&lt;Compound Path&gt;" fill-rule="evenodd" class="s0" d="M1982.5 954.9q-3.5 0-6.9-.6c-12.2-1.8-22.9-8.2-30.3-18.1-15.1-20.4-10.8-49.3 9.7-64.4 20.4-15.2 49.3-10.8 64.4 9.6 15.1 20.4 10.8 49.3-9.6 64.4-8 5.9-17.5 9.1-27.3 9.1zm-23-77.1c-17.1 12.7-20.7 36.8-8.1 53.9 6.2 8.2 15.1 13.6 25.3 15.1 10.1 1.5 20.3-1 28.6-7.1 17-12.6 20.6-36.8 8-53.8-12.6-17.1-36.8-20.7-53.8-8.1z"></path></g><path id="&lt;Path&gt;" class="s0" d="m1900.1 974.4-4.5-6.1 50.5-37.4 4.5 6.1z"></path><path id="&lt;Path&gt;" class="s0" d="M1880.3 984.3c-2.2-3-1.6-7.2 1.4-9.4l29.8-22.1c3-2.2 7.2-1.6 9.4 1.4 2.3 3 1.6 7.3-1.4 9.5l-29.7 22c-3 2.3-7.3 1.6-9.5-1.4z"></path></g><g id="&lt;Group&gt;"><g id="&lt;Group&gt;"><path id="&lt;Path&gt;" class="s8" d="M1199.1 791.9q.4-.2.9-.5c4.2-2.6 9.2-2.7 13.6-6.2 8.3-6.6 15.8-49.5 15.8-49.5l25 4.3s-17.2 53.9-18.3 65.6c-1.4 14.5-2.9 19.1 2.8 28.8l2 3.2q.3.6.7 1.2c4.8 8.1 9.2 15.3 7 16.3-2.5 1.3-11.5 1-24.5-12.5-11.4-11.9-9-13.3-15.4-19.1l-.4-.4-.5-.5q-1-.9-2.3-1.9c-6.8-5.5-12.7-11-14.5-15.9-.9-2.7-.7-5.1 1.2-7.4 2-2.2 4.5-3.9 6.9-5.5z"></path><path id="&lt;Path&gt;" class="s9" d="M1199.1 791.9c.5.2.9.2 1.4.3 5.2 7.6 10.3 19.9 17.9 29.5 8.9 11.4 20.6 16.2 23.2 17.1 4.8 8.1 9.2 15.3 7 16.3-2.5 1.3-11.5 1-24.5-12.5-11.4-11.9-9-13.3-15.4-19.1l-.4-.4-.5-.5q-1-.9-2.3-2c-6.6-5.4-12.3-10.9-14.5-15.8-.9-2.7-.7-5.1 1.2-7.4 2-2.2 4.5-3.9 6.9-5.5z"></path><path id="&lt;Path&gt;" class="s8" d="M1393.3 773.7c.3-5 .5-11.4-2.4-16.3-4.8-8.3-17.4-27.4-17.4-27.4l24-1.9s13.4 21.4 22.4 26.6c9.4 5.6 17.1 12.3 27.5 13.6q1.8.3 3.5.5c9.3 1 17.9 1.9 17.4 4.2-.5 2.6-5.8 9.1-23.2 11-17.5 1.9-14.6-1.7-26.8 1.3-12.3 3-23.3 4.3-24.8-3.4-.6-2.7-.4-5.5-.2-8.2z"></path><path id="&lt;Path&gt;" class="s9" d="M1393.5 781.9c-.6-2.7-.4-5.5-.2-8.2 8.2-.1 20.7 3.3 32.6 3 14.5-.3 25-7.8 25-7.8v-.1c9.3 1 17.9 1.9 17.4 4.2-.5 2.6-5.8 9.1-23.2 11-17.5 1.9-14.6-1.7-26.9 1.3-12.2 3-23.2 4.3-24.7-3.4z"></path><path id="&lt;Path&gt;" class="s10" d="m1301.8 628.8-22.4 60.2-29.3 78.6s-7.9.8-15.5-1.4c-7-2-15-7.3-15-7.3s8.1-84.4 23.3-132.9c3.9-12.4 8.2-22.5 13-28.2 23.5-27.7 45.9 31 45.9 31z"></path><path id="&lt;Path&gt;" class="s11" d="M1411.3 741.4s-2.2 3-8.3 5.3c-5.7 2.1-19.5 1.9-19.5 1.9s-89.6-76.8-100.2-99.2c-10.7-22.4-15-43.7-25.6-41.6-6.5 1.3-56.9 32.3-102.1 32.3-17.5 0-72.3-.1-72.3-.1-8.2-.2-13.5-4-15.9-10.3C1051 587.4 1081 521 1081 521l90.8 7.2c5.2 8.6 15.2 13.2 25.2 11.4 36.1-6.5 69.3-10.6 82-6.5 33.1 10.7 132.3 208.3 132.3 208.3z"></path><path id="&lt;Compound Path&gt;" class="s9" d="M1171.3 403.2c-32.4 17.8-97.9 54.6-98.3 54.4 0 0-24.1 9.1-37.7 0-22.8-15.2-35-55.9 6.7-90.9 20.8-17.5 35.5-21.7 37.8-49.6 1.2-15.2 22.1-65.5 56.7-60.4q4.2.6 8.4.5c4-.1 10.6.5 17.3 4.5 19.5 11.6 57.5 134.6 9.1 141.5z"></path><path id="&lt;Path&gt;" class="s8" d="M1144.2 388c.1.1-15.9 5.6-26.6.8-10.1-4.4-17.8-21-17.6-21 4.6-.2 9.6-4.3 13.5-30.6l2 .7 32.8 11.9s-2.4 10.5-3.9 20.5c-1.3 8.5-2 16.5-.2 17.7z"></path><path id="&lt;Path&gt;" d="M1148.3 349.8s-1.3 5.6-3.2 16.3c-18.9-3.4-27-18-29.6-28.2z" style="fill:#ed975d"></path><path id="&lt;Path&gt;" class="s8" d="M1153.2 360.2s-45-6-40.8-34c4.2-27.9 1.3-47.5 30.2-44.8 28.8 2.7 32.8 14.2 33.7 23.8.8 9.7-11.3 55.9-23.1 55z"></path><path id="&lt;Path&gt;" class="s9" d="M1174.6 289.9s-28.8 24.8-48.3 26.8c-19.6 2-27-4.3-27-4.3s11.5-9.6 18.5-25c2-4.6 6.3-7.7 11.3-8.2 14-1.2 40.5-1.7 45.5 10.7z"></path><path id="&lt;Path&gt;" class="s9" d="M1177.3 289.5c8.5 14.2-6.5 43.3-6.5 43.3 2.3-6.3 1.4-22.2-1.5-28.9-3-6.9-12.7-16.2-12.7-16.2s11.7-13.2 20.7 1.8z"></path><path id="&lt;Path&gt;" class="s13" d="M1182 454.3c-1.4 91-.4 72-10.3 80.6-2.4 2.1-9.2 3.3-18.1 3.9-27.9 1.9-76.9-2.8-78.8-7.9-6.4-17.9-1.9-23.4-7.2-50.7q-.9-4.4-2.1-9.5c-4.5-18.8-8.8-25.2 7.1-55.3 14.4-27.3 29.4-49.5 30.7-48.7 38 22.6 41.1 3.6 41.1 3.6s38.3 39.6 37.6 84z"></path><path id="&lt;Path&gt;" class="s11" d="m1279.4 689-29.3 78.6s-7.9.8-15.5-1.4c-7-2-15-7.3-15-7.3s8.1-84.4 23.3-132.9z"></path><path id="&lt;Path&gt;" class="s13" d="M1144.4 370.3s39.1 6.7 43.7 23.5c4.6 16.9 19.7 119.1 19.7 119.1s-11.1 10.8-20.3 1.6c-9.1-9.2-28.8-95.7-28.8-95.7z"></path><path id="&lt;Path&gt;" class="s14" d="M1153.6 538.8c-27.9 1.9-76.9-2.8-78.8-7.9-6.4-17.9-1.9-23.4-7.2-50.7l13.4-37.9s-2.2 42.2 10.2 53.3c12.5 11.1 51 21.4 57.1 30.7 2.9 4.5 4.8 8.9 5.3 12.5z"></path><path id="&lt;Path&gt;" class="s8" d="M1121.7 521.1s27.5-6.2 32-3.7c4.4 2.4 15.2 11.3 16.6 14.4 1.4 3.1-9.9-2.3-13.5-3.3-2.4-.7-8.7 1.5-11.7 2.5-13 4.4-21 2.1-21 2.1z"></path><path id="&lt;Path&gt;" class="s13" d="M1091.4 435.7c0 8.5-38.4 61.1-35.6 64 2.9 2.8 64.5 12.8 68.3 19 3.8 6.1 1.1 18.9 1.1 18.9s-82 11.8-105-4.3c-20.5-14.3 15.3-121.4 33.3-146.5 12.8-17.8 49.8-20.1 49.8-20.1s-11.9 60.4-11.9 69z"></path><path id="&lt;Path&gt;" class="s8" d="m1161.9 527 3.9 7s-1.3.3-3.2-.6c-1.9-.9-7.6-8.4-7.6-8.4zM1153.7 517.4l16.7 8.1s-.7 1.2-2.8 1.1c-2-.1-7.2-2-7.2-2z"></path></g><g id="&lt;Group&gt;"><path id="&lt;Path&gt;" class="s9" d="M1295.3 540.4h-173.6v-3.9l175.2.1z"></path><path id="&lt;Path&gt;" class="s9" d="M1202.8 441.2h132.5l-40 99.2h-132.7z"></path><path id="&lt;Path&gt;" class="s0" d="M1253.7 497.1c-3.5 0-5.5-2.8-4.5-6.3s4.6-6.3 8.1-6.3 5.5 2.8 4.5 6.3-4.6 6.3-8.1 6.3z"></path></g></g><path id="&lt;Path&gt;" class="s7" d="M1171.2 1128.5H931.6c-5 0-9-4.1-9-9.1v-3.8c0-5 4-9 9-9h239.6c5 0 9 4 9 9v3.8c0 5-4 9.1-9 9.1z"></path><g id="&lt;Group&gt;"><path id="&lt;Path&gt;" class="s4" d="M1048.3 1203.6H930.1c-4.2 0-7.5-3.3-7.5-7.4 0-4.2 3.3-7.5 7.5-7.5h118.2c4.1 0 7.4 3.3 7.4 7.5 0 4.1-3.3 7.4-7.4 7.4z"></path><g id="&lt;Group&gt;"><path id="&lt;Path&gt;" class="s4" d="M1138.8 1172.3H929.5c-3.8 0-6.9-3.1-6.9-6.9v-1c0-3.9 3.1-7 6.9-7h209.3c3.8 0 6.9 3.1 6.9 7v1c0 3.8-3.1 6.9-6.9 6.9zM1367.7 1172.3h-195c-3.7 0-6.7-3-6.7-6.7v-1.5c0-3.7 3-6.7 6.7-6.7h195c3.7 0 6.7 3 6.7 6.7v1.5c0 3.7-3 6.7-6.7 6.7zM1195.7 1203.6h-118.2c-4.1 0-7.5-3.3-7.5-7.4 0-4.2 3.4-7.5 7.5-7.5h118.2c4.1 0 7.4 3.3 7.4 7.5 0 4.1-3.3 7.4-7.4 7.4z"></path></g></g><path id="&lt;Path&gt;" class="s7" d="M1462.9 1128.5h-239.6c-4.9 0-9-4.1-9-9.1v-3.8c0-5 4.1-9 9-9h239.6c5 0 9 4 9 9v3.8c0 5-4 9.1-9 9.1zM1171.2 1519.8H931.6c-5 0-9-4-9-9v-3.8c0-5 4-9.1 9-9.1h239.6c5 0 9 4.1 9 9.1v3.8c0 5-4 9-9 9z"></path><g id="&lt;Group&gt;"><path id="&lt;Path&gt;" class="s4" d="M1048.3 1595H930.1c-4.2 0-7.5-3.4-7.5-7.5s3.3-7.5 7.5-7.5h118.2c4.1 0 7.4 3.4 7.4 7.5s-3.3 7.5-7.4 7.5z"></path><g id="&lt;Group&gt;"><path id="&lt;Path&gt;" class="s4" d="M1138.8 1563.7H929.5c-3.8 0-6.9-3.1-6.9-7v-1c0-3.8 3.1-6.9 6.9-6.9h209.3c3.8 0 6.9 3.1 6.9 6.9v1c0 3.9-3.1 7-6.9 7zM1367.7 1563.7h-195c-3.7 0-6.7-3-6.7-6.7v-1.5c0-3.7 3-6.7 6.7-6.7h195c3.7 0 6.7 3 6.7 6.7v1.5c0 3.7-3 6.7-6.7 6.7zM1195.7 1595h-118.2c-4.1 0-7.5-3.4-7.5-7.5s3.4-7.5 7.5-7.5h118.2c4.1 0 7.4 3.4 7.4 7.5s-3.3 7.5-7.4 7.5z"></path></g></g><path id="&lt;Path&gt;" class="s7" d="M1462.9 1519.8h-239.6c-4.9 0-9-4-9-9v-3.8c0-5 4.1-9.1 9-9.1h239.6c5 0 9 4.1 9 9.1v3.8c0 5-4 9-9 9zM1171.2 1324.1H931.6c-5 0-9-4-9-9v-3.8c0-5 4-9 9-9h239.6c5 0 9 4 9 9v3.8c0 5-4 9-9 9z"></path><g id="&lt;Group&gt;"><path id="&lt;Path&gt;" class="s4" d="M1048.3 1399.3H930.1c-4.2 0-7.5-3.4-7.5-7.5s3.3-7.4 7.5-7.4h118.2c4.1 0 7.4 3.3 7.4 7.4 0 4.1-3.3 7.5-7.4 7.5z"></path><g id="&lt;Group&gt;"><path id="&lt;Path&gt;" class="s4" d="M1138.8 1368H929.5c-3.8 0-6.9-3.1-6.9-6.9v-1.1c0-3.8 3.1-6.9 6.9-6.9h209.3c3.8 0 6.9 3.1 6.9 6.9v1.1c0 3.8-3.1 6.9-6.9 6.9zM1367.7 1368h-195c-3.7 0-6.7-3-6.7-6.7v-1.5c0-3.7 3-6.7 6.7-6.7h195c3.7 0 6.7 3 6.7 6.7v1.5c0 3.7-3 6.7-6.7 6.7zM1195.7 1399.3h-118.2c-4.1 0-7.5-3.4-7.5-7.5s3.4-7.4 7.5-7.4h118.2c4.1 0 7.4 3.3 7.4 7.4 0 4.1-3.3 7.5-7.4 7.5z"></path></g></g><path id="&lt;Path&gt;" class="s7" d="M1462.9 1324.1h-239.6c-4.9 0-9-4-9-9v-3.8c0-5 4.1-9 9-9h239.6c5 0 9 4 9 9v3.8c0 5-4 9-9 9z"></path><g id="&lt;Group&gt;"><path id="&lt;Path&gt;" class="s8" d="M790.1 1218.9s2.7-6.1 4.4-9c1.8-2.9 9.3-11.3 10.5-9.4 1.3 1.9 6.4 14.8 3.7 18.4-2.7 3.6.2 9.8-13.3 13.6z"></path><path id="&lt;Path&gt;" class="s14" d="M640.7 1180.5s68.8 57.5 95.6 52.2c21-4.2 53.2-15.3 53.2-15.3l6.5 16.5s-28.9 39.2-59 39.5c-47.1.4-81.9-20.4-81.9-20.4z"></path><path id="&lt;Path&gt;" class="s15" d="M549.7 1782.4c6.9 15.1 26.2 23.2 37.7 25.2 11.5 2 11.7 11.5 11.7 11.5l-39.3.2h-31.6c-6.3-.5-8.3-32.7-8.3-32.7s22.5-20.2 29.8-4.2z"></path><path id="&lt;Path&gt;" class="s11" d="M528.6 1630.6c1.8-10.3 3.9-19.9 6.4-28.1 17.7-58.7 3.8-211.6 3.8-211.6l112.1 49.2h.2l-.1.5c-1 6.2-12.1 71.1-48.6 182.1-13.2 40.1-22.4 72.4-28.9 97.6-12.4 47.9-14.7 69.7-14.7 69.7s-9.4 2.8-19.8 2.8c-9.4 0-21.3-4-21.3-4s-.3-94.4 10.9-158.2z"></path><path id="&lt;Path&gt;" class="s10" d="M535 1602.5c17.7-58.7 3.8-211.6 3.8-211.6l112.1 49.2q.1.3.1.5c-1 6.2-12.1 71.1-48.6 182.1-13.2 40.1-22.4 72.4-28.9 97.6 0 0-41-109.6-38.5-117.8z"></path><path id="&lt;Path&gt;" class="s15" d="M637.3 1782.4c6.9 15.1 26.2 23.2 37.6 25.2 11.5 2 11.8 11.5 11.8 11.5l-39.3.2h-31.6c-6.3-.5-8.3-32.7-8.3-32.7s22.4-20.2 29.8-4.2z"></path><path id="&lt;Path&gt;" class="s11" d="M671.1 1394.5s1.4 99.1-15.7 220.8c-17.2 121.7-11.3 173.3-11.3 173.3s-11.8 3.8-16.6 4.2c-12.1 1-24.5-2.8-24.5-2.8s-24.6-121.8-17.5-182.7c7-60.9-33.6-209-33.6-209z"></path><path id="&lt;Path&gt;" class="s8" d="M597.7 1123.9c-.1-1.3-.9-10.2-1-10.4l11.1 4.9 29.5 13s.8 7.3.8 15.9c-.1 8.7-1.1 18.7-4.7 23.9l-19.9 5.7-21.9-14.4s8.2-15.6 6.1-38.6z"></path><path id="&lt;Path&gt;" class="s13" d="M671.6 1422c-27.3 26.3-130.4 21.9-136.7-7.1-6.4-29 6.9-246.7 53.5-260.4 9.6-2.8 61.2 13.9 61.2 13.9s8.1 21.2 13.5 48.2c1 5.2 4 60.8 6.2 112.9 1.1 24.3 2 47.9 2.4 65.2.5 16.1.5 26.7-.1 27.3z"></path><path id="&lt;Path&gt;" d="m607.8 1118.4 29.5 13s.8 7.3.8 15.9c-11.2-4-32.2-12.9-38.2-23-2.6-4.5 1.3-6 7.9-5.9z" style="fill:#fca56b"></path><path id="&lt;Path&gt;" class="s8" d="M648.4 1129.6s-47.6 14.9-56.3-14.9c-8.8-29.8-20.9-47.9 9.1-58.6 30-10.8 39.3-1.2 44.7 8.1 5.3 9.2 14.7 60.8 2.5 65.4z"></path><path id="&lt;Path&gt;" class="s17" d="M644 1061.3s-3 34.6-10.2 33.1c-7.2-1.5-15.1-4.7-14 5.8 1 10.4-7 28.3-17.3 28.3-22.2-.1-46.2-57-40.2-67.8 17.5-31.1 107-37.4 81.7.6z"></path><path id="&lt;Path&gt;" class="s14" d="m649.6 1168.4-61.2-13.9s5-12.4 9.1-13.7c4.1-1.4 38.9 14.2 39.5 14.5 7.8 3.3 12.6 13.1 12.6 13.1z"></path><g id="&lt;Group&gt;"><path id="&lt;Path&gt;" class="s18" d="m853.7 1323.9-195.1 183.7c-3.9 3.6-8.7 4.7-10.7 2.5l-6.6-6.9c-2.1-2.2-.7-7 3.2-10.6l195.1-183.7c3.8-3.6 8.6-4.7 10.7-2.5l6.6 7c2 2.2.6 6.9-3.2 10.5z"></path><path id="&lt;Path&gt;" class="s4" d="m744.2 1427-85.6 80.6c-3.9 3.6-8.7 4.7-10.7 2.5l-6.6-6.9c-2.1-2.2-.7-7 3.2-10.6l85.6-80.6z"></path><path id="&lt;Compound Path&gt;" fill-rule="evenodd" class="s18" d="M843.8 1105.1c57.8-61.5 154.6-64.4 216.1-6.5q1.2 1.1 2.4 2.3c59.2 58.1 61.3 153.1 4.2 213.8-57.9 61.5-154.7 64.5-216.2 6.6-20.1-18.9-34-42.1-41.5-66.8-15.4-50.7-4-108 35-149.4zm14.8 207.4c35.8 33.7 84.6 45 129.1 34.5 25.9-6.2 50.4-19.7 70-40.6 53.3-56.6 50.6-145.8-6.1-199.1-20.8-19.6-46.1-31.6-72.3-36.2-45.1-7.8-93.1 6.5-126.8 42.3-53.3 56.7-50.6 145.8 6.1 199.1z"></path><g id="&lt;Group&gt;" style="opacity:.5"><path id="&lt;Path&gt;" d="M1057.7 1306.4c-19.6 20.9-44.1 34.4-70 40.6-44.5 10.5-93.3-.8-129.1-34.5-56.7-53.3-59.4-142.4-6.1-199.1 33.7-35.8 81.7-50.1 126.8-42.2 26.2 4.5 51.5 16.5 72.3 36.1 56.7 53.3 59.4 142.5 6.1 199.1z" style="fill:#b3cff9"></path></g></g><path id="&lt;Path&gt;" class="s14" d="M671.7 1394.7c-107.5-76.6-98.5-178.9-98.5-178.9 39.3 22.2 78.3 71.2 96.1 113.7 1.1 24.3 2 47.9 2.4 65.2z"></path><g id="&lt;Group&gt;"><path id="&lt;Path&gt;" class="s8" d="M777.8 1359.8c7.6-1.8 12.7-7.5 13.8-8.5 0 0 3.2.2-.6 7.1-.3.6-1 2.1-1.5 3.1-.2.4.1.9.6 1 4.3.3 8.7-1.4 17.2.3 1.1.3 1.5 3.1 1.4 4.3-.1 2 .1 4.2-2.2 7.3-1.4 1.8-5.2 3.7-13.6 7.1-3.2 1.3-12.4.3-21-2.6l-6.9-3.2 2.1-12.8 1.7.4c2.8.5 6.2-2.8 9-3.5z"></path><path id="&lt;Path&gt;" class="s13" d="M637.1 1192.7c12 19.8 33.2 102.1 40.6 106 16.3 8.6 90.7 62.6 90.7 62.6 5.5 7.5-5.4 16.9-5.4 16.9s-108-29.2-128-51.5c-125.1-139.9-28.5-158.3-28.5-158.3s18.6 4.4 30.6 24.3z"></path></g><path id="&lt;Path&gt;" class="s8" d="M792.7 1220.6s3.2-6.1 3.8-9.3c.6-3.1 4.6-12.4 6.2-14.1.7-.6 2.8.2 3.1 3 .1 1.3-.5 3.5-1.6 6.2-1.7 4.3-1.4 10.1-2 12.1-1.5 4.9-9.5 2.1-9.5 2.1z"></path></g><g id="&lt;Group&gt;"><path id="&lt;Path&gt;" class="s9" d="m2084.2 1036.2-54.6 12.7-27.1 49.2-20.6-112.1z"></path><path id="&lt;Path&gt;" class="s9" d="m2061.5 1084.2-8 6.1-34.9-46.1 8-6.1z"></path></g><g id="&lt;Group&gt;"><g id="&lt;Group&gt;"><g id="&lt;Group&gt;"><path id="&lt;Path&gt;" class="s20" d="M1902.8 1567.9c-1.1 13.4-27 25.1-43 27.6-15.9 2.4-11-4.1-5.5-13.9 5.4-9.7 22.8-14.2 26.8-18.7 4-4.4-4.3-4.4-13.9 0-9.6 4.4-10.8 16.1-26.3 23.6-15.4 7.4-38.7-18.1-38.7-18.1 12.3-.7 29.8-14.1 29.2-18.2-.7-4.1-29.8 7.2-34.8 7.7-5 .6-16.3-5.6-18.2-25.7-1.8-20.1 31.1-25.8 31.1-25.8s32.8 24.2 39.2 22.7c6.3-1.5-24-26.2-24-26.2 11.4-5.5 46.8-2.1 46.8-2.1s11.9 37.9 17.7 34.9c5.8-3-12.3-33.1-12.3-33.1 12.7-.8 28.3 8.6 28.3 8.6 21.3 16.7-1.3 43.3-1.3 43.3l-1.1 13.4z"></path><g id="&lt;Group&gt;"><path id="&lt;Path&gt;" class="s20" d="M1794.6 1532.7s89.5-3.7 109.3 21.8c0 0 4.4 13.1 17.9 24.9l2.1 5.7s-15.5-16.3-21.1-17.2c0 0 8.6-31.8-108.2-35.2z"></path><path id="&lt;Path&gt;" class="s20" d="M1921.8 1579.4s19.3 14.2 20.7 39.6l-3.5.3s-6.2-26.2-17.3-36.5c-11.2-10.2.1-3.4.1-3.4z"></path></g></g><g id="&lt;Group&gt;"><path id="&lt;Path&gt;" class="s21" d="M2023.9 1484.5s-36.2-20.1-19.4-47.6c0 0 13.4-16.9 27.8-21.3 0 0-7.5 40.9.2 41.9 7.7.9 5.1-46.2 5.1-46.2s38-18.4 52.9-17.1c0 0-23.4 40.1-15.7 39.1 7.7-1 34-41.5 34-41.5s39-7.4 45.3 15.7c6.3 23.1-3.7 34.7-9.5 36.2-5.8 1.4-42.9 1.1-41.9 5.9 1 4.8 26.1 12.4 40 8 0 0-15.3 38.1-35.5 36.2-20.2-1.8-26.5-14.3-39-15.2-12.6-1-21.7 2.4-15.4 5.8 6.2 3.3 27.4 1 37.6 9.6 10.1 8.5 18.3 13.8-.5 17.7-18.7 3.9-52.4 1.6-59.2-12.8l-6.8-14.4z"></path><g id="&lt;Group&gt;"><path id="&lt;Path&gt;" class="s20" d="M2030.7 1498.9c-5.8 3.4-16.3 28-16.3 28v-7.3c10-18.8 9.5-35.1 9.5-35.1 11.4-36.7 112.4-69.7 112.4-69.7-128.3 52.4-105.6 84.1-105.6 84.1z"></path><path id="&lt;Path&gt;" class="s20" d="M2016 1523.3c-8.1 16-4.1 47.8-4.1 47.8l-4.1 1c-8.9-28.7 6.6-52.5 6.6-52.5s9.7-12.2 1.6 3.7z"></path></g></g><g id="&lt;Group&gt;"><path id="&lt;Path&gt;" class="s21" d="M1957.6 1475.8c-8.9 19.1-53.3 22.4-78 17.4-24.8-5-14-12-.7-23.4 13.2-11.3 41.2-8.4 49.4-12.9 8.2-4.5-3.8-8.9-20.3-7.6-16.5 1.4-24.7 17.9-51.3 20.5-26.7 2.6-47.1-47.4-47.1-47.4 18.4 5.6 51.3-4.6 52.6-11 1.2-6.3-47.6-5.5-55.2-7.4-7.7-1.9-21-17.1-12.9-47.6 8.2-30.4 59.6-21.1 59.6-21.1s35.1 53.2 45.2 54.4c10.2 1.3-21.1-51.3-21.1-51.3 19.7-2 69.9 22 69.9 22s-3 62.2 7.1 60.9c10.2-1.3-.1-55.2-.1-55.2 19 5.6 36.9 27.8 36.9 27.8 22.3 36.1-25.2 62.9-25.2 62.9l-8.8 19z"></path><g id="&lt;Group&gt;"><path id="&lt;Path&gt;" class="s20" d="M1817.6 1365.9s133.4 42.7 148.8 90.9c0 0-.6 21.5 12.8 46.2v9.6s-14-32.4-21.6-36.8c0 0 29.6-41.9-140-109.9z"></path><path id="&lt;Path&gt;" class="s20" d="M1979.2 1503s20.7 31.2 9.1 69.2l-5.3-1.4s5-41.9-5.8-62.9c-10.9-21 2-4.9 2-4.9z"></path></g></g></g><g id="&lt;Group&gt;"><g id="&lt;Group&gt;"><g id="&lt;Group&gt;"><path id="&lt;Path&gt;" class="s11" d="M2347.4 1821.7h-487.7c-68-77.7-50.1-182.8 40.2-271.4 11.3-11.2 33.1-19.1 56.6-24.6 43.2-10.3 92.3-12.7 92.7-12.9.1 0 25.9-21 41.4-39.7 48.2-58.4 89.2-53.4 89.2-53.4 49.2-9.5 91.1-12.3 122.1 4.9v.1c28.8 16 48.3 49.3 55.6 110.5 1.4 11.6 2.3 24.2 2.8 37.8 1.8 49.7 11.6 93.9 17.4 131.3 8.4 54.2 14.4 95.5-30.3 117.4z"></path></g><path id="&lt;Path&gt;" class="s10" d="M2277.6 1487.1c-29.8 16.2-33.1 69.7-79.8 83.5-46.6 13.8-125.8 12.6-170.8 61.3-43.3 47-91.1-72.6-70.5-106.2 43.2-10.3 92.3-12.7 92.7-12.9.1 0 25.9-21 41.4-39.7 48.2-58.4 89.2-53.4 89.2-53.4 49.2-9.5 91.1-12.3 122.1 4.9v.1c34.3 35.3 5.5 46.1-24.3 62.4z"></path><g id="&lt;Group&gt;"><path id="&lt;Path&gt;" class="s22" d="M1969.4 1700.1s10.1 19.3 17.4 22.8c7.2 3.5 11.5 11.2 6.5 20.9-5 9.6-6.1 27.3-7.6 33.3-1.5 6-27.6 26.4-29.9 25.4-5.9-2.7.2-13.4 3.7-20.7 3.4-7.4.4-23.8 2.2-32.2 1.8-8.5-6.8-31.3-6.8-31.3z"></path><path id="&lt;Path&gt;" class="s9" d="M2088.2 1574.5c-24.1 5.8-99.8-5.5-99.8-5.5s3.9 22.7-2.2 39.1c-6 16.4 1.2 111.4 1.2 111.4-3 10.3-41.7 9.1-41.7 9.1s-31.6-196.1-12.2-216c18.4-19 161.1-10.2 161.1-10.2s17.6 66.3-6.4 72.1z"></path><path id="&lt;Path&gt;" class="s8" d="M2146.9 1422.6c-2.7 16.6-22.6 49.4-26.4 51.2-3.7 1.9-69.8 34.1-69.8 34.1s-16.2-9.5-8.2-8.7c8 .7 45.1-42 55.4-47.2 10.2-5.2 31.3-54.2 31.3-54.3 0 0 20.4 8.3 17.7 24.9z"></path><path id="&lt;Path&gt;" class="s22" d="M1951.4 1751.3s-4.7 21.3-1.4 28.7c3.2 7.3 1.5 16-8.5 20.1-10 4.1-22.3 16.9-27.3 20.6-5 3.6-38.1 2.3-39.2.1-2.8-5.9 8.8-10.1 16.1-13.5 7.4-3.4 15.7-17.8 22.5-23.1 6.8-5.3 15-28.3 15-28.3z"></path><path id="&lt;Compound Path&gt;" class="s17" d="M2159.6 1268.5c9.4-8.2 24.3-8.3 24.3-8.3 32.6-19 51.4 19.3 54.2 32.6 2.7 13.4 4.6 28 23.4 41.6 54.5 39.4-4.9 86.2-4.9 86.2-10.2-39.5-87.5-48.2-84.5-44.6-57.4 29.2-34-88.9-12.5-107.5z"></path><path id="&lt;Path&gt;" d="M2172.2 1569.1c-33.5 25.7-130.7 11.4-133.7 12.1-3 .7-9.8 68.4-27.9 90.4-18.2 21.9-59.2 91.8-59.2 91.8-14.4 8.2-30.2-.6-30.2-.6s53.5-205.9 67.1-221.8c13.7-15.8 168.8-31.6 168.8-31.6s48.6 33.9 15.1 59.7z" style="fill:#2a4e96"></path><path id="&lt;Path&gt;" class="s22" d="M2172.2 1561.8c-21.2 4.4-92.1-36.8-88.6-59.5 2-12.4 41.4-34.6 47.7-43.6 6.4-8.9-.5-32 3.1-45.3-13.2-5.9-14.2-13.3-14.2-13.3s4.6-8.5 14.2-24.5c6.9-11.3 15.5-14.4 25.1-16 46.9-7.6 83.9 9 83.9 9 31 17.4-10.3 180.5-71.2 193.2z"></path><path id="&lt;Path&gt;" class="s17" d="m2179.2 1322.8-3.7-8.8c-13.3-25.7-4.6-36.4 1.7-41.5 7.9-6.5 16.7-8.2 16.7-8.2 30.4-7.3 37.5 22.9 36.8 31.3-.9 11.8-8.2 26.2-8.2 26.2z"></path><g id="&lt;Group&gt;"><path id="&lt;Path&gt;" class="s8" d="M2182.8 1353.1c-.7-8.7-2.1-17.9-2.1-17.9l28.9-8.1 1.7-.4c1.7 22.7 8.9 32.6 9.8 36.4 1.9 8.1-18.3 19.8-27.7 20.3-14.4.8-15.6-10-12.6-13.2 1.3-1.3 2.6-9.8 2-17.1z"></path><path id="&lt;Path&gt;" d="M2209.6 1327.1c-2.9 8.6-10.4 24.2-26.8 26-.7-8.7-2.1-17.9-2.1-17.9z" style="fill:#f4a269"></path><path id="&lt;Path&gt;" class="s8" d="M2155.2 1304c-.2-8.4 2-18.5 26.4-23.6 24.3-5.1 23.7 11.9 30 35.3 6.2 23.4-31.5 32.9-31.5 32.9-9.9 1.8-24.7-36.3-24.9-44.6z"></path><path id="&lt;Path&gt;" class="s17" d="M2207.5 1279.4c7 16.1 11.2 42.5 11.2 42.5s-3.8-9.3-17.8-10.8c-23.9-2.6-36.6-26.7-36.6-26.7 4.3-15.1 43.2-5 43.2-5z"></path><path id="&lt;Path&gt;" class="s17" d="M2168.6 1287.6s-8.2 8.4-10.8 14.4c-3.7 8.8 3.6 27.3 6.7 31.3 0 0-17.6-29.8-11.7-42.7 6.2-13.6 15.8-3 15.8-3z"></path></g><path id="&lt;Path&gt;" class="s8" d="M2053.7 1504.8s-7.5 7.9-8.4 8.4c-5 2.3-11.2.9-14.3 1.7-3 .8-2.5-1.1-.2-2.6 2.2-1.6 7.7-1 5.4-1.5-2.2-.6-14.3-2.9-18.9-1.6-7.2 1.9-13-.4-13.4-1.1-.5-.7 16.5-9 21.4-8.8 4.8.3 18.7-.4 18.7-.4zM2256.2 1383.2s46.8 105.6 33.8 121.2c-12.9 15.4-102.9-3.4-102.9-3.4l2.7-9.8s66.3-4 71-5.3c6.8-2-33.6-76-33.6-76z"></path><path id="&lt;Path&gt;" class="s22" d="M2238.8 1366.8c1.1.1 15.1 4.6 25.1 24.5 9.9 19.5 13.5 29 13.5 29s-43.8 33.9-61.2 21.4c-17.4-12.4 6.5-75.3 22.6-74.9z"></path><path id="&lt;Path&gt;" class="s8" d="M2190.5 1495.2c-5.4.1-11.6-7.3-12.8-9.1-1.1-1.7-11.3-4.2-11.3-5.9 0-1.8 17.6.3 20.6 3s10.6 7.6 10.6 7.6-1.8 4.4-7.1 4.4z"></path><g id="&lt;Group&gt;"><path id="&lt;Path&gt;" class="s25" d="m2177 1506.6-20.2-2.8c-3-.5-6-3-6.8-5.7l-11.1-39.4c-.8-2.6 1-4.5 4.1-4l20.1 2.8c3.1.5 6.1 3 6.9 5.7l11.1 39.4c.8 2.6-1.1 4.5-4.1 4z"></path><path id="&lt;Path&gt;" class="s9" d="m2172.8 1506-20.2-2.8c-3-.5-6-3-6.8-5.7l-11.1-39.4c-.8-2.6 1-4.5 4.1-4l20.1 2.8c3.1.5 6.1 3 6.9 5.7l11.1 39.4c.8 2.6-1.1 4.5-4.1 4z"></path><path id="&lt;Path&gt;" class="s25" d="M2138.1 1459.1c-.3-1.1.5-1.9 1.7-1.7 1.3.2 2.5 1.2 2.9 2.3.3 1.2-.5 1.9-1.7 1.7-1.3-.1-2.6-1.2-2.9-2.3z"></path></g><path id="&lt;Path&gt;" class="s8" d="M2187.1 1501s-13.7.2-17.1-.6c-3.4-.8-12.2-11.6-9.9-14.4 1.5-1.7 9.7 1.4 13.6 1.4 3.8 0 13.9-5.6 20.9 5.9.7 1.3-7.5 7.7-7.5 7.7z"></path></g><path id="&lt;Path&gt;" class="s11" d="M2231.8 1608.5s-77.1 66.2-79 69c-1.9 2.7-126.5-26.4-125.8-45.6.8-19.2 81-87.2 142.5-89.1 61.5-2 76.2-15.8 76.2-15.8z"></path><path id="&lt;Path&gt;" class="s10" d="M2377.7 1704.3c-68.4-85.4-209 31-245.3 27.8-33.5-3.1 65.2-119.8 187.5-137.2 49.5-7 37.6-58.1 37.6-59.7 1.4 11.6 2.3 24.2 2.8 37.8 1.8 49.7 11.6 93.9 17.4 131.3z"></path></g></g></g><path id="&lt;Path&gt;" d="m2556.5 1826.9-2332.7-.8c-1.6 0-2.9-1.3-2.9-2.8v-1.5c0-1.6 1.3-2.8 2.9-2.8l2332.7.8c1.5 0 2.8 1.2 2.8 2.8v1.5c0 1.5-1.3 2.8-2.8 2.8z" style="fill:#2e3552"></path><g id="&lt;Group&gt;"><path id="&lt;Path&gt;" class="s14" d="m1601.9 512.7 33-3.9 5.8-19.2 85.4 66.4-133.2-27.6z"></path><path id="&lt;Path&gt;" class="s22" d="m1508.5 479 109.3 12.3 108.3 64.7zM1663 456.6l63.1 99.4-85.4-66.4z"></path></g><g id="&lt;Group&gt;"><path id="&lt;Path&gt;" class="s14" d="M755.6 903.4 622.4 931l85.4-66.4 5.7 19.2 33.1 3.9z"></path><path id="&lt;Path&gt;" class="s22" d="m622.4 931 108.2-64.7 109.3-12.4zM707.8 864.6 622.4 931l63.1-99.4z"></path></g><g id="&lt;Group&gt;"><path id="&lt;Compound Path&gt;" class="s4" d="m973.9 941.9 3.9-4.6c3.5 3 7.1 4.7 11.6 4.7 4.1 0 6.6-1.8 6.6-4.7 0-2.6-1.5-4-8.3-5.7-7.9-1.8-12.3-4.1-12.3-11 0-6.4 5.3-10.7 12.6-10.7 5.3 0 9.6 1.6 13.3 4.6l-3.4 4.9c-3.3-2.5-6.7-3.8-10-3.8-3.8 0-6 2-6 4.5 0 2.8 1.6 4.1 8.7 5.8 7.8 1.9 11.9 4.7 11.9 10.9 0 6.9-5.5 11-13.2 11-5.6 0-11-2-15.4-5.9z"></path><path id="&lt;Compound Path&gt;" fill-rule="evenodd" class="s4" d="M1007.8 933.4c0-8 5.7-14.5 13.6-14.5 8.9 0 13.3 6.9 13.3 14.9 0 .5 0 1.5-.1 1.8h-20.4c.7 4.6 3.9 7.1 8 7.1 3.1 0 5.3-1.2 7.5-3.3l3.8 3.3c-2.7 3.1-6.3 5.2-11.4 5.2-8.1 0-14.3-5.9-14.3-14.5zm20.6-2c-.4-4.1-2.8-7.3-7-7.3-3.9 0-6.7 3-7.3 7.3zM1058.2 947.3v-3.5c-1.9 2.3-4.8 4-9 4-5.3 0-9.9-3-9.9-8.6 0-6.2 4.8-9.2 11.2-9.2 3.4 0 5.6.5 7.7 1.2v-.5c0-3.9-2.4-6-6.8-6-3.1 0-5.4.7-8 1.8l-1.7-5.1c3-1.4 6-2.4 10.6-2.4 8.2 0 12.2 4.4 12.2 11.8v16.5zm.1-11.7c-1.6-.6-3.8-1.1-6.3-1.1-4 0-6.4 1.6-6.4 4.4 0 2.7 2.4 4.1 5.4 4.1 4.2 0 7.3-2.3 7.3-5.8z"></path><path id="&lt;Compound Path&gt;" class="s4" d="M1072.1 919.5h6.3v6.2c1.8-4.1 5-7 9.9-6.8v6.8h-.4c-5.6 0-9.5 3.6-9.5 11v10.6h-6.3zM1091.4 933.4c0-7.9 6.1-14.5 14.4-14.5 5.2 0 8.5 1.9 11.1 4.8l-4 4.2c-1.9-2-4-3.4-7.2-3.4-4.6 0-8 4-8 8.9 0 5 3.4 9 8.3 9 3 0 5.3-1.5 7.3-3.5l3.8 3.8c-2.7 3-5.9 5.2-11.4 5.2-8.2 0-14.3-6.5-14.3-14.5zM1122.9 908.8h6.4v15c1.8-2.7 4.4-4.9 8.7-4.9 6.3 0 9.9 4.2 9.9 10.7v17.7h-6.4v-15.8c0-4.4-2.1-6.8-5.9-6.8-3.7 0-6.3 2.6-6.3 6.9v15.7h-6.4zM1155.2 940h7v7.3h-7zM1169.3 940h7v7.3h-7zM1183.5 940h7v7.3h-7zM1197.7 940h7v7.3h-7z"></path></g></g></g></svg>