<svg xmlns="http://www.w3.org/2000/svg" xmlns:v="https://vecta.io/nano" width="2166" height="1435"><style><![CDATA[.Bf{fill:#bdd0fb}.Bg{fill:#91b3fa}.Bh{fill:#fff}.Bi{fill:#7d97f4}.Bj{fill-rule:evenodd}]]></style><defs><linearGradient id="A" gradientUnits="userSpaceOnUse"></linearGradient><linearGradient id="B" x1="88.9" y1="7.2" x2="2030.2" y2="7.2" href="#A"><stop stop-color="#dae3fe"></stop><stop offset="1" stop-color="#e9effd"></stop></linearGradient><linearGradient id="C" x1="112.6" y1="751.9" x2="404.6" y2="751.9" href="#A"><stop stop-color="#dae3fe"></stop><stop offset="1" stop-color="#e9effd"></stop></linearGradient><linearGradient id="D" x1="2576.5" y1="490" x2="2473.7" y2="681.7" href="#A"><stop stop-color="#2f569e"></stop></linearGradient><linearGradient id="E" x1="2287.1" y1="957.9" x2="1181.6" y2="2372" href="#A"><stop stop-color="#e2833d"></stop></linearGradient><linearGradient id="F" x1="1913" y1="330.7" x2="1894.6" y2="443.8" href="#A"><stop stop-color="#172c63"></stop></linearGradient><linearGradient id="G" x1="1272.7" y1="947.4" x2="1281.7" y2="1577.4" href="#A"><stop stop-color="#162857"></stop></linearGradient><linearGradient id="H" x1="1781.3" y1="492.5" x2="1718.8" y2="1212.4" href="#A"><stop stop-color="#172c63"></stop></linearGradient><linearGradient id="I" x1="983" y1="-257.2" x2="2386.9" y2="1006.8" href="#A"><stop stop-color="#e2833d"></stop><stop offset="1" stop-color="#e0e7fe"></stop></linearGradient><linearGradient id="J" x1="1370.3" y1="1079.6" x2="1370.3" y2="1264.9" href="#A"><stop stop-color="#1a3372"></stop><stop offset="1" stop-color="#172c63"></stop></linearGradient><linearGradient id="K" x1="670.9" y1="1196" x2="845.2" y2="1196" href="#A"><stop stop-color="#dae3fe"></stop><stop offset="1" stop-color="#e9effd"></stop></linearGradient><linearGradient id="L" x1="1935.4" y1="1116.4" x2="1935.4" y2="811.7" href="#A"><stop stop-color="#162857"></stop></linearGradient><linearGradient id="M" x1="1992.9" y1="1012.6" x2="1963" y2="1424.1" href="#A"><stop stop-color="#162857"></stop></linearGradient><linearGradient id="N" x1="1300.9" y1="1992.3" x2="1284" y2="2093.2" href="#A"><stop stop-color="#28448c"></stop></linearGradient><linearGradient id="O" x1="1540.1" y1="989.3" x2="1488.2" y2="989.3" href="#A"><stop stop-color="#28448c"></stop></linearGradient><linearGradient id="P" x1="1535.2" y1="976.1" x2="1520.2" y2="976.1" href="#A"><stop stop-color="#f99746"></stop></linearGradient><linearGradient id="Q" x1="1440" y1="2118.9" x2="1421.2" y2="2230.6" href="#A"><stop stop-color="#28448c"></stop></linearGradient><linearGradient id="R" x1="1646.5" y1="976.1" x2="1617.6" y2="976.1" href="#A"><stop stop-color="#28448c"></stop></linearGradient><linearGradient id="S" x1="1630.6" y1="962.2" x2="1612.9" y2="962.2" href="#A"><stop stop-color="#f99746"></stop></linearGradient><linearGradient id="T" x1="1513.7" y1="733.9" x2="1643.9" y2="513.2" href="#A"><stop stop-color="#2f569e"></stop></linearGradient><linearGradient id="U" x1="1349.9" y1="660.4" x2="1761" y2="1017.9" href="#A"><stop stop-color="#2f569e"></stop></linearGradient><linearGradient id="V" x1="1577.3" y1="903.2" x2="1568.8" y2="886.1" href="#A"><stop stop-color="#53d8ff"></stop><stop offset="1" stop-color="#3840f7"></stop></linearGradient><linearGradient id="W" x1="1529.4" y1="734.1" x2="1593.4" y2="790.8" href="#A"><stop stop-color="#f99746"></stop></linearGradient><linearGradient id="X" x1="1431.8" y1="607.1" x2="1793.2" y2="921.3" href="#A"><stop stop-color="#2f569e"></stop></linearGradient><linearGradient id="Y" x1="1349.8" y1="663.9" x2="1760.3" y2="1020.9" href="#A"><stop stop-color="#2f569e"></stop></linearGradient><linearGradient id="Z" x1="1428.5" y1="700.3" x2="1378.1" y2="700.3" href="#A"><stop stop-color="#f99746"></stop></linearGradient><linearGradient id="a" x1="1457" y1="583.3" x2="1457.5" y2="675.5" href="#A"><stop stop-color="#f99746"></stop></linearGradient><linearGradient id="b" x1="1429.6" y1="580.3" x2="1463.8" y2="642.3" href="#A"><stop stop-color="#f99746"></stop></linearGradient><linearGradient id="c" x1="1483.8" y1="549" x2="1431.9" y2="541.5" href="#A"><stop stop-color="#28448c"></stop></linearGradient><linearGradient id="d" x1="1508.7" y1="610.5" x2="1484.3" y2="577" href="#A"><stop stop-color="#f99746"></stop></linearGradient><linearGradient id="e" x1="1379.1" y1="701.2" x2="1365.7" y2="701.2" href="#A"><stop stop-color="#ff928e"></stop><stop offset="1" stop-color="#feb3b1"></stop></linearGradient><linearGradient id="f" x1="1170.4" y1="622.6" x2="1671.3" y2="739.6" href="#A"><stop stop-color="#28448c"></stop></linearGradient><linearGradient id="g" x1="1171.6" y1="675.9" x2="1072.2" y2="589.5" href="#A"><stop stop-color="#28448c"></stop></linearGradient><linearGradient id="h" x1="1210.1" y1="469.4" x2="1204.8" y2="551.4" href="#A"><stop stop-color="#ff928e"></stop><stop offset="1" stop-color="#feb3b1"></stop></linearGradient><linearGradient id="i" x1="1515.7" y1="754.1" x2="1571.9" y2="803.9" href="#A"><stop stop-color="#f99746"></stop></linearGradient><linearGradient id="j" x1="579.6" y1="141.6" x2="596.4" y2="587.1" href="#A"><stop stop-color="#dae3fe"></stop><stop offset="1" stop-color="#e9effd"></stop></linearGradient><linearGradient id="k" x1="492" y1="430.9" x2="585.5" y2="430.9" href="#A"><stop stop-color="#dae3fe"></stop><stop offset="1" stop-color="#e9effd"></stop></linearGradient><linearGradient id="l" x1="411.4" y1="122.6" x2="559.6" y2="464" href="#A"><stop stop-color="#2f569e"></stop></linearGradient><linearGradient id="m" x1="409" y1="126" x2="557.2" y2="467.3" href="#A"><stop stop-color="#2f569e"></stop></linearGradient><linearGradient id="n" x1="415.6" y1="115.9" x2="564.1" y2="457.7" href="#A"><stop stop-color="#2f569e"></stop></linearGradient><linearGradient id="o" x1="413.8" y1="119.1" x2="562.1" y2="460.6" href="#A"><stop stop-color="#2f569e"></stop></linearGradient><linearGradient id="p" x1="407" y1="131.1" x2="554.4" y2="470.6" href="#A"><stop stop-color="#2f569e"></stop></linearGradient><linearGradient id="q" x1="243.3" y1="252.8" x2="507.3" y2="498" href="#A"><stop stop-color="#f99746"></stop></linearGradient><linearGradient id="r" x1="248" y1="250.6" x2="512" y2="495.6" href="#A"><stop stop-color="#f9be8c"></stop></linearGradient><linearGradient id="s" x1="233.9" y1="257.6" x2="498" y2="502.7" href="#A"><stop stop-color="#e2833d"></stop></linearGradient><linearGradient id="t" x1="238.5" y1="255.1" x2="502.7" y2="500.4" href="#A"><stop stop-color="#f99746"></stop></linearGradient><linearGradient id="u" x1="252.8" y1="249.6" x2="515.9" y2="493.9" href="#A"><stop stop-color="#f9be8c"></stop></linearGradient><linearGradient id="v" x1="329" y1="607.6" x2="611.3" y2="607.6" href="#A"><stop stop-color="#dae3fe"></stop><stop offset="1" stop-color="#e9effd"></stop></linearGradient><linearGradient id="w" x1="281.3" y1="1324" x2="343.2" y2="1324" href="#A"><stop stop-color="#09005d"></stop><stop offset="1" stop-color="#28448c"></stop></linearGradient><linearGradient id="x" x1="281.6" y1="1343.1" x2="342.5" y2="1343.1" href="#A"><stop stop-color="#28448c"></stop></linearGradient><linearGradient id="y" x1="172.7" y1="1324.5" x2="201.5" y2="1324.5" href="#A"><stop stop-color="#09005d"></stop><stop offset="1" stop-color="#28448c"></stop></linearGradient><linearGradient id="z" x1="172.7" y1="1348.3" x2="200.8" y2="1348.3" href="#A"><stop stop-color="#4042e2"></stop><stop offset="1" stop-color="#28448c"></stop></linearGradient><linearGradient id="AA" x1="185.2" y1="1300.2" x2="203.7" y2="1300.2" href="#A"><stop stop-color="#f9be8c"></stop></linearGradient><linearGradient id="AB" x1="285.1" y1="1303.3" x2="300.2" y2="1303.3" href="#A"><stop stop-color="#f9be8c"></stop></linearGradient><linearGradient id="AC" x1="436.2" y1="1177.2" x2="338.4" y2="1278" href="#A"><stop stop-color="#28448c"></stop></linearGradient><linearGradient id="AD" x1="326" y1="1079.5" x2="262.4" y2="1161.8" href="#A"><stop stop-color="#020039"></stop><stop offset="1" stop-color="#090056"></stop></linearGradient><linearGradient id="AE" x1="440.3" y1="954.6" x2="116.1" y2="1449.5" href="#A"><stop stop-color="#2f569e"></stop></linearGradient><linearGradient id="AF" x1="535.2" y1="715.7" x2="519.2" y2="759" href="#A"><stop stop-color="#f9be8c"></stop></linearGradient><linearGradient id="AG" x1="364.9" y1="867" x2="344.7" y2="940.4" href="#A"><stop stop-color="#f9be8c"></stop></linearGradient><linearGradient id="AH" x1="186.8" y1="965.1" x2="379.4" y2="965.1" href="#A"><stop stop-color="#dae3fe"></stop><stop offset="1" stop-color="#e9effd"></stop></linearGradient><linearGradient id="AI" x1="260.9" y1="978.8" x2="365.5" y2="978.8" href="#A"><stop stop-color="#dae3fe"></stop><stop offset="1" stop-color="#e9effd"></stop></linearGradient><linearGradient id="AJ" x1="301.1" y1="1018.9" x2="325.3" y2="1018.9" href="#A"><stop stop-color="#dae3fe"></stop><stop offset="1" stop-color="#e9effd"></stop></linearGradient><linearGradient id="AK" x1="199.7" y1="977.5" x2="252.7" y2="977.5" href="#A"><stop stop-color="#dae3fe"></stop><stop offset="1" stop-color="#e9effd"></stop></linearGradient><linearGradient id="AL" x1="340" y1="888.9" x2="15.8" y2="1383.8" href="#A"><stop stop-color="#2f569e"></stop><stop offset="1" stop-color="#2f569e"></stop><stop offset="1" stop-color="#4f52ff"></stop></linearGradient><linearGradient id="AM" x1="338.9" y1="1028.6" x2="300.5" y2="1063.2" href="#A"><stop stop-color="#f9be8c"></stop></linearGradient><linearGradient id="AN" x1="334.2" y1="791" x2="370.3" y2="863.9" href="#A"><stop stop-color="#f9be8c"></stop></linearGradient><linearGradient id="AO" x1="349.9" y1="796.5" x2="394.6" y2="854.1" href="#A"><stop stop-color="#28448c"></stop></linearGradient><linearGradient id="AP" x1="310.9" y1="813.6" x2="342.5" y2="877.4" href="#A"><stop stop-color="#f9be8c"></stop></linearGradient><linearGradient id="AQ" x1="538.4" y1="713.1" x2="522.4" y2="756.5" href="#A"><stop stop-color="#f9be8c"></stop></linearGradient><linearGradient id="AR" x1="360.5" y1="659.4" x2="553" y2="659.4" href="#A"><stop stop-color="#dae3fe"></stop><stop offset="1" stop-color="#e9effd"></stop></linearGradient><linearGradient id="AS" x1="518.9" y1="633.1" x2="571.2" y2="633.1" href="#A"><stop stop-color="#dae3fe"></stop><stop offset="1" stop-color="#e9effd"></stop></linearGradient><linearGradient id="AT" x1="1463.5" y1="243.8" x2="1435.8" y2="335.3" href="#A"><stop stop-color="#e2833d"></stop></linearGradient><linearGradient id="AU" x1="1501.1" y1="336.4" x2="1297.8" y2="636.5" href="#A"><stop stop-color="#f9be8c"></stop></linearGradient><linearGradient id="AV" x1="1493" y1="405.4" x2="1295" y2="501.4" href="#A"><stop stop-color="#f99746"></stop></linearGradient><linearGradient id="AW" x1="2093.9" y1="-2" x2="2051.9" y2="134" href="#A"><stop stop-color="#2f569e"></stop></linearGradient><linearGradient id="AX" x1="1981.3" y1="253.1" x2="2007.3" y2="573.1" href="#A"><stop stop-color="#28448c"></stop></linearGradient></defs><path d="M878.5 241.9c146.5 11.7 203-201.1 371-228.6 167.9-27.5 134.1 81.7 211 164.1 76.9 82.3 254.7-79.8 407.7-39.2 152.9 40.7 123.6 183.1 85.5 261.6s-110.4 189.8 16.5 297.4 110.6 172.7 27.7 283.6c-82.8 110.9 60.8 259.3-136.2 317-197.1 57.7-919.6 70.5-1292.6 64.4-373.1-6-462.9-37.9-510.3-139.3-47.3-101.4-27.6-163.7 85.4-220.1 113-56.3 53.9-89.5-25.7-144.6C39 803.1-48.9 612.3 92.4 569.1c130.2-39.8-150-138.2 71.1-397.6 70.9-83.2 153.7-22.6 271-101.1 248.6-166.5 297.6 159.8 444 171.5z" fill="url(#B)"></path><path d="m550.4 1312.8q132.8-401.9-287.7-833.9-152.9 534.3 287.7 833.9z" class="Bf"></path><path d="M522.8 1217.2c-.4 0-.7-.2-.9-.5-74.9-130-134.7-296.2-171.8-412.9C310 677.5 287.2 580.7 287 579.7c-.1-.5.2-1.1.8-1.2.5-.1 1 .2 1.2.7.2 1 22.9 97.8 63 224.1 37.1 116.5 96.9 282.6 171.6 412.4.3.4.1 1-.3 1.3q-.3.2-.5.2z" class="Bh"></path><path d="m84.9 697.9q-79.3 561.6 417.9 600.4-3.3-402.5-417.9-600.4z" class="Bf"></path><path d="M403.7 1211.9q-.4 0-.7-.3C292.7 1100 219.6 981.8 177.7 902.4c-45.4-86.1-65-146.6-65.2-147.2s.1-1.1.7-1.3c.5-.2 1.1.1 1.2.6.2.6 19.8 61 65.1 147 41.9 79.3 114.8 197.2 224.9 308.7.4.4.4 1 0 1.4q-.3.3-.7.3z" fill="url(#C)"></path><path d="M2023.7 300.4Q2103 862 1605.9 900.8q3.3-402.4 417.8-600.4z" class="Bg"></path><path d="M1558.2 915.3Q1425.4 513.4 1846 81.4q152.8 534.4-287.8 833.9z" class="Bf"></path><g class="Bi"><path d="m1613.7 1250.8c-143.9 36.5-421.2 87.2-750.3 47.5 11.6-51.5 1-98.7-9.7-129 160.1-23.9 411.5-34.4 758.1 28.7 28.6 5.2 30 45.7 1.9 52.8z"></path><path d="m863.4 1298.3c-71.5-8.6-145.5-21.5-221-39.7l-1.6-35.8q70.1-32.1 212.9-53.5c10.7 30.3 21.3 77.5 9.7 129z"></path></g><path d="M546.3 1149.7c65.1-14.2 99.6 39.6 102.3 77.7s-6.7 80.6-98.2 85.4q-91.5 4.8-191-80.7c59.7.7 96.9-62.7 186.9-82.4z" class="Bg"></path><path d="M543 1294.7c-19.1 0-40.4-3.7-63.3-11-46.4-14.8-84.3-39.7-84.6-40-.5-.3-.6-.9-.3-1.3.3-.5.9-.6 1.4-.3.3.2 38 25 84.2 39.7 42.4 13.5 101 21.1 138.9-19.8.4-.4 1-.5 1.4-.1s.5 1 .1 1.4c-17.1 18.5-39.7 28.9-67 31q-5.3.4-10.8.4z" class="Bf"></path><path d="M666.6 1224.2c-.4 0-.8-.3-.9-.7-.2-.5.1-1.1.6-1.3.9-.3 96.8-33.1 177.9-39.3.6 0 1 .4 1.1 1 0 .5-.4 1-.9 1-80.9 6.1-176.5 38.9-177.5 39.2q-.1.1-.3.1z" class="Bh"></path><path d="M1594 536.1c115.5-7.5 416.3 14.3 505.3 23.2 20.6 2 36.8 18.5 38.6 39.2 14.5 172.5 8.4 549.1 5.6 682.9-.6 27.9-22.7 50.4-50.5 51.6-133.7 5.6-433.2-1.2-514.9-3.8-16.5-.6-29.7-13.8-30.2-30.4-4.9-155.9 5.3-595.9 8.5-723.4.5-20.9 16.8-38 37.6-39.3z" fill="url(#D)"></path><path d="M1625.6 581.4c94.9-5.2 370.9 12.4 453.3 19.8 19.9 1.8 35.4 18.1 36 38.1 4.3 125.2-12 444.2-17.6 549.2-1.1 20.2-16.9 36.4-37 38-111.7 9-371.5-.8-447.6-5.3-18.5-1.1-33.1-16-33.7-34.6-4.4-126.6 9.4-469.1 13.8-572.1.8-17.8 15-32.1 32.8-33.1z" fill="url(#E)"></path><path d="M1765.3 551c32.9-1.1 82.4 3 98.8 4.5a7.44 7.44 0 0 1 6.6 6l.1.8c1 4.7-2.8 9-7.6 8.7l-97.9-5.3c-4-.2-7-3.4-7-7.3 0-4 3.1-7.2 7-7.4z" fill="url(#F)"></path><g opacity=".4" class="Bh"><path d="M1775.5 818.5l139.6 3.2 10.4 107.6-150-5zm157.5 3.6l128.5 2.9-.9 108.8-117.2-3.9zm-285-24.3l5.7-128.3c.6-14.5 13-25.6 27.5-24.7l357 22.3c13.8.9 24.5 12.3 24.4 26.1l-1 114zm109.8 125.9l-115.3-3.8 4.7-104.3 110.6 2.5zm302.6 27.9l-1.7 211.8c-.1 14.5-12.1 26.1-26.6 25.8l-374.7-9.6c-14.6-.3-25.9-12.5-25.3-27l9.6-214.9z"></path></g><path d="M1232.1 1026.7l43.4 257.7H942.1l28.7-257.7z" fill="url(#G)"></path><path d="M474.4 326.6c205.2-4.6 1004.5 13.8 1185.1 19.6 32.6 1 59.8 25.1 64.8 57.3 23.8 153.1 17.4 482.9 13.4 620-1 35.2-29.6 63.5-64.8 64-205.3 3-959.3-10.5-1174.9-16-48.5-1.3-87.2-41-87.2-89.5V391.7c0-35.4 28.2-64.3 63.6-65.1z" fill="url(#H)"></path><path d="M488.8 348.8l1171.7 23.7c20.1.5 36.1 17 36 37.1l-1.9 555.7c-.1 28.1-23.2 50.8-51.3 50.3l-1144.4-14.1c-28.3-.4-51.1-23.5-51.1-51.9V388.8c0-22.4 18.5-40.5 41-40z" fill="url(#I)"></path><g class="Bh"><path d="M1703.2 1038q0 0 0 0l-1255.4-21.4c-.5 0-1-.4-1-1 0-.5.5-1 1.1-1l1255.3 21.4c.6 0 1 .5 1 1a.94.94 0 0 1-1 1z" opacity=".7"></path><path d="m1087.9 1064.1c-7.7 0-14.1-6.3-14.1-14 0-7.8 6.4-14.1 14.1-14.1 7.8 0 14.1 6.3 14.1 14.1 0 7.7-6.3 14-14.1 14zm0-26.1c-6.6 0-12.1 5.4-12.1 12.1 0 6.6 5.5 12 12.1 12 6.7 0 12.1-5.4 12.1-12 0-6.7-5.4-12.1-12.1-12.1z" opacity=".7" class="Bj"></path></g><g opacity=".7"><path d="M816.9 954.7H555.8c-12.9 0-23.3-10.5-23.3-23.3V590.9c0-12.8 10.4-23.3 23.3-23.3H836c13.4 0 24 11.3 23.3 24.6l-19.1 340.5c-.7 12.3-11 22-23.3 22z" opacity=".5" fill="#f9be8c"></path><g class="Bh"><path d="M816.9 936.9q0 0 0 0h-6a1.94 1.94 0 1 1 0-4h6q0 0 0 0c.6 0 1.1-.3 1.4-.9.5-.9 1.7-1.4 2.7-.9s1.4 1.7.9 2.7c-1 1.9-2.9 3.1-5 3.1zm-16 0h-10a1.94 1.94 0 1 1 0-4h10c1.1 0 2 .9 2 2s-.9 2-2 2zm-20 0h-10a1.94 1.94 0 1 1 0-4h10c1.1 0 2 .9 2 2s-.9 2-2 2zm-20 0h-10a1.94 1.94 0 1 1 0-4h10c1.1 0 2 .9 2 2s-.9 2-2 2zm-20 0h-10a1.94 1.94 0 1 1 0-4h10c1.1 0 2 .9 2 2s-.9 2-2 2zm-20 0h-10a1.94 1.94 0 1 1 0-4h10c1.1 0 2 .9 2 2s-.9 2-2 2zm-20 0h-10a1.94 1.94 0 1 1 0-4h10c1.1 0 2 .9 2 2s-.9 2-2 2zm-20 0h-10a1.94 1.94 0 1 1 0-4h10c1.1 0 2 .9 2 2s-.9 2-2 2zm-20 0h-10a1.94 1.94 0 1 1 0-4h10c1.1 0 2 .9 2 2s-.9 2-2 2zm-20 0h-10a1.94 1.94 0 1 1 0-4h10c1.1 0 2 .9 2 2s-.9 2-2 2zm-20 0h-10a1.94 1.94 0 1 1 0-4h10c1.1 0 2 .9 2 2s-.9 2-2 2zm-20 0h-10a1.94 1.94 0 1 1 0-4h10c1.1 0 2 .9 2 2s-.9 2-2 2zm-20 0h-10a1.94 1.94 0 1 1 0-4h10c1.1 0 2 .9 2 2s-.9 2-2 2zm-20 0h-5.1c-3.1 0-5.6-2.5-5.6-5.5v-4.5c0-1.1.9-2 2-2a1.94 1.94 0 0 1 2 2v4.5c0 .8.7 1.5 1.6 1.5h5.1c1.1 0 2 .9 2 2s-.9 2-2 2zm260-11.9q0 0-.1 0c-1.1-.1-1.9-1-1.9-2.1l.6-10c0-1.1 1-1.9 2.1-1.9 1.1.1 1.9 1 1.9 2.1l-.6 10c0 1.1-.9 1.9-2 1.9zm-268.7-6.1c-1.1 0-2-.9-2-2v-10c0-1.1.9-2 2-2a1.94 1.94 0 0 1 2 2v10a1.94 1.94 0 0 1-2 2zM822 905q0 0-.1 0c-1.1 0-1.9-1-1.9-2.1l.6-10c.1-1.1 1-1.9 2.1-1.9 1.1.1 2 1.1 1.9 2.2l-.6 9.9c0 1.1-.9 1.9-2 1.9zm-269.8-6.1c-1.1 0-2-.9-2-2v-10c0-1.1.9-2 2-2a1.94 1.94 0 0 1 2 2v10a1.94 1.94 0 0 1-2 2zm271-13.8q-.1 0-.1 0c-1.2-.1-2-1.1-1.9-2.2l.5-9.9c.1-1.1 1-2 2.1-1.9a1.95 1.95 0 0 1 1.9 2.1l-.5 10c-.1 1-1 1.9-2 1.9zm-271-6.2c-1.1 0-2-.9-2-2v-10c0-1.1.9-2 2-2a1.94 1.94 0 0 1 2 2v10a1.94 1.94 0 0 1-2 2zm272.1-13.8q-.1 0-.1 0c-1.1-.1-2-1-1.9-2.1l.6-10c0-1.1 1-1.9 2.1-1.9 1.1.1 1.9 1 1.8 2.1l-.5 10c-.1 1.1-1 1.9-2 1.9zm-272.1-6.2c-1.1 0-2-.9-2-2v-10c0-1.1.9-2 2-2a1.94 1.94 0 0 1 2 2v10a1.94 1.94 0 0 1-2 2zm273.2-13.8q0 0-.1 0c-1.1 0-1.9-1-1.9-2.1l.6-10c0-1.1 1-1.9 2.1-1.9 1.1.1 1.9 1 1.9 2.1l-.6 10c-.1 1.1-.9 1.9-2 1.9zm-273.2-6.2c-1.1 0-2-.9-2-2v-10c0-1.1.9-2 2-2a1.94 1.94 0 0 1 2 2v10a1.94 1.94 0 0 1-2 2zm274.3-13.7q0 0-.1-.1c-1.1 0-1.9-1-1.9-2.1l.6-9.9c.1-1.1 1-2 2.1-1.9a1.95 1.95 0 0 1 1.9 2.1l-.6 10c0 1-.9 1.9-2 1.9zm-274.3-6.3c-1.1 0-2-.9-2-2v-10c0-1.1.9-2 2-2a1.94 1.94 0 0 1 2 2v10a1.94 1.94 0 0 1-2 2zm275.5-13.7q-.1 0-.2 0c-1.1-.1-1.9-1-1.8-2.1l.5-10c.1-1.1 1-2 2.1-1.9s2 1 1.9 2.1l-.5 10c-.1 1.1-1 1.9-2 1.9zm-275.5-6.3c-1.1 0-2-.9-2-2v-10c0-1.1.9-2 2-2a1.94 1.94 0 0 1 2 2v10a1.94 1.94 0 0 1-2 2zm276.6-13.7q-.1 0-.1 0c-1.1-.1-2-1-1.9-2.1l.5-10c.1-1.1 1.1-1.9 2.1-1.9 1.2.1 2 1 1.9 2.1l-.5 10c-.1 1.1-1 1.9-2 1.9zm-276.6-6.3c-1.1 0-2-.9-2-2v-10c0-1.1.9-2 2-2a1.94 1.94 0 0 1 2 2v10a1.94 1.94 0 0 1-2 2zm277.7-13.7q-.1 0-.1 0a1.95 1.95 0 0 1-1.9-2.1l.6-10c0-1.1 1-1.9 2.1-1.8 1.1 0 1.9 1 1.9 2.1l-.6 10a1.97 1.97 0 0 1-2 1.8zm-277.7-6.3c-1.1 0-2-.9-2-2v-10c0-1.1.9-2 2-2a1.94 1.94 0 0 1 2 2v10a1.94 1.94 0 0 1-2 2zM831 745.3q0 0-.1 0c-1.1-.1-1.9-1-1.9-2.1l.6-10a1.95 1.95 0 0 1 2.1-1.9c1.1.1 1.9 1 1.9 2.1l-.6 10c0 1.1-.9 1.9-2 1.9zm-278.8-6.4c-1.1 0-2-.9-2-2v-10c0-1.1.9-2 2-2a1.94 1.94 0 0 1 2 2v10a1.94 1.94 0 0 1-2 2zm279.9-13.6q0 0-.1 0c-1.1-.1-1.9-1-1.9-2.1l.6-10c.1-1.1 1-1.9 2.1-1.9 1.1.1 2 1 1.9 2.1l-.6 10c0 1.1-.9 1.9-2 1.9zm-279.9-6.4c-1.1 0-2-.9-2-2v-10c0-1.1.9-2 2-2a1.94 1.94 0 0 1 2 2v10a1.94 1.94 0 0 1-2 2zm281.1-13.6q-.1 0-.1 0a1.95 1.95 0 0 1-1.9-2.1l.5-10c.1-1.1 1-1.9 2.1-1.8a1.95 1.95 0 0 1 1.9 2.1l-.5 10a2.05 2.05 0 0 1-2 1.8zm-281.1-6.4c-1.1 0-2-.9-2-2v-10c0-1.1.9-2 2-2a1.94 1.94 0 0 1 2 2v10a1.94 1.94 0 0 1-2 2zm282.2-13.5q-.1 0-.1 0c-1.1-.1-2-1-1.9-2.1l.6-10a1.95 1.95 0 0 1 2.1-1.9c1.1.1 1.9 1 1.8 2.1l-.5 10c-.1 1-1 1.9-2 1.9zm-282.2-6.5c-1.1 0-2-.9-2-2v-10c0-1.1.9-2 2-2a1.94 1.94 0 0 1 2 2v10a1.94 1.94 0 0 1-2 2zm283.3-13.5q0 0-.1 0c-1.1-.1-1.9-1-1.9-2.1l.6-10c0-1.1 1-1.9 2.1-1.9 1.1.1 1.9 1 1.9 2.1l-.6 10c-.1 1.1-.9 1.9-2 1.9zm-283.3-6.5c-1.1 0-2-.9-2-2v-10c0-1.1.9-2 2-2a1.94 1.94 0 0 1 2 2v10a1.94 1.94 0 0 1-2 2zm284.4-13.5q0 0-.1 0c-1.1 0-1.9-1-1.9-2.1l.6-10c.1-1.1 1-1.9 2.1-1.8a1.95 1.95 0 0 1 1.9 2.1l-.6 9.9c0 1.1-.9 1.9-2 1.9zm-284.4-6.5c-1.1 0-2-.9-2-2v-10c0-1.1.9-2 2-2a1.94 1.94 0 0 1 2 2v10a1.94 1.94 0 0 1-2 2zm285.6-13.4q-.1 0-.2 0c-1.1-.1-1.9-1-1.8-2.1l.5-10c.1-1.1 1-2 2.1-1.9a1.95 1.95 0 0 1 1.9 2.1l-.5 10c-.1 1-1 1.9-2 1.9zm-285.6-6.6c-1.1 0-2-.9-2-2v-10c0-1.1.9-2 2-2a1.94 1.94 0 0 1 2 2v10a1.94 1.94 0 0 1-2 2zm286.7-13.4q-.1 0-.1 0c-1.1-.1-2-1-1.9-2.1l.5-10c.1-1.1 1.1-1.9 2.2-1.9 1.1.1 1.9 1 1.8 2.1l-.5 10c-.1 1.1-1 1.9-2 1.9zm-286.7-6.6c-1.1 0-2-.9-2-2v-6c0-2.1 1.3-4 3.2-5 1-.5 2.2 0 2.7 1 .4 1 0 2.1-1 2.6-.5.3-.9.8-.9 1.4v6a1.94 1.94 0 0 1-2 2zm282-9.5h-10c-1.1 0-2-.9-2-2s.9-2 2-2h10c1.1 0 2 .9 2 2s-.9 2-2 2zm-20 0h-10c-1.1 0-2-.9-2-2s.9-2 2-2h10c1.1 0 2 .9 2 2s-.9 2-2 2zm-20 0h-10c-1.1 0-2-.9-2-2s.9-2 2-2h10c1.1 0 2 .9 2 2s-.9 2-2 2zm-20 0h-10c-1.1 0-2-.9-2-2s.9-2 2-2h10c1.1 0 2 .9 2 2s-.9 2-2 2zm-20 0h-10c-1.1 0-2-.9-2-2s.9-2 2-2h10c1.1 0 2 .9 2 2s-.9 2-2 2zm-20 0h-10c-1.1 0-2-.9-2-2s.9-2 2-2h10c1.1 0 2 .9 2 2s-.9 2-2 2zm-20 0h-10c-1.1 0-2-.9-2-2s.9-2 2-2h10c1.1 0 2 .9 2 2s-.9 2-2 2zm-20 0h-10c-1.1 0-2-.9-2-2s.9-2 2-2h10c1.1 0 2 .9 2 2s-.9 2-2 2zm-20 0h-10c-1.1 0-2-.9-2-2s.9-2 2-2h10c1.1 0 2 .9 2 2s-.9 2-2 2zm-20 0h-10c-1.1 0-2-.9-2-2s.9-2 2-2h10c1.1 0 2 .9 2 2s-.9 2-2 2zm-20 0h-10c-1.1 0-2-.9-2-2s.9-2 2-2h10c1.1 0 2 .9 2 2s-.9 2-2 2zm-20 0h-10c-1.1 0-2-.9-2-2s.9-2 2-2h10c1.1 0 2 .9 2 2s-.9 2-2 2zm-20 0h-10c-1.1 0-2-.9-2-2s.9-2 2-2h10c1.1 0 2 .9 2 2s-.9 2-2 2zm-20 0h-10c-1.1 0-2-.9-2-2s.9-2 2-2h10c1.1 0 2 .9 2 2s-.9 2-2 2z"></path><path d="M1213.8 956.7h-10c-1.1 0-2-.9-2-2s.9-2 2-2h10c3 0 5.8-.6 8.5-1.8 1-.5 2.2 0 2.7 1 .4 1-.1 2.2-1.1 2.7-3.2 1.3-6.6 2.1-10.1 2.1zm-20 0h-10c-1.1 0-2-.9-2-2s.9-2 2-2h10c1.1 0 2 .9 2 2s-.9 2-2 2zm-20 0h-10c-1.1 0-2-.9-2-2s.9-2 2-2h10c1.1 0 2 .9 2 2s-.9 2-2 2zm-20 0h-10c-1.1 0-2-.9-2-2s.9-2 2-2h10c1.1 0 2 .9 2 2s-.9 2-2 2zm-20 0h-10c-1.1 0-2-.9-2-2s.9-2 2-2h10c1.1 0 2 .9 2 2s-.9 2-2 2zm-20 0h-10c-1.1 0-2-.9-2-2s.9-2 2-2h10c1.1 0 2 .9 2 2s-.9 2-2 2zm-20 0h-10c-1.1 0-2-.9-2-2s.9-2 2-2h10c1.1 0 2 .9 2 2s-.9 2-2 2zm-20 0h-10c-1.1 0-2-.9-2-2s.9-2 2-2h10c1.1 0 2 .9 2 2s-.9 2-2 2zm-20 0h-10c-1.1 0-2-.9-2-2s.9-2 2-2h10c1.1 0 2 .9 2 2s-.9 2-2 2zm-20 0h-10c-1.1 0-2-.9-2-2s.9-2 2-2h10c1.1 0 2 .9 2 2s-.9 2-2 2zm-20 0h-10c-1.1 0-2-.9-2-2s.9-2 2-2h10c1.1 0 2 .9 2 2s-.9 2-2 2zm-20 0h-10c-1.1 0-2-.9-2-2s.9-2 2-2h10c1.1 0 2 .9 2 2s-.9 2-2 2zm-20 0h-10c-1.1 0-2-.9-2-2s.9-2 2-2h10c1.1 0 2 .9 2 2s-.9 2-2 2zm-20 0h-10c-1.1 0-2-.9-2-2s.9-2 2-2h10c1.1 0 2 .9 2 2s-.9 2-2 2zm-20 0h-10c-1.1 0-2-.9-2-2s.9-2 2-2h10c1.1 0 2 .9 2 2s-.9 2-2 2zm-20 0h-.5c-3.5 0-6.8-.7-10-2.1-1-.4-1.5-1.6-1.1-2.6.5-1 1.7-1.5 2.7-1.1 2.6 1.2 5.5 1.8 8.4 1.8h.5c1.1 0 2 .9 2 2s-.9 2-2 2zM896 949c-.5 0-1.1-.2-1.5-.7-2.4-2.7-4.2-5.9-5.3-9.3-.4-1.1.2-2.2 1.3-2.5 1-.4 2.2.2 2.5 1.3.9 2.9 2.5 5.6 4.5 7.8.7.9.7 2.1-.1 2.9-.4.3-.9.5-1.4.5zm335.2-.1c-.5 0-1-.2-1.4-.5-.8-.7-.9-2-.1-2.8 2-2.3 3.6-5 4.5-7.9.3-1.1 1.4-1.7 2.5-1.3 1 .3 1.6 1.4 1.3 2.5-1.1 3.4-2.9 6.6-5.3 9.3-.4.5-1 .7-1.5.7zm-341.1-18.4q0 0-.1 0c-1.1-.1-1.9-1-1.9-2.1l.6-10c.1-1.1 1-2 2.1-1.9s2 1 1.9 2.1l-.6 10c0 1.1-.9 1.9-2 1.9zm346.9-.1c-1.1 0-2-.8-2-1.9l-.6-10c-.1-1.1.7-2 1.8-2.1 1.2-.1 2.1.8 2.2 1.9l.6 10c0 1.1-.8 2-1.9 2.1q-.1 0-.1 0zm-345.7-19.9q-.1 0-.2 0c-1.1 0-1.9-1-1.8-2.1l.5-10c.1-1.1 1.1-1.9 2.1-1.9 1.1.1 2 1 1.9 2.1l-.5 10c-.1 1.1-1 1.9-2 1.9zm344.5-.1c-1.1 0-2-.8-2-1.9l-.6-9.9c-.1-1.1.7-2.1 1.8-2.2 1.1 0 2.1.8 2.1 1.9l.7 10c0 1.1-.8 2.1-1.9 2.1q-.1 0-.1 0zm-343.4-19.9q-.1 0-.1 0a1.95 1.95 0 0 1-1.9-2.1l.5-9.9c.1-1.2 1.1-2 2.2-1.9 1.1 0 1.9 1 1.8 2.1l-.5 10a2.05 2.05 0 0 1-2 1.8zm342.1 0c-1 0-1.9-.9-2-1.9l-.6-10c0-1.1.8-2 1.9-2.1a1.95 1.95 0 0 1 2.1 1.9l.6 9.9c.1 1.1-.7 2.1-1.8 2.2q-.1 0-.2 0zm-341-19.9q-.1 0-.1 0c-1.1-.1-2-1-1.9-2.1l.6-10a1.95 1.95 0 0 1 2.1-1.9c1.1.1 1.9 1 1.9 2.1l-.6 10c-.1 1.1-.9 1.9-2 1.9zm339.8-.1c-1 0-1.9-.8-2-1.9l-.6-10c0-1.1.8-2 1.9-2.1s2 .8 2.1 1.9l.6 10c.1 1.1-.8 2-1.9 2.1q0 0-.1 0zm-338.7-19.9q0 0-.1 0c-1.1-.1-1.9-1-1.9-2.1l.6-10c.1-1.1 1-1.9 2.1-1.9 1.1.1 1.9 1 1.9 2.1l-.6 10c0 1.1-.9 1.9-2 1.9zm337.5-.1a2.05 2.05 0 0 1-2-1.8l-.6-10a1.95 1.95 0 0 1 1.9-2.1c1.1-.1 2 .7 2.1 1.8l.6 10a1.95 1.95 0 0 1-1.9 2.1q0 0-.1 0zm-336.4-19.9q0 0-.1 0c-1.1 0-1.9-1-1.9-2.1l.6-10c.1-1.1 1-1.9 2.1-1.8a1.95 1.95 0 0 1 1.9 2.1l-.6 10c0 1-.9 1.8-2 1.8zm335.2 0c-1.1 0-1.9-.8-2-1.9l-.6-10c-.1-1.1.8-2 1.9-2.1s2 .8 2.1 1.9l.6 10c.1 1.1-.8 2-1.9 2.1q-.1 0-.1 0zm-334-19.9q-.1 0-.1 0c-1.1-.1-2-1-1.9-2.1l.5-10c.1-1.1 1-2 2.1-1.9s2 1 1.9 2.1l-.5 10c-.1 1.1-1 1.9-2 1.9zm332.8-.1c-1.1 0-2-.8-2-1.9l-.6-9.9c-.1-1.2.7-2.1 1.8-2.2 1.2 0 2.1.8 2.2 1.9l.6 10c0 1.1-.8 2-1.9 2.1q-.1 0-.1 0zM898 790.7q-.1 0-.1 0c-1.1-.1-2-1-1.9-2.1l.6-10c0-1.1 1-1.9 2.1-1.9 1.1.1 1.9 1 1.8 2.1l-.5 10c-.1 1.1-1 1.9-2 1.9zm330.4-.1c-1 0-1.9-.8-1.9-1.8l-.7-10c0-1.1.8-2.1 1.9-2.1 1.1-.1 2.1.7 2.1 1.8l.6 10c.1 1.1-.7 2.1-1.8 2.1q-.1 0-.2 0zm-329.3-19.9q0 0-.1 0c-1.1 0-1.9-1-1.9-2.1l.6-10c0-1.1 1-1.9 2.1-1.8 1.1 0 1.9 1 1.9 2.1l-.6 9.9c-.1 1.1-.9 1.9-2 1.9zm328.1 0c-1 0-1.9-.8-2-1.9l-.6-10c0-1.1.8-2 1.9-2.1a1.95 1.95 0 0 1 2.1 1.9l.6 10c.1 1.1-.7 2-1.8 2.1q-.1 0-.2 0zm-327-19.9q0 0-.1 0c-1.1-.1-1.9-1-1.9-2.1l.6-10c.1-1.1 1-2 2.1-1.9a1.95 1.95 0 0 1 1.9 2.1l-.6 10c0 1-.9 1.9-2 1.9zm325.8-.1c-1 0-1.9-.8-2-1.9l-.6-9.9c-.1-1.1.8-2.1 1.9-2.2 1.1 0 2 .8 2.1 1.9l.6 10a1.95 1.95 0 0 1-1.9 2.1q0 0-.1 0zm-324.6-19.9q-.1 0-.2 0c-1.1-.1-1.9-1-1.8-2.1l.5-10c.1-1.1 1-1.9 2.1-1.9 1.1.1 2 1 1.9 2.1l-.5 10c-.1 1.1-1 1.9-2 1.9zm323.4 0c-1.1 0-1.9-.9-2-1.9l-.6-10a1.95 1.95 0 0 1 1.9-2.1c1.1-.1 2 .8 2.1 1.9l.6 9.9c.1 1.1-.8 2.1-1.9 2.2q0 0-.1 0zm-322.3-20q-.1 0-.1 0a1.95 1.95 0 0 1-1.9-2.1l.5-10c.1-1.1 1.1-1.9 2.2-1.9 1.1.1 1.9 1.1 1.8 2.2l-.5 9.9c-.1 1.1-1 1.9-2 1.9zm321.1 0c-1.1 0-2-.8-2-1.9l-.6-10c-.1-1.1.7-2 1.8-2.1 1.2-.1 2.1.8 2.2 1.9l.6 10c0 1.1-.8 2-1.9 2.1q-.1 0-.1 0zm-320-19.9q-.1 0-.1 0c-1.1-.1-2-1-1.9-2.2l.6-9.9a1.95 1.95 0 0 1 2.1-1.9c1.1 0 1.9 1 1.9 2.1l-.6 10c-.1 1-.9 1.9-2 1.9zm318.8-.1c-1.1 0-2-.8-2-1.8l-.6-10c-.1-1.1.7-2.1 1.8-2.1 1.2-.1 2.1.7 2.2 1.8l.6 10c0 1.1-.8 2.1-1.9 2.1q-.1 0-.1 0zm-317.7-19.9q0 0-.1 0c-1.1-.1-1.9-1-1.9-2.1l.6-10c0-1.1 1-1.9 2.1-1.9 1.1.1 1.9 1 1.9 2.1l-.6 10c0 1.1-.9 1.9-2 1.9zm316.4 0c-1 0-1.9-.8-2-1.9l-.6-10c0-1.1.8-2 1.9-2.1a1.95 1.95 0 0 1 2.1 1.9l.6 9.9c.1 1.2-.7 2.1-1.8 2.2q-.1 0-.2 0zm-315.3-20q0 0-.1 0c-1.1 0-1.9-1-1.9-2.1l.6-10c.1-1.1 1-1.9 2.1-1.9 1.1.1 2 1.1 1.9 2.2l-.6 9.9c0 1.1-.9 1.9-2 1.9zm314.1 0c-1 0-1.9-.8-2-1.9l-.6-10c0-1.1.8-2 1.9-2.1 1.1 0 2 .8 2.1 1.9l.6 10c.1 1.1-.7 2-1.9 2.1q0 0-.1 0zM907 631q-.1 0-.1 0c-1.1-.1-2-1.1-1.9-2.2l.5-9.9c.1-1.1 1-2 2.1-1.9a1.95 1.95 0 0 1 1.9 2.1l-.5 10c-.1 1-1 1.9-2 1.9zm311.7-.1a2.05 2.05 0 0 1-2-1.8l-.6-10a1.95 1.95 0 0 1 1.9-2.1c1.1-.1 2 .7 2.1 1.8l.6 10a1.95 1.95 0 0 1-1.9 2.1q0 0-.1 0zM908.1 611q-.1 0-.1 0c-1.1-.1-2-1-1.9-2.1l.6-10c0-1.1 1-1.9 2.1-1.9 1.1.1 1.9 1 1.8 2.1l-.5 10c-.1 1.1-1 1.9-2 1.9zm309.4 0c-1.1 0-1.9-.8-2-1.9l-.6-10c-.1-1.1.8-2 1.9-2.1s2 .8 2.1 1.9l.6 10c.1 1.1-.8 2-1.9 2.1q0 0-.1 0zm-1.2-20a1.97 1.97 0 0 1-2-1.8c-.3-3.1-1.2-6-2.7-8.7-.5-1-.2-2.2.8-2.7 1-.6 2.2-.2 2.7.8 1.8 3.1 2.9 6.6 3.2 10.3.1 1.1-.8 2-1.9 2.1q-.1 0-.1 0zm-307.1 0q-.1 0-.1 0c-1.1-.1-2-1-1.9-2.1.3-3.7 1.4-7.2 3.2-10.3.5-1 1.7-1.4 2.7-.8 1 .5 1.3 1.7.8 2.7-1.5 2.7-2.4 5.6-2.7 8.7a1.97 1.97 0 0 1-2 1.8zm297.6-16.9q-.6 0-1.2-.4c-2.5-1.8-5.3-3-8.3-3.6-1.1-.3-1.8-1.3-1.5-2.4a1.95 1.95 0 0 1 2.3-1.6c3.6.8 6.9 2.2 9.9 4.4.9.7 1.1 1.9.4 2.8-.4.5-1 .8-1.6.8zm-288.1 0c-.6 0-1.2-.3-1.6-.8-.7-.9-.5-2.2.4-2.8 3-2.2 6.3-3.6 9.9-4.4a1.95 1.95 0 0 1 2.3 1.6c.3 1.1-.4 2.1-1.5 2.4-3 .6-5.8 1.8-8.3 3.6q-.6.4-1.2.4zm269-4.5h-10c-1.1 0-2-.9-2-2s.9-2 2-2h10c1.1 0 2 .9 2 2s-.9 2-2 2zm-20 0h-10c-1.1 0-2-.9-2-2s.9-2 2-2h10c1.1 0 2 .9 2 2s-.9 2-2 2zm-20 0h-10c-1.1 0-2-.9-2-2s.9-2 2-2h10c1.1 0 2 .9 2 2s-.9 2-2 2zm-20 0h-10c-1.1 0-2-.9-2-2s.9-2 2-2h10c1.1 0 2 .9 2 2s-.9 2-2 2zm-20 0h-10c-1.1 0-2-.9-2-2s.9-2 2-2h10c1.1 0 2 .9 2 2s-.9 2-2 2zm-20 0h-10c-1.1 0-2-.9-2-2s.9-2 2-2h10c1.1 0 2 .9 2 2s-.9 2-2 2zm-20 0h-10c-1.1 0-2-.9-2-2s.9-2 2-2h10c1.1 0 2 .9 2 2s-.9 2-2 2zm-20 0h-10c-1.1 0-2-.9-2-2s.9-2 2-2h10c1.1 0 2 .9 2 2s-.9 2-2 2zm-20 0h-10c-1.1 0-2-.9-2-2s.9-2 2-2h10c1.1 0 2 .9 2 2s-.9 2-2 2zm-20 0h-10c-1.1 0-2-.9-2-2s.9-2 2-2h10c1.1 0 2 .9 2 2s-.9 2-2 2zm-20 0h-10c-1.1 0-2-.9-2-2s.9-2 2-2h10c1.1 0 2 .9 2 2s-.9 2-2 2zm-20 0h-10c-1.1 0-2-.9-2-2s.9-2 2-2h10c1.1 0 2 .9 2 2s-.9 2-2 2zm-20 0h-10c-1.1 0-2-.9-2-2s.9-2 2-2h10c1.1 0 2 .9 2 2s-.9 2-2 2z"></path><path d="M1593.2 956.7h-10c-1.1 0-2-.9-2-2s.9-2 2-2h10c1.1 0 2 .9 2 2s-.9 2-2 2zm-20 0h-10c-1.1 0-2-.9-2-2s.9-2 2-2h10c1.1 0 2 .9 2 2s-.9 2-2 2zm-20 0h-10c-1.1 0-2-.9-2-2s.9-2 2-2h10c1.1 0 2 .9 2 2s-.9 2-2 2zm-20 0h-10c-1.1 0-2-.9-2-2s.9-2 2-2h10c1.1 0 2 .9 2 2s-.9 2-2 2zm-20 0h-10c-1.1 0-2-.9-2-2s.9-2 2-2h10c1.1 0 2 .9 2 2s-.9 2-2 2zm-20 0h-10c-1.1 0-2-.9-2-2s.9-2 2-2h10c1.1 0 2 .9 2 2s-.9 2-2 2zm-20 0h-10c-1.1 0-2-.9-2-2s.9-2 2-2h10c1.1 0 2 .9 2 2s-.9 2-2 2zm-20 0h-10c-1.1 0-2-.9-2-2s.9-2 2-2h10c1.1 0 2 .9 2 2s-.9 2-2 2zm-20 0h-10c-1.1 0-2-.9-2-2s.9-2 2-2h10c1.1 0 2 .9 2 2s-.9 2-2 2zm-20 0h-10c-1.1 0-2-.9-2-2s.9-2 2-2h10c1.1 0 2 .9 2 2s-.9 2-2 2zm-20 0h-10c-1.1 0-2-.9-2-2s.9-2 2-2h10c1.1 0 2 .9 2 2s-.9 2-2 2zm-20 0h-10c-1.1 0-2-.9-2-2s.9-2 2-2h10c1.1 0 2 .9 2 2s-.9 2-2 2zm-20 0h-10c-1.1 0-2-.9-2-2s.9-2 2-2h10c1.1 0 2 .9 2 2s-.9 2-2 2zm-20 0h-10c-1.1 0-2-.9-2-2s.9-2 2-2h10c1.1 0 2 .9 2 2s-.9 2-2 2zm-20 0h-3c-2.5 0-5.1-.4-7.5-1.2-1.1-.3-1.6-1.4-1.3-2.5.3-1 1.4-1.6 2.5-1.3q3.1 1 6.3 1h3c1.1 0 2 .9 2 2s-.9 2-2 2zm284.5-.5c-.9 0-1.7-.6-1.9-1.6-.2-1.1.5-2.1 1.6-2.4 3-.5 5.8-1.8 8.3-3.6.9-.6 2.1-.4 2.8.5.6.9.4 2.1-.5 2.8-3 2.1-6.3 3.6-9.9 4.3q-.2 0-.4 0zm-303-5.5c-.5 0-1-.2-1.4-.5-2.6-2.4-4.8-5.5-6.3-8.8-.4-1 .1-2.1 1.1-2.6 1-.4 2.2 0 2.6 1.1 1.2 2.7 3.1 5.3 5.3 7.3.8.7.9 2 .2 2.8-.4.5-1 .7-1.5.7zm318.8-5.8q-.6 0-1-.3c-1-.6-1.3-1.8-.8-2.7 1.5-2.7 2.4-5.6 2.7-8.7.1-1.1 1.1-1.9 2.2-1.8s1.9 1 1.8 2.1c-.3 3.7-1.4 7.2-3.2 10.3-.4.7-1 1.1-1.7 1.1zm-326.6-12c-1.1 0-2-.8-2-1.9l-.6-9.9c-.1-1.1.7-2.1 1.8-2.2 1.2 0 2.1.8 2.2 1.9l.6 10c0 1.1-.8 2-1.9 2.1q-.1 0-.1 0zm329.6-7.5c-1.1 0-2-.9-2-2v-10c0-1.1.9-2 2-2s2 .9 2 2v10c0 1.1-.9 2-2 2zM1285.7 913c-1.1 0-2-.9-2-1.9l-.6-10c-.1-1.1.7-2.1 1.8-2.1 1.1-.1 2.1.7 2.1 1.9l.7 9.9c0 1.1-.8 2.1-1.9 2.2q-.1 0-.1 0zm330.8-7.6c-1.1 0-2-.9-2-2v-10c0-1.1.9-2 2-2s2 .9 2 2v10c0 1.1-.9 2-2 2zM1284.4 893c-1 0-1.9-.8-2-1.9l-.6-10c0-1.1.8-2 1.9-2.1a1.95 1.95 0 0 1 2.1 1.9l.6 10c.1 1.1-.7 2-1.8 2.1q-.1 0-.2 0zm332.1-7.6c-1.1 0-2-.9-2-2v-10c0-1.1.9-2 2-2s2 .9 2 2v10c0 1.1-.9 2-2 2zM1283.2 873a2.05 2.05 0 0 1-2-1.8l-.6-10c0-1.1.8-2.1 1.9-2.1 1.1-.1 2 .7 2.1 1.8l.6 10a1.95 1.95 0 0 1-1.9 2.1q0 0-.1 0zm333.3-7.6c-1.1 0-2-.9-2-2v-10c0-1.1.9-2 2-2s2 .9 2 2v10c0 1.1-.9 2-2 2zM1282 853.1c-1 0-1.9-.9-2-1.9l-.6-10c-.1-1.1.8-2 1.9-2.1s2 .8 2.1 1.9l.6 9.9c.1 1.1-.8 2.1-1.9 2.2q0 0-.1 0zm334.5-7.7c-1.1 0-2-.9-2-2v-10c0-1.1.9-2 2-2s2 .9 2 2v10c0 1.1-.9 2-2 2zm-335.7-12.3c-1.1 0-1.9-.8-2-1.9l-.6-10c-.1-1.1.8-2 1.9-2.1 1.1 0 2 .8 2.1 1.9l.6 10c.1 1.1-.8 2-1.9 2.1q-.1 0-.1 0zm335.7-7.7c-1.1 0-2-.9-2-2v-10c0-1.1.9-2 2-2s2 .9 2 2v10c0 1.1-.9 2-2 2zm-336.9-12.3c-1.1 0-2-.8-2-1.8l-.6-10c-.1-1.1.7-2.1 1.8-2.1 1.2-.1 2.1.7 2.2 1.8l.6 10c0 1.1-.8 2.1-1.9 2.1q-.1 0-.1 0zm336.9-7.7c-1.1 0-2-.9-2-2v-10c0-1.1.9-2 2-2s2 .9 2 2v10c0 1.1-.9 2-2 2zm-338.1-12.2c-1.1 0-2-.8-2-1.9l-.7-10c0-1.1.8-2 1.9-2.1a1.95 1.95 0 0 1 2.1 1.9l.6 10c.1 1.1-.7 2-1.8 2.1q-.1 0-.1 0zm338.1-7.8c-1.1 0-2-.9-2-2v-10c0-1.1.9-2 2-2s2 .9 2 2v10c0 1.1-.9 2-2 2zm-339.4-12.2c-1 0-1.9-.8-2-1.9l-.6-9.9c0-1.1.8-2.1 1.9-2.2 1.1 0 2.1.8 2.1 1.9l.6 10c.1 1.1-.7 2-1.8 2.1q-.1 0-.2 0zm339.4-7.8c-1.1 0-2-.9-2-2v-10c0-1.1.9-2 2-2s2 .9 2 2v10c0 1.1-.9 2-2 2zm-340.6-12.1c-1 0-1.9-.9-2-1.9l-.6-10a1.95 1.95 0 0 1 1.9-2.1c1.1-.1 2 .7 2.1 1.8l.6 10a1.95 1.95 0 0 1-1.9 2.1q0 .1-.1.1zm340.6-7.9c-1.1 0-2-.9-2-2v-10c0-1.1.9-2 2-2s2 .9 2 2v10c0 1.1-.9 2-2 2zm-341.8-12.1c-1.1 0-1.9-.8-2-1.9l-.6-10c-.1-1.1.8-2 1.9-2.1s2 .8 2.1 1.9l.6 10c.1 1.1-.8 2-1.9 2.1q0 0-.1 0zm341.8-7.9c-1.1 0-2-.9-2-2v-10c0-1.1.9-2 2-2s2 .9 2 2v10c0 1.1-.9 2-2 2zm-343-12.1c-1.1 0-1.9-.8-2-1.9l-.6-9.9c-.1-1.1.7-2.1 1.9-2.2 1.1 0 2 .8 2.1 1.9l.6 10c0 1.1-.8 2.1-1.9 2.1q-.1 0-.1 0zm343-7.9c-1.1 0-2-.9-2-2v-10c0-1.1.9-2 2-2s2 .9 2 2v10c0 1.1-.9 2-2 2zm-344.2-12c-1.1 0-2-.9-2-1.9l-.6-10c-.1-1.1.7-2 1.8-2.1 1.2-.1 2.1.8 2.2 1.9l.6 9.9c0 1.1-.8 2.1-1.9 2.2q-.1 0-.1 0zm344.2-8c-1.1 0-2-.9-2-2v-10c0-1.1.9-2 2-2s2 .9 2 2v10c0 1.1-.9 2-2 2zm-345.5-12c-1 0-1.9-.8-1.9-1.9l-.7-10c0-1.1.8-2 1.9-2.1 1.1 0 2.1.8 2.1 1.9l.6 10c.1 1.1-.7 2-1.8 2.1q-.1 0-.2 0zm345.5-8c-1.1 0-2-.9-2-2v-10c0-1.1.9-2 2-2s2 .9 2 2v10c0 1.1-.9 2-2 2zm-346.7-12a2.05 2.05 0 0 1-2-1.8l-.6-10c0-1.1.8-2.1 1.9-2.1 1.1-.1 2 .7 2.1 1.8l.6 10c.1 1.1-.7 2.1-1.8 2.1q-.1 0-.2 0zm346.7-8c-1.1 0-2-.9-2-2v-10c0-1.1.9-2 2-2s2 .9 2 2v10c0 1.1-.9 2-2 2zm-347.9-11.9c-1 0-1.9-.8-2-1.9l-.6-10c-.1-1.1.8-2 1.9-2.1s2 .8 2.1 1.9l.6 10c.1 1.1-.8 2-1.9 2.1q0 0-.1 0zm347.9-8.1c-1.1 0-2-.9-2-2v-10c0-1.1.9-2 2-2s2 .9 2 2v10c0 1.1-.9 2-2 2zm-349.1-11.9c-1.1 0-1.9-.8-2-1.9l-.6-9.9c-.1-1.2.8-2.1 1.9-2.2 1.1 0 2 .8 2.1 1.9l.6 10c.1 1.1-.8 2-1.9 2.1q0 0-.1 0zm349.1-8.1c-1.1 0-2-.9-2-2v-10c0-1.1.9-2 2-2s2 .9 2 2v10c0 1.1-.9 2-2 2zm-350.3-11.9c-1.1 0-2-.8-2-1.9q0-.3 0-.7c0-3.4.7-6.7 2-9.9.4-1 1.6-1.5 2.6-1 1 .4 1.5 1.6 1.1 2.6a21.24 21.24 0 0 0-1.7 8.3q0 .3 0 .6c0 1.1-.9 2-2 2q0 0 0 0zm349.1-8c-.9 0-1.6-.5-1.9-1.3-1-2.9-2.6-5.6-4.7-7.8-.7-.8-.7-2.1.1-2.9.8-.7 2.1-.7 2.8.1 2.5 2.7 4.4 5.9 5.6 9.3.3 1-.2 2.2-1.3 2.5q-.3.1-.6.1zm-341.5-9.8c-.6 0-1.1-.2-1.5-.6-.7-.9-.7-2.1.1-2.9 2.7-2.4 5.9-4.3 9.4-5.4 1-.3 2.1.3 2.5 1.3.3 1.1-.3 2.2-1.3 2.5-2.9 1-5.6 2.5-7.9 4.6-.4.3-.8.5-1.3.5zm328.2-4.3q-.4 0-.7-.2c-2.6-1-5.3-1.6-8.1-1.6h-.9a1.94 1.94 0 1 1 0-4h.9c3.3 0 6.5.7 9.6 1.9 1 .4 1.5 1.6 1.1 2.6-.3.8-1.1 1.3-1.9 1.3zm-19.7-1.8h-10a1.94 1.94 0 1 1 0-4h10c1.1 0 2 .9 2 2s-.9 2-2 2zm-20 0h-10a1.94 1.94 0 1 1 0-4h10c1.1 0 2 .9 2 2s-.9 2-2 2zm-20 0h-10a1.94 1.94 0 1 1 0-4h10c1.1 0 2 .9 2 2s-.9 2-2 2zm-20 0h-10a1.94 1.94 0 1 1 0-4h10c1.1 0 2 .9 2 2s-.9 2-2 2zm-20 0h-10a1.94 1.94 0 1 1 0-4h10c1.1 0 2 .9 2 2s-.9 2-2 2zm-20 0h-10a1.94 1.94 0 1 1 0-4h10c1.1 0 2 .9 2 2s-.9 2-2 2zm-20 0h-10a1.94 1.94 0 1 1 0-4h10c1.1 0 2 .9 2 2s-.9 2-2 2zm-20 0h-10a1.94 1.94 0 1 1 0-4h10c1.1 0 2 .9 2 2s-.9 2-2 2zm-20 0h-10a1.94 1.94 0 1 1 0-4h10c1.1 0 2 .9 2 2s-.9 2-2 2zm-20 0h-10a1.94 1.94 0 1 1 0-4h10c1.1 0 2 .9 2 2s-.9 2-2 2zm-20 0h-10a1.94 1.94 0 1 1 0-4h10c1.1 0 2 .9 2 2s-.9 2-2 2zm-20 0h-10a1.94 1.94 0 1 1 0-4h10c1.1 0 2 .9 2 2s-.9 2-2 2zm-20 0h-10a1.94 1.94 0 1 1 0-4h10c1.1 0 2 .9 2 2s-.9 2-2 2zm-20 0h-10a1.94 1.94 0 1 1 0-4h10c1.1 0 2 .9 2 2s-.9 2-2 2zm-20 0h-10a1.94 1.94 0 1 1 0-4h10c1.1 0 2 .9 2 2s-.9 2-2 2z"></path></g></g><path d="m910.5 1318.7c-132.5-65.8-234.8-169.3-246.2-385.9q345 115.2 246.2 385.9z" class="Bg"></path><path d="m897.1 1313.3c-93.1 8.6-182.5-13.1-260.5-125.9q223.8-52.5 260.5 125.9z" class="Bf"></path><path d="m1315.7 1331.4c-62.1-134.3-77-279.1 49.8-455q196.8 305.8-49.8 455z" class="Bg"></path><path d="M1347.3 1337.1H859.4c-13.3 0-23.2-9.4-20.7-19.5l6.3-24.8c1.9-7.4 10.1-12.9 19.8-13.2l470.4-14.7c10.1-.3 19.2 5.1 21.4 12.8l11.3 39.5c2.9 10.2-7.1 19.9-20.6 19.9z" fill="url(#J)"></path><path d="M1122 1285.7c-.5 0-1-.4-1-1a1.08 1.08 0 0 1 1-1l20.2-.3c.5 0 1 .4 1 1 0 .5-.4 1-1 1l-20.1.3q-.1 0-.1 0zm-265.2 37.2q-.1 0-.2 0c-.5-.1-.9-.6-.8-1.2l2.9-18c1.5-9.4 9.5-16.3 19-16.4l213.8-3.2c.5.1 1 .5 1 1a.94.94 0 0 1-1 1l-213.8 3.2c-8.5.1-15.7 6.3-17.1 14.7l-2.8 18.1c-.1.4-.5.8-1 .8z" class="Bg"></path><path d="M889.1 1269.3c-.4 0-.8-.2-.9-.7-31.6-89.8-78.4-159.1-112.1-201.4-36.6-45.8-66.1-70.7-66.4-71a.992.992 0 1 1 1.3-1.5c.3.2 29.9 25.2 66.6 71.2 33.8 42.4 80.8 111.9 112.4 202.1.2.5-.1 1.1-.6 1.3q-.1 0-.3 0zm442.9-20q-.1 0-.3-.1c-.5-.1-.8-.7-.6-1.2 46.6-146 33.4-316.9 33.3-318.6-.1-.5.3-1 .9-1.1.5 0 1 .4 1.1.9 0 .5 3.4 43.6 1 104.2-2.2 55.9-10 138.7-34.4 215.2-.1.4-.5.7-1 .7z" class="Bf"></path><path d="M844.3 1282.8c-.3 0-.6-.2-.8-.4-52.7-62.2-170.6-82.2-171.8-82.4-.6-.1-.9-.6-.8-1.2 0-.5.6-.9 1.1-.8.3.1 30.2 5.1 66.3 17.7 33.3 11.8 78.9 32.6 106.7 65.4.4.4.4 1.1-.1 1.4q-.3.3-.6.3z" fill="url(#K)"></path><path d="M2026.4 1067.8c-56.2 49.4-142.6 43-192.9-14.3s-45.4-143.8 10.8-193.1c56.2-49.4 142.6-43 192.9 14.3 50.3 57.2 45.5 143.7-10.8 193.1z" class="Bf"></path><path d="M2036.7 1079.5c-62.6 54.9-158.7 47.8-214.7-15.9-55.9-63.8-50.6-160 12-214.9 62.6-55 158.7-47.9 214.7 15.9 55.9 63.7 50.6 159.9-12 214.9zm-14.9-17c53.4-46.9 58-128.9 10.2-183.3-47.7-54.4-129.7-60.5-183.1-13.6s-58 129-10.2 183.4c47.7 54.3 129.7 60.4 183.1 13.5z" fill="url(#L)" class="Bj"></path><path d="M2075.1 944.1c-.3 0-.5-.2-.5-.4-4.3-26.6-16.1-51.5-34.1-72-38.5-43.8-98.5-60.2-152.9-41.6-9.2 3.2-18.1 7.3-26.5 12.4-.2.1-.5.1-.7-.2-.1-.2 0-.5.2-.7 8.4-5 17.4-9.2 26.7-12.4q0 0 0 0c26.3-9 54.6-10 81.9-2.8 27.9 7.3 52.8 22.8 72.1 44.7 18.1 20.6 29.9 45.6 34.3 72.4 0 .3-.2.6-.4.6q-.1 0-.1 0zm-246.6-74.5q-.2 0-.4-.1c-.2-.2-.2-.5 0-.7 2.4-2.7 4.9-5.4 7.5-7.9.2-.2.5-.2.7 0a.61.61 0 0 1 0 .8c-2.6 2.4-5.1 5.1-7.4 7.7q-.2.2-.4.2z" class="Bg"></path><path d="M1951.2 1105.1L1962 1404c.4 11.1-8.3 20.3-19.3 20.6l-2.1.1c-12.5.4-22.6-10-22-22.4l14.3-297.2z" fill="url(#M)"></path><g class="Bh"><path d="M1940.3 1418.9q-2.4 0-4.8-.9c-6.3-2.3-10.4-8.6-10.2-15.7l.9-36a.47.47 0 0 1 .5-.5c.3 0 .5.3.5.5l-.9 36c-.2 6.7 3.7 12.6 9.6 14.8 5.8 2.1 11.7 0 17.4-6.4.2-.2.5-.2.7-.1.2.2.2.5.1.7-4.5 5.1-9.2 7.6-13.8 7.6zm-13.3-63.2q0 0 0 0a.47.47 0 0 1-.5-.5l.1-4.7c0-.2.3-.4.5-.5.3.1.5.3.5.6l-.1 4.6a.47.47 0 0 1-.5.5z"></path><circle cx="1019.8" cy="612" r="23.1"></circle><circle cx="1028.7" cy="196.1" r="23.1"></circle></g><path d="M1488.2 1009.8c9.2.8 25.1 2.1 37.6 2.6 7.5.3 11.9-.4 14.4-1.4q0 .4-.1.8c0 1.3-1.1 2.4-2.4 2.5-23.7 1.3-42.5.4-49.2 0-1.4-.1-2.2-1.6-1.5-2.8q.5-.9 1.2-1.7z" fill="url(#N)"></path><path d="M1525.8 1012.4c-12.5-.5-28.4-1.8-37.6-2.6q9-11.1 37.6-18.5h8.1c5.5 8 6.3 15.6 6.3 19.7-2.5 1-6.9 1.7-14.4 1.4z" fill="url(#O)"></path><path d="M1535.2 978.1l-.7 15c-.1 1.6-1.3 3-2.9 3.2s-3.8.2-6.1-.5c-1.4-.5-2.4-1.7-2.7-3.1l-2.6-14.6z" fill="url(#P)"></path><path d="M1640 1012.3c4-.6 5.8-2.6 6.5-4.8q.1 0 .1 0c.5 2.4-.8 4.8-3.5 5.9-3.3 1.4-6.9 1.6-9.6 1.5-3-.1-5.8-1.3-7.3-3.3 3 1.5 7.2 1.6 13.8.7z" fill="url(#Q)"></path><path d="M1621.3 978h6.7c10.1-.2 16.5 21.2 18.5 29.5-.7 2.2-2.5 4.2-6.5 4.8-6.6.9-10.8.8-13.8-.7-5.5-7.2-8.2-17.8-9.5-23.9q-1.5-7 4.6-9.7z" fill="url(#R)"></path><path d="M1627.1 964.2l3.7 14.7c.5 1.8-.4 3.6-2.1 4.5-2 1-4.9 2.2-7.6 1.8-1.3-.1-2.3-1-2.7-2.2l-5.5-15.4z" fill="url(#S)"></path><path d="M1631.5 968.4q-4.6 4.1-19.5 4.6-53.9-129.2-75.9-147.6 7.8 48.8 1.2 156.8-8.8 3.9-20.3 0c-.7-79.9-13-149.5-27.5-204.4 36.4-.8 55.7-13.3 62.1-18.3q30.3 48.9 79.9 208.9z" fill="url(#T)"></path><path d="M1542.3 610.9c6.9 34.3 4.4 95.8 2.8 123.9-.4 7.9 5.1 18.8 9.5 26.3.7 1.1.3 2.6-.9 3.2-7.5 3.9-32.7 15.7-62 17.2-1.9.1-3.6-1.2-4.2-3.1q-21.6-81-46.8-132.8 27.8-44.4 101.6-34.7z" fill="url(#U)"></path><path d="M1530.9 821.5c0-.1-6.7-10.9-19.9-17.2-.8-.4-1.2-1.4-.8-2.3s1.5-1.2 2.3-.8c14.1 6.8 21.1 18.1 21.4 18.5.5.8.2 1.9-.6 2.4q-.4.3-.9.3c-.6 0-1.1-.3-1.5-.9z" fill="url(#V)"></path><path d="M1585.5 709.5c-2.2 16-8.7 33.5-21.8 52l-5-4.1q5.8-23.2 2.5-49.7c8.1-1.5 17.6.1 24.3 1.8z" fill="url(#W)"></path><path d="m1534.6 653.3l7.7-42.4q51.4 39.3 43.2 98.6c-6.7-1.7-16.2-3.3-24.3-1.8-2.3-19-9.4-39.7-26.6-54.4z" fill="url(#X)"></path><path d="M1440.7 645.6l19.8 42.8c-3.2 25.8-17.1 36.9-32 41.2-.9-11.7-3.9-21.2-6.7-27.8q19.1-19.7 18.9-56.2z" fill="url(#Y)"></path><path d="m1421.8 701.8c2.8 6.6 5.8 16.1 6.7 27.8q-39.9 15.5-50.4-14.5l7.3-1.3c16.7 1.7 28.3-3.6 36.4-12z" fill="url(#Z)"></path><path d="M1474.8 583.4l19.9 29.7c3.1 4.5 1.6 10.7-3.2 13.2-4.5 2.5-9.7 4.7-13.8 6.3-3.8 1.6-8.1-.6-9.2-4.5l-9.6-35.2z" fill="url(#a)"></path><path d="m1466.4 562.5l2.1 38.7-22.5 5.1q-8.1-39.6-8-40.2 1.4-10.1 28.4-3.6z" fill="url(#b)"></path><path d="M1460 569.1c-2.3-1.4-7.7-4-11.8-1.5-5.5 3.3-16.3 5.8-18.9-.8-2.7-6.5-1.6-17.7 8.5-19.4 5.7-1 8.5 2.1 9.9 4.9.7 1.5 2.6 2.1 4 1.2 1-.6 1.9-.5 2.6-.1 1.2.8 2.7.6 3.6-.4 2.4-2.5 6.7-5.6 12.5-3 5.7 2.6 5.3 7.2 4.2 10.2-.6 1.6.2 3.2 1.8 3.7 7.4 2.4 6 8.3 4.9 10.8-.2.7-.8 1.3-1.5 1.6-2.2.9-7.2 3.3-7.7 7.4-.5 4.4.1 19.9.3 25 .1 1.1-.5 2.1-1.4 2.6-6.6 4-15.5 6.9-19.8 8.1-1.4.4-2.9-.3-3.5-1.7-2.6-6.7-4.4-14.8-5.1-18.4-.3-1.4.5-2.9 1.9-3.3 3.2-1 7.7.2 12.6 1.7 5.5 1.5 6.7-3.9 6.9-5.5q.1-.4 0-.8l-2.7-20.2c-.1-.9-.6-1.7-1.3-2.1z" fill="url(#c)"></path><path d="M1473 591.1q-4.1-11.6.1-14.4c4.3-2.9 10.6-1.4 9.2 7q-1.7 10.5-9.3 7.4z" fill="url(#d)"></path><path d="M1381 720.6c-2 1.5-8.9-1.7-13.1-4-2-1.1-3-3.5-2.3-5.7 1-3.2 2.7-7.3 4.8-7.9 3.4-.8 18.9 11.1 10.6 17.6z" fill="url(#e)"></path><path d="m1733.6 837.6c-0.4 24.6-6.3 41.1-12.4 51.6-6 10.3-18.4 14.8-29.6 10.7l-524.9-191.9 27.8-77.2 525.1 186.8c8.5 3 14.1 11 14 20z" fill="url(#f)"></path><path d="M1032 610.9l72.6 8.9c-.1 9.9-3.4 22.9-14.4 37.7l-60.6-40c-3.2-2.1-1.4-7.1 2.4-6.6z" fill="url(#g)"></path><path d="m1194.5 630.8q3.3 48.4-27.8 77.2l-76.5-50.5c11-14.8 14.3-27.8 14.4-37.7z" fill="url(#h)"></path><path d="M1712.6 841.1l-502.4-177.5c-.8-.3-1.2-1.2-1-2 .3-.8 1.2-1.2 2-.9l502.4 177.5c.8.3 1.2 1.2.9 2-.2.6-.8 1-1.4 1q-.3 0-.5-.1zm-8.7 30.3l-502.4-177.5c-.8-.3-1.2-1.2-.9-2s1.1-1.2 1.9-1l502.4 177.6c.8.3 1.3 1.2 1 2-.2.6-.8 1-1.5 1q-.2 0-.5-.1z" class="Bi"></path><path d="M1565.3 759.1q-.1 8.7-10.3 4.1-10.2.4-17.7 2.3-7.4 1.9-9.8-1.4l10.1-9.2 23.2 1.8z" fill="url(#i)"></path><path d="M1013.3 617.8h-10c-1.1 0-2-.9-2-2s.9-2 2-2h10c1.1 0 2 .9 2 2s-.9 2-2 2zm-20 0h-10c-1.1 0-2-.9-2-2s.9-2 2-2h10c1.1 0 2 .9 2 2s-.9 2-2 2zm-20 0h-10c-1.1 0-2-.9-2-2s.9-2 2-2h10c1.1 0 2 .9 2 2s-.9 2-2 2zm-20 0h-10c-1.1 0-2-.9-2-2s.9-2 2-2h10c1.1 0 2 .9 2 2s-.9 2-2 2zm-20 0h-10c-1.1 0-2-.9-2-2s.9-2 2-2h10c1.1 0 2 .9 2 2s-.9 2-2 2zm-20 0h-10c-1.1 0-2-.9-2-2s.9-2 2-2h10c1.1 0 2 .9 2 2s-.9 2-2 2zm-20 0h-10c-1.1 0-2-.9-2-2s.9-2 2-2h10c1.1 0 2 .9 2 2s-.9 2-2 2zm-20 0h-10c-1.1 0-2-.9-2-2s.9-2 2-2h10c1.1 0 2 .9 2 2s-.9 2-2 2zm-20 0h-10c-1.1 0-2-.9-2-2s.9-2 2-2h10c1.1 0 2 .9 2 2s-.9 2-2 2zm-20 0h-10c-1.1 0-2-.9-2-2s.9-2 2-2h10c1.1 0 2 .9 2 2s-.9 2-2 2zm-20 0h-10c-1.1 0-2-.9-2-2s.9-2 2-2h10c1.1 0 2 .9 2 2s-.9 2-2 2zm-20 0h-10c-1.1 0-2-.9-2-2s.9-2 2-2h10c1.1 0 2 .9 2 2s-.9 2-2 2zm-20 0h-10c-1.1 0-2-.9-2-2s.9-2 2-2h10c1.1 0 2 .9 2 2s-.9 2-2 2zm-20 0h-10c-1.1 0-2-.9-2-2s.9-2 2-2h10c1.1 0 2 .9 2 2s-.9 2-2 2zm-20 0h-10c-1.1 0-2-.9-2-2s.9-2 2-2h10c1.1 0 2 .9 2 2s-.9 2-2 2zm-20 0h-10c-1.1 0-2-.9-2-2s.9-2 2-2h10c1.1 0 2 .9 2 2s-.9 2-2 2zm-20 0h-10c-1.1 0-2-.9-2-2s.9-2 2-2h10c1.1 0 2 .9 2 2s-.9 2-2 2zm-20 0h-10c-1.1 0-2-.9-2-2s.9-2 2-2h10c1.1 0 2 .9 2 2s-.9 2-2 2zm-20 0h-10c-1.1 0-2-.9-2-2s.9-2 2-2h10c1.1 0 2 .9 2 2s-.9 2-2 2zm-20 0h-10c-1.1 0-2-.9-2-2s.9-2 2-2h10c1.1 0 2 .9 2 2s-.9 2-2 2zm-20 0h-10c-1.1 0-2-.9-2-2s.9-2 2-2h10c1.1 0 2 .9 2 2s-.9 2-2 2zm406.6-3.5q0 0 0 0c-1.1 0-2-.9-2-2l.2-10c0-1.1.9-2 2-2q0 0 0 0c1.1 0 2 1 2 2.1l-.2 10c0 1.1-.9 1.9-2 1.9zm.4-20q0 0 0 0a1.94 1.94 0 0 1-2-2l.2-10c0-1.1.9-2 2-2q0 0 0 0c1.1 0 2 1 2 2.1l-.2 10c0 1.1-.9 1.9-2 1.9zm.4-20q0 0-.1 0c-1.1 0-1.9-.9-1.9-2l.2-10c0-1.1.9-2 2-2 1.1.1 2 1 2 2.1l-.2 10c0 1.1-.9 1.9-2 1.9zm.4-20q-.1 0-.1 0c-1.1 0-2-.9-1.9-2l.1-10c.1-1.1 1-2 2.1-2 1.1.1 2 1 1.9 2.1l-.1 10c-.1 1.1-1 1.9-2 1.9zm.3-20q0 0 0 0c-1.1 0-2-.9-2-2l.2-10c.1-1.1.9-2 2-2q.1 0 .1 0c1.1.1 2 1 1.9 2.1l-.2 10c0 1.1-.9 1.9-2 1.9zm849.5-7.1c-1.1 0-2-.9-2-2v-10c-.1-1.1.8-2 1.9-2q0 0 .1 0c1.1 0 1.9.9 2 2v10a1.94 1.94 0 0 1-2 2q0 0 0 0zm-849.1-12.9q0 0 0 0c-1.1 0-2-.9-2-2l.2-10c0-1.1 1-2 2.1-2 1.1.1 1.9 1 1.9 2.1l-.2 10c0 1.1-.9 1.9-2 1.9zm849-7.1c-1.1 0-2-.9-2-2l-.1-10c0-1.1.9-2 2-2a1.94 1.94 0 0 1 2 2l.1 10c0 1.1-.9 2-2 2q0 0 0 0zm-848.6-12.9q0 0 0 0c-1.1 0-2-.9-2-2l.2-10c0-1.1.9-2 2-2q0 0 0 0c1.1.1 2 1 2 2.1l-.2 10c0 1.1-.9 1.9-2 1.9zm848.4-7.1c-1.1 0-2-.9-2-2v-10c-.1-1.1.8-2 1.9-2h.1c1.1 0 1.9.9 2 2v10c0 1.1-.9 2-2 2zm-848-12.9q0 0 0 0c-1.1 0-2-.9-2-2l.2-10c0-1.1.9-2 2-2q0 0 0 0c1.1.1 2 1 2 2.1l-.2 10c0 1.1-.9 1.9-2 1.9zm847.9-7.1c-1.1 0-2-.9-2-2l-.1-10c0-1.1.9-2 2-2s2 .9 2 2l.1 10c0 1.1-.9 2-2 2zM1023 454.4q0 0 0 0c-1.1-.1-2-1-2-2.1l.2-10c0-1.1.9-1.9 2-1.9q0 0 0 0c1.1 0 2 .9 2 2l-.2 10c0 1.1-.9 2-2 2zm847.4-7.2c-1.1 0-2-.9-2-2l-.1-10c0-1.1.9-2 2-2a1.94 1.94 0 0 1 2 2l.1 10c0 1.1-.9 2-2 2zm-847-12.8q0 0 0 0c-1.1-.1-2-1-2-2.1l.2-10c0-1.1 1-2 2-1.9 1.1 0 2 .9 2 2l-.2 10c0 1.1-.9 2-2 2zm846.8-7.2c-1.1 0-2-.9-2-2l-.1-10c0-1.1.9-2 2-2s2 .9 2 2l.1 10c0 1.1-.9 2-2 2zm-846.4-12.8q0 0 0 0c-1.1-.1-2-1-2-2.1l.2-10c0-1.1 1-2 2-1.9 1.1 0 2 .9 2 2l-.2 10c0 1.1-.9 2-2 2zm846.3-7.2c-1.1 0-2-.9-2-2l-.1-10c0-1.1.9-2 2-2s2 .9 2 2l.1 10c0 1.1-.9 2-2 2zm-845.9-12.8q0 0 0 0c-1.1-.1-2-1-2-2.1l.2-10c0-1.1.9-1.9 2-1.9q0 0 0 0c1.1 0 2 .9 2 2l-.2 10c0 1.1-.9 2-2 2zm845.7-7.2c-1 0-1.9-.9-2-2v-10c0-1.1.9-2 2-2s2 .9 2 2v10c.1 1.1-.8 2-1.9 2zm-845.4-12.8q0 0 0 0c-1.1-.1-2-1-2-2.1l.2-10c0-1.1.9-1.9 2-1.9q0 0 0 0c1.1 0 2 .9 2 2l-.2 10c0 1.1-.9 2-2 2zm845.2-7.2c-1.1 0-2-.9-2-2l-.1-10c0-1.1.9-2 2-2q0 0 0 0c1.1 0 2 .9 2 2l.1 10c0 1.1-.9 2-2 2q0 0 0 0zm-844.8-12.8q0 0-.1 0c-1.1-.1-1.9-1-1.9-2.1l.2-10c0-1.1.9-1.9 2-1.9s2 .9 2 2l-.2 10c0 1.1-.9 2-2 2zm844.7-7.2c-1.1 0-2-.9-2-2l-.1-10c0-1.1.9-2 2-2q0 0 0 0c1.1 0 2 .9 2 2l.1 10c0 1.1-.9 2-2 2q0 0 0 0zm-844.3-12.8q-.1 0-.1 0a1.95 1.95 0 0 1-1.9-2.1l.2-10c0-1.1.9-1.9 2-1.9q0 0 0 0c1.1 0 2 .9 2 2l-.2 10c-.1 1.1-.9 2-2 2zm844.1-7.2c-1.1 0-2-.9-2-2l-.1-10c0-1.1.9-2 2-2 1.2-.1 2 .9 2 2l.1 10c0 1.1-.9 2-2 2q0 0 0 0zm-843.7-12.8q-.1 0-.1 0a1.95 1.95 0 0 1-1.9-2.1l.1-10c.1-1.1 1-1.9 2-1.9q.1 0 .1 0c1.1 0 2 .9 1.9 2l-.1 10c-.1 1.1-1 2-2 2zm843.6-7.2c-1.1 0-2-.9-2-2l-.1-10c0-1.1.9-2 2-2q0 0 0 0c1.1 0 2 .9 2 2l.1 10c0 1.1-.9 2-2 2q0 0 0 0zM1026 294.4q0 0 0 0c-1.1 0-2-1-2-2.1l.2-10c0-1 .9-1.9 2-1.9q0 0 .1 0c1.1 0 1.9.9 1.9 2l-.2 10c0 1.1-.9 2-2 2zm843.1-7.2c-1.1 0-2-.9-2-2l-.1-10c0-1.1.9-2 2-2q0 0 0 0c1.1 0 2 .9 2 2l.1 10c0 1.1-.9 2-2 2q0 0 0 0zm-842.7-12.8q0 0 0 0c-1.1 0-2-.9-2-2.1l.2-10c0-1 .9-1.9 2-1.9q0 0 0 0a1.94 1.94 0 0 1 2 2l-.2 10c0 1.1-.9 2-2 2zm842.6-7.2c-1.1 0-2-.9-2-2l-.1-10c0-1.1.9-2 2-2q0 0 0 0c1.1 0 2 .9 2 2l.1 10c0 1.1-.9 2-2 2q0 0 0 0zm-842.2-12.8q0 0 0 0c-1.1 0-2-.9-2-2.1l.2-9.9c0-1.1.9-2 2-2q0 0 0 0c1.1 0 2 .9 2 2l-.2 10c0 1.1-.9 2-2 2zm842-7.2c-1.1 0-2-.9-2-2l-.1-10c0-1.1.9-2 2-2s2 .9 2 2l.1 10c0 1.1-.9 2-2 2zm-841.6-12.8q0 0 0 0c-1.1 0-2-.9-2-2l.2-10c0-1.1 1-2 2-2 1.1 0 2 .9 2 2l-.2 10c0 1.1-.9 2-2 2zm841.5-7.2c-1.1 0-2-.9-2-2l-.1-10c0-1.1.9-2 2-2s2 .9 2 2l.1 10c0 1.1-.9 2-2 2zm-841.1-12.8q0 0 0 0c-1.1 0-2-.9-2-2l.2-10c0-1.1.9-2 2-2q0 0 0 0c1.1 0 2 .9 2 2l-.2 10c0 1.1-.9 2-2 2zm840.9-7.2c-1.1 0-2-.9-2-2v-10c0-1.1.8-2 1.9-2h.1c1.1 0 2 .9 2 2v10c0 1.1-.8 2-1.9 2zm-9-11.2h-10c-1.1 0-2-.9-2-2s.9-2 2-2h10c1.1 0 2 .9 2 2s-.9 2-2 2zm-20 0h-10c-1.1 0-2-.9-2-2s.9-2 2-2h10c1.1 0 2 .9 2 2s-.9 2-2 2zm-20 0h-10c-1.1 0-2-.9-2-2s.9-2 2-2h10c1.1 0 2 .9 2 2s-.9 2-2 2zm-20 0h-10c-1.1 0-2-.9-2-2s.9-2 2-2h10c1.1 0 2 .9 2 2s-.9 2-2 2zm-20 0h-10c-1.1 0-2-.9-2-2s.9-2 2-2h10c1.1 0 2 .9 2 2s-.9 2-2 2zm-20 0h-10c-1.1 0-2-.9-2-2s.9-2 2-2h10c1.1 0 2 .9 2 2s-.9 2-2 2zm-20 0h-10c-1.1 0-2-.9-2-2s.9-2 2-2h10c1.1 0 2 .9 2 2s-.9 2-2 2zm-20 0h-10c-1.1 0-2-.9-2-2s.9-2 2-2h10c1.1 0 2 .9 2 2s-.9 2-2 2zm-20 0h-10c-1.1 0-2-.9-2-2s.9-2 2-2h10c1.1 0 2 .9 2 2s-.9 2-2 2zm-20 0h-10c-1.1 0-2-.9-2-2s.9-2 2-2h10c1.1 0 2 .9 2 2s-.9 2-2 2zm-20 0h-10c-1.1 0-2-.9-2-2s.9-2 2-2h10c1.1 0 2 .9 2 2s-.9 2-2 2zm-20 0h-10c-1.1 0-2-.9-2-2s.9-2 2-2h10c1.1 0 2 .9 2 2s-.9 2-2 2zm-20 0h-10c-1.1 0-2-.9-2-2s.9-2 2-2h10c1.1 0 2 .9 2 2s-.9 2-2 2zm-20 0h-10c-1.1 0-2-.9-2-2s.9-2 2-2h10c1.1 0 2 .9 2 2s-.9 2-2 2zm-20 0h-10c-1.1 0-2-.9-2-2s.9-2 2-2h10c1.1 0 2 .9 2 2s-.9 2-2 2zm-20 0h-10c-1.1 0-2-.9-2-2s.9-2 2-2h10c1.1 0 2 .9 2 2s-.9 2-2 2zm-20 0h-10c-1.1 0-2-.9-2-2s.9-2 2-2h10c1.1 0 2 .9 2 2s-.9 2-2 2zm-20 0h-10c-1.1 0-2-.9-2-2s.9-2 2-2h10c1.1 0 2 .9 2 2s-.9 2-2 2zm-20 0h-10c-1.1 0-2-.9-2-2s.9-2 2-2h10c1.1 0 2 .9 2 2s-.9 2-2 2zm-20 0h-10c-1.1 0-2-.9-2-2s.9-2 2-2h10c1.1 0 2 .9 2 2s-.9 2-2 2zm-20 0h-10c-1.1 0-2-.9-2-2s.9-2 2-2h10c1.1 0 2 .9 2 2s-.9 2-2 2zm-20 0h-10c-1.1 0-2-.9-2-2s.9-2 2-2h10c1.1 0 2 .9 2 2s-.9 2-2 2zm-20 0h-10c-1.1 0-2-.9-2-2s.9-2 2-2h10c1.1 0 2 .9 2 2s-.9 2-2 2zm-20 0h-10c-1.1 0-2-.9-2-2s.9-2 2-2h10c1.1 0 2 .9 2 2s-.9 2-2 2zm-20 0h-10c-1.1 0-2-.9-2-2s.9-2 2-2h10c1.1 0 2 .9 2 2s-.9 2-2 2zm-20 0h-10c-1.1 0-2-.9-2-2s.9-2 2-2h10c1.1 0 2 .9 2 2s-.9 2-2 2zm-20 0h-10c-1.1 0-2-.9-2-2s.9-2 2-2h10c1.1 0 2 .9 2 2s-.9 2-2 2zm-20 0h-10c-1.1 0-2-.9-2-2s.9-2 2-2h10c1.1 0 2 .9 2 2s-.9 2-2 2zm-20 0h-10c-1.1 0-2-.9-2-2s.9-2 2-2h10c1.1 0 2 .9 2 2s-.9 2-2 2zm-20 0h-10c-1.1 0-2-.9-2-2s.9-2 2-2h10c1.1 0 2 .9 2 2s-.9 2-2 2zm-20 0h-10c-1.1 0-2-.9-2-2s.9-2 2-2h10c1.1 0 2 .9 2 2s-.9 2-2 2zm-20 0h-10c-1.1 0-2-.9-2-2s.9-2 2-2h10c1.1 0 2 .9 2 2s-.9 2-2 2zm-20 0h-10c-1.1 0-2-.9-2-2s.9-2 2-2h10c1.1 0 2 .9 2 2s-.9 2-2 2zm-20 0h-10c-1.1 0-2-.9-2-2s.9-2 2-2h10c1.1 0 2 .9 2 2s-.9 2-2 2zm-20 0h-10c-1.1 0-2-.9-2-2s.9-2 2-2h10c1.1 0 2 .9 2 2s-.9 2-2 2zm-20 0h-10c-1.1 0-2-.9-2-2s.9-2 2-2h10c1.1 0 2 .9 2 2s-.9 2-2 2zm-20 0h-10c-1.1 0-2-.9-2-2s.9-2 2-2h10c1.1 0 2 .9 2 2s-.9 2-2 2zm-20 0h-10c-1.1 0-2-.9-2-2s.9-2 2-2h10c1.1 0 2 .9 2 2s-.9 2-2 2zm-20 0h-10c-1.1 0-2-.9-2-2s.9-2 2-2h10c1.1 0 2 .9 2 2s-.9 2-2 2zm-20 0h-10c-1.1 0-2-.9-2-2s.9-2 2-2h10c1.1 0 2 .9 2 2s-.9 2-2 2zm-20 0h-10c-1.1 0-2-.9-2-2s.9-2 2-2h10c1.1 0 2 .9 2 2s-.9 2-2 2zm-20 0h-10c-1.1 0-2-.9-2-2s.9-2 2-2h10c1.1 0 2 .9 2 2s-.9 2-2 2zM590.6 582.5H478.9c-6.4 0-11.6-5.1-11.8-11.6l-10-490c-.2-6.9 5.7-12.5 12.6-12l121.7 8.8c6.2.4 11 5.6 11 11.8v481.2c0 6.5-5.3 11.8-11.8 11.8z" class="Bh"></path><path d="M494.9 257.9l80.5 1.1c5.6.1 10.1 4.7 10.1 10.3v58c0 5.8-4.7 10.4-10.4 10.4l-78-1.1c-5.5-.1-9.9-4.4-10.2-9.9l-2.4-58.1c-.2-5.9 4.5-10.8 10.4-10.7z" class="Bf"></path><path d="M585.5 356.8v58c0 5.7-4.7 10.4-10.4 10.3l-74.4-1.1c-5.4 0-9.9-4.4-10.1-9.8l-2.4-58.1c-.3-5.9 4.5-10.8 10.4-10.7l76.8 1.1c5.6.1 10.1 4.6 10.1 10.3z" fill="url(#j)"></path><path d="M575.1 162.8l-85.3-1.2c-5.5-.1-9.9-4.4-10.2-9.9l-2.2-53.9c-.3-6.3 5.3-11.4 11.6-10.6l87.5 11.4c5.2.6 9 5 9 10.2v43.7c0 5.7-4.7 10.4-10.4 10.3z" fill="#2f569e"></path><path d="M491.3 170.4l84.1 1.2c5.6.1 10.1 4.7 10.1 10.3v58c0 5.8-4.7 10.4-10.4 10.3l-81.7-1.1c-5.4-.1-9.9-4.4-10.1-9.9l-2.4-58c-.3-6 4.5-10.9 10.4-10.8z" class="Bg"></path><path d="M502.2 432.9l73.2 1c5.6.1 10.1 4.7 10.1 10.3v41.2c0 5.7-4.6 10.3-10.3 10.3h-71.3c-5.6 0-10.1-4.3-10.3-9.8l-1.8-42.3c-.2-5.9 4.5-10.8 10.4-10.7z" fill="url(#k)"></path><path d="M598.8 576.1l-104.2 40.2c-6 2.3-12.7-.6-15.2-6.5L293.5 156.3c-2.7-6.4.8-13.7 7.4-15.8l116.7-35.6c6-1.9 12.3 1.2 14.5 7l173.5 448.9c2.3 6.1-.7 12.9-6.8 15.3z" class="Bh"></path><g opacity=".7"><path d="M392.6 307.7l75.4-27.9c5.3-1.9 11.2.7 13.2 6l20.9 54.1c2.1 5.3-.7 11.3-6 13.3l-73.2 27.1a10.28 10.28 0 0 1-13-5.5l-23.2-53.3c-2.4-5.4.3-11.7 5.9-13.8z" fill="url(#l)"></path><path d="M512.7 367.3l20.9 54.1c2.1 5.4-.6 11.4-6 13.4l-69.8 25.8a10.28 10.28 0 0 1-13-5.5l-23.2-53.3c-2.3-5.4.4-11.7 5.9-13.8l72-26.6c5.3-2 11.2.7 13.2 5.9z" fill="url(#m)"></path><path d="M433 190.1l-80 29.6a10.28 10.28 0 0 1-13-5.5l-21.5-49.4a10.43 10.43 0 0 1 7-14.2l85.8-20.9c5-1.2 10.2 1.5 12 6.3l15.8 40.7c2 5.4-.7 11.4-6.1 13.4z" fill="url(#n)"></path><path d="M357.6 227.5l78.9-29.2c5.3-2 11.1.6 13.2 5.9l20.9 54.1c2 5.4-.7 11.4-6.1 13.4L388 300c-5.2 1.9-10.9-.5-13-5.5l-23.2-53.3c-2.4-5.4.3-11.7 5.8-13.7z" fill="url(#o)"></path><path d="M462.4 468.3l68.6-25.4c5.3-1.9 11.2.7 13.2 6l14.9 38.4c2 5.3-.6 11.3-5.9 13.3l-66.6 25.8c-5.2 2-11-.5-13.2-5.5l-16.8-38.8c-2.4-5.4.3-11.7 5.8-13.8z" fill="url(#p)"></path></g><path d="M605.3 564.5l-71.4 85.9c-4.1 4.9-11.4 5.7-16.4 1.7L134.1 346.7c-5.4-4.3-5.9-12.4-1.1-17.4l84.5-88c4.3-4.5 11.3-4.9 16.1-.9l370.2 307.4c5 4.2 5.7 11.7 1.5 16.7z" class="Bh"></path><path d="m294.5 430.6l52.2-61.1c3.7-4.3 10.1-4.8 14.4-1.2l44.7 37c4.4 3.7 4.9 10.3 1.2 14.7l-50.7 59.3c-3.5 4.1-9.7 4.8-14 1.5l-46.2-35.3c-4.7-3.6-5.5-10.4-1.6-14.9z" fill="url(#q)"></path><path d="M428.4 424.1l44.6 37.1c4.4 3.7 5 10.3 1.3 14.6L426 532.4c-3.6 4.1-9.8 4.8-14.1 1.5l-46.2-35.3c-4.7-3.6-5.4-10.4-1.6-14.9l49.9-58.3c3.7-4.3 10.1-4.8 14.4-1.3z" fill="url(#r)"></path><path d="M272.5 308.2l-55.4 64.9c-3.6 4.1-9.8 4.8-14.1 1.5l-42.9-32.7c-5.1-3.9-5.4-11.4-.7-15.8l64.7-60c3.7-3.6 9.6-3.7 13.5-.4l33.6 27.9c4.5 3.7 5 10.3 1.3 14.6z" fill="url(#s)"></path><path d="m224.9 377.6l54.6-64c3.6-4.2 10.1-4.8 14.4-1.2l44.6 37.1c4.4 3.6 5 10.2 1.3 14.6l-53.1 62.1c-3.5 4.1-9.7 4.8-14.1 1.5l-46.2-35.3c-4.7-3.5-5.4-10.4-1.5-14.8z" fill="url(#t)"></path><path d="m433.7 536.8l47.6-55.5c3.6-4.3 10-4.9 14.4-1.3l31.7 26.4c4.3 3.6 4.9 10.1 1.3 14.5l-45.6 54.9c-3.5 4.2-9.8 4.9-14.2 1.6l-33.6-25.7c-4.7-3.6-5.4-10.4-1.6-14.9z" fill="url(#u)"></path><path d="M332.3 603.9l277.3-2.5a9.82 9.82 0 0 1 9.8 9.8L618.2 824c-.1 5.4-4.6 9.8-10.1 9.6L325.7 826c-9.7.4-4.5-170.5-3-212.7.2-5.2 4.4-9.3 9.6-9.4z" class="Bi"></path><path d="M608.4 825.5l-277.3-7.6h-.4l-.1-.4c-3.4-19.6-3.4-99.7.2-203.9 0-.9.7-1.5 1.6-1.6l277.2-2.4c.6 0 1 .2 1.2.4q.5.5.5 1.2L610 823.9a1.58 1.58 0 0 1-1.6 1.6zm-276.9-8.6l276.9 7.6h.1c.3 0 .5-.2.5-.6l1.3-212.7q0-.3-.2-.5-.2-.1-.5-.1L332.4 613c-.3.1-.6.3-.6.6-3.6 103.5-3.7 183.1-.3 203.3z" fill="url(#v)" class="Bj"></path><path d="M281.5 1345q1.4-13.3 5.2-19l11.2.6c16.4 5.3 35.9 18.4 44.4 24.4-9.3.5-23.3.9-37.7.2-15.8-.7-21.2-3.9-23.1-6.2z" fill="url(#w)"></path><path d="M341.3 1354.7c-14.1.7-43.3-1.3-55.1-2.2a5.21 5.21 0 0 1-4.8-5.7q0-.9.1-1.8c1.9 2.3 7.3 5.5 23.1 6.2 14.4.7 28.4.3 37.7-.2q0 .1.1.1c1.5 1.1.8 3.5-1.1 3.6z" fill="url(#x)"></path><path d="M200.8 1351.2l-28.1-.9c-.1-.6.1-1.2.4-1.7l8.1-14.1q2.3-3.9 7.2-6.2 7.1-3.9 9.1 0c1.3 2.5 3 12.3 4.1 19.1.2 1.4-.1 2.7-.8 3.8z" fill="url(#y)"></path><path d="M200.8 1351.2c-1.1 1.7-2.9 2.8-5 2.7l-20-.5c-1.8-.1-3.1-1.5-3.1-3.1z" fill="url(#z)"></path><path d="M203.7 1305.9c-.2.8-3.9 18.4-5.5 26.1-.4 2.2-2.3 3.7-4.5 3.5a29.06 29.06 0 0 1-4-.3c-2.6-.3-4.6-2.5-4.7-5.1-.2-6.8-.3-19.8 2.1-24.8q3.5-6.9 16.6.6z" fill="url(#AA)"></path><path d="M300.2 1305.3l-2 20.6a4.49 4.49 0 0 1-4.1 4.1l-4.1.1c-1.9 0-3.2-1.4-3.8-3.2-2.3-7.9-.2-16-1.7-16z" fill="url(#AB)"></path><path d="M328.1 1091.6c-.7 3.4-25.3 146.5-26.8 220.6a2.57 2.57 0 0 1-2.1 2.5c-3.2.4-9.2 1-15.1-.1-.8-.2-1.4-.9-1.5-1.7-.8-13.8-7.7-130.5.7-185.4q-69.8 146.8-80.3 187.3c-.3 1-1.2 1.7-2.2 1.6-3-.1-9.2-.7-14.2-2.5-1.7-.6-2.7-2.5-2.3-4.3 5.9-24.3 47.3-191.2 75.5-228z" fill="url(#AC)"></path><path d="M283.3 1128.4q-.3 0-.6-.3c-.4-.3-.4-.9 0-1.3l9.3-9.5a.85.85 0 0 1 1.3 0c.4.3.4.9 0 1.3l-9.3 9.5q-.3.3-.7.3z" fill="url(#AD)"></path><path d="M442.8 897.5c3.7 6.1 9.7 15.1 17.2 23.3q-30.8 37.5-87.8 45.7l-.8 19-93.7-10.7 2.3-71.7c27.4-4.9 67.6 3.9 88.1 9.3 15.2 4 31.2 4.1 46.4-.1 11.8-3.3 21-8.6 28.3-14.8z" fill="url(#AE)"></path><path d="m460 920.8c-7.5-8.2-13.5-17.2-17.2-23.3q26.9-23 26.5-59.1l7.3 3.2c7.4 35.2-1.4 60.8-16.6 79.2z" fill="url(#AF)"></path><path d="M350.9 870l.9 39.3q-6.9 3.9-33.1-3.4.7-10.2 6.1-42.6z" fill="url(#AG)"></path><path d="M188.1 960.5L378 959c5.3 0 9.6 4.3 9.6 9.6l-1 127.9c-.1 5.3-4.5 9.5-9.8 9.4l-187.3-6.9c-5.1-.2-9.2-4.3-9.3-9.4l-1.5-119.4c-.1-5.3 4.2-9.6 9.4-9.7z" class="Bi"></path><g class="Bj"><path d="M377.1 1097.8l-187.4-6.9c-.7 0-1.3-.6-1.3-1.4l-1.6-119.4q0-.6.4-1 .4-.4 1-.4l189.8-1.6q.6 0 1 .4.4.4.4 1l-.9 127.9c0 .7-.7 1.4-1.4 1.4zm.9-129.7l-189.8 1.6q-.2 0-.3.1-.1.1-.1.3l1.6 119.4c0 .2.1.4.3.4l187.4 6.9c.2 0 .4-.2.4-.4l.9-127.9q0-.2-.1-.3-.1-.1-.3-.1z" fill="url(#AH)"></path><path d="M326 1085.9c-.8 0-1.6-.4-2.1-1l-5.7-6.7a50.66 50.66 0 0 1-12.3-.3l-5.9 6.4c-.9.8-2.1 1.1-3.2.6l-10.8-4.8c-1.1-.5-1.8-1.6-1.7-2.8l.8-8.7c-3.3-2.6-6.1-5.6-8.5-8.9l-8.8.3c-1.2 0-2.3-.7-2.7-1.8l-4.2-11c-.5-1.1-.1-2.4.8-3.2l6.7-5.6c-.5-4.1-.4-8.3.3-12.3l-6.4-6c-.9-.8-1.2-2.1-.7-3.2l4.8-10.8c.5-1.1 1.6-1.8 2.8-1.6l8.7.7c2.6-3.2 5.6-6.1 9-8.5l-.4-8.7c0-1.2.7-2.3 1.8-2.8l11.1-4.2a2.81 2.81 0 0 1 3.1.8l5.6 6.7c4.2-.5 8.3-.4 12.4.3l5.9-6.4c.9-.9 2.1-1.1 3.2-.6l10.8 4.7c1.1.5 1.8 1.7 1.7 2.8l-.8 8.8c3.3 2.5 6.1 5.5 8.5 8.9l8.8-.3c1.2-.1 2.3.7 2.7 1.8l4.2 11c.5 1.1.1 2.4-.8 3.2l-6.7 5.6c.5 4.1.4 8.2-.3 12.3l6.4 6c.9.8 1.2 2.1.7 3.2l-4.8 10.8c-.5 1.1-1.6 1.7-2.8 1.6l-8.7-.7c-2.6 3.2-5.6 6.1-9 8.5l.3 8.7c.1 1.2-.6 2.3-1.8 2.7l-11 4.3q-.5.2-1 .2zm-6.1-12l6.5 7.7 9.4-3.6-.3-10.1.9-.6c3.6-2.5 6.9-5.6 9.6-9.1l.6-.9 10.1.9 4.1-9.3-7.4-6.8.2-1.1a42.41 42.41 0 0 0 .3-13.3l-.1-1.1 7.7-6.5-3.6-9.4-10.1.4-.6-.9c-2.5-3.7-5.6-6.9-9.2-9.6l-.8-.7.8-10-9.2-4.1-6.9 7.3-1.1-.2a41.78 41.78 0 0 0-13.2-.3l-1.1.1-6.5-7.7-9.4 3.7.3 10-.9.7c-3.6 2.5-6.9 5.5-9.6 9.1l-.6.9-10.1-.9-4.1 9.2 7.4 6.9-.2 1.1c-.8 4.4-1 8.8-.3 13.2l.1 1.1-7.7 6.5 3.6 9.5 10.1-.4.6.9c2.5 3.7 5.6 6.9 9.2 9.6l.8.7-.8 10 9.2 4.1 6.9-7.4 1.1.2c4.3.9 8.8 1 13.2.4zm-6.9-10.2c-12.2 0-23.8-7.4-28.5-19.5-2.9-7.6-2.7-15.9.6-23.4a30.17 30.17 0 0 1 16.9-16c7.6-3 15.9-2.8 23.3.5 7.5 3.4 13.2 9.4 16.1 17q1.2 3 1.7 6.2c.2 1.1-.6 2.1-1.7 2.3s-2.1-.6-2.3-1.7q-.4-2.8-1.4-5.4c-2.6-6.6-7.5-11.8-14-14.7s-13.7-3-20.3-.5c-6.5 2.5-11.8 7.5-14.6 14a25.76 25.76 0 0 0-.5 20.2c5.2 13.6 20.6 20.5 34.2 15.2 4.5-1.7 8.4-4.6 11.3-8.4.7-.8 2-1 2.8-.3.9.7 1.1 1.9.4 2.8-3.4 4.3-7.9 7.7-13.1 9.6-3.6 1.4-7.3 2.1-10.9 2.1zm22.9 15.1q0 0 0 0zm25.5-29.3q0 0 0 0zm-96.4-32.4q0 0 0 0zm92.6-7.2q0 0 0 0zm-67-22.1q0 0 0 0z" fill="url(#AI)"></path><path d="M313.2 1045.8c-3.9 0-7.8-1.8-10.2-5.3-1.9-2.7-2.7-6-2.1-9.3s2.4-6.1 5.1-8.1c2.7-1.9 6-2.6 9.3-2.1 3.3.6 6.2 2.4 8.1 5.1 1.9 2.8 2.7 6.1 2.1 9.4-.6 3.2-2.4 6.1-5.1 8-2.2 1.6-4.7 2.3-7.2 2.3zm0-20.9c-1.8 0-3.4.5-4.9 1.5-3.8 2.7-4.7 8-2 11.8s8 4.8 11.8 2.1c1.8-1.3 3.1-3.3 3.5-5.5.3-2.3-.2-4.5-1.5-6.4-1.3-1.8-3.2-3-5.5-3.4q-.7-.1-1.4-.1z" fill="url(#AJ)"></path><path d="M226 1032.7q-.1 0-.2 0l-5.7-.7c-.8-.1-1.4-.7-1.6-1.5l-.8-3.9q-2.6-1-4.8-2.7l-3.7 1.3c-.8.3-1.6 0-2.1-.6l-3.5-4.5c-.5-.6-.5-1.5-.1-2.2l2.1-3.3q-1-2.5-1.4-5.3l-3.5-1.7c-.8-.4-1.2-1.1-1.1-1.9l.7-5.7c.1-.8.7-1.4 1.5-1.6l3.8-.8q1.1-2.6 2.7-4.8l-1.2-3.7c-.3-.8 0-1.6.6-2.1l4.5-3.5c.6-.5 1.5-.5 2.2-.1l3.2 2.2q2.6-1.1 5.3-1.5l1.8-3.5c.3-.8 1.1-1.2 1.9-1.1l5.6.7c.8.1 1.5.7 1.7 1.5l.8 3.8q2.5 1.1 4.8 2.8l3.7-1.3c.7-.3 1.6 0 2.1.6l3.5 4.5c.5.6.5 1.5 0 2.2l-2.1 3.3q1.1 2.5 1.5 5.3l3.5 1.7c.7.3 1.1 1.1 1 1.9l-.6 5.7c-.1.8-.7 1.4-1.5 1.6l-3.9.8q-1 2.5-2.7 4.8l1.3 3.7c.3.7 0 1.6-.6 2.1l-4.5 3.5c-.6.5-1.5.5-2.2.1l-3.3-2.2q-2.5 1.1-5.3 1.5l-1.7 3.5c-.3.7-1 1.1-1.7 1.1zm-4.7-3.6l4 .5 2.1-4.3.9-.1q3.1-.3 5.9-1.6l.8-.4 4 2.6 3.2-2.5-1.6-4.5.6-.6q1.9-2.5 3-5.4l.3-.8 4.7-1 .5-4.1-4.3-2.1-.1-.8q-.3-3.1-1.6-6l-.4-.7 2.6-4-2.5-3.2-4.5 1.5-.7-.5q-2.4-2-5.4-3.1l-.7-.2-1-4.7-4.1-.5-2.1 4.3-.8.1q-3.1.3-6 1.6l-.7.4-4-2.6-3.2 2.5 1.5 4.5-.5.6q-2 2.5-3.1 5.4l-.3.8-4.6 1-.5 4 4.3 2.1.1.9q.3 3.1 1.6 5.9l.3.8-2.6 4 2.6 3.2 4.5-1.5.6.5q2.5 1.9 5.4 3l.8.3zm4.8-7.8q-.9 0-1.9-.1c-4-.5-7.6-2.5-10.1-5.7a15.08 15.08 0 0 1-3.1-11.2c.5-4.1 2.5-7.7 5.7-10.2a15.08 15.08 0 0 1 11.2-3.1c4.1.5 7.7 2.6 10.1 5.8q1.1 1.3 1.8 2.7c.3.8 0 1.7-.7 2-.8.4-1.7.1-2-.7q-.6-1.1-1.4-2.2c-2-2.5-4.9-4.2-8.1-4.6-3.3-.4-6.5.5-9 2.5-2.6 2-4.2 4.9-4.6 8.1-.4 3.3.4 6.5 2.4 9 2.1 2.6 4.9 4.2 8.2 4.6 3.2.4 6.4-.5 9-2.5 1.7-1.3 3.1-3.1 3.8-5.2.3-.7 1.2-1.1 2-.8s1.1 1.1.8 1.9c-.9 2.6-2.6 4.8-4.8 6.5a14.98 14.98 0 0 1-9.3 3.2zm-4.7 8.6q0 0 0 0zm-11.9-7.1q0 0 0 0zm40.5-11.9q0 0 0 0zm-46.7-10.5q0 0 0 0zm43.1-6.4q0 0 0 0zm-.1-1.3q0 0 0 0zm-36.8-3.3q0 0 0 0zm21.4-7q0 0 0 0z" fill="url(#AK)"></path></g><path d="m242.8 1017.6l-25.5-16q14.6-57.3 62.7-98.5l23 38.7c-31.5 32.2-49.7 57.1-60.2 75.8z" fill="url(#AL)"></path><path d="M258.7 1101.5q-15 9.2-24.8 3.6c-9.4-5.5-14.2-32-14.5-33.6q0-.1-.1-.2c-7.9-23.9-7.4-46.9-2.4-67.8.2-1 1.3-1.4 2.1-.9l22.7 14.3c.7.4.8 1.2.5 1.9-15.2 27.7-13.2 41.4-12.2 45.1.2.4.4.7.8.9l22.7 9.7c.8.3 1.1 1.3.7 2-1.3 2.1-5.1 3.3-9.3 2.3-2.7-.6-4.8-.5-6.2-.3-1 .2-1.5 1.3-.9 2.1 2.6 4.2 6.6 12.5 9 17.6 1.2 2.7 3.5 3.1 6.4 3.1z" fill="url(#AM)"></path><path d="M354.4 833.3q8.7 20.1 9.3 30.6c.6 10.6 2.8 17.4-9.3 19.5-12.2 2.1-22.5-3.9-28-14.4q-8.7-16.2-6.8-22.8 2-6.6 34.8-12.9z" fill="url(#AN)"></path><path d="M327.2 861.4c-.4 0-.8.4-.8.9l.6 9.2c0 .4-.2.8-.6.9-1.5.3-5.3.7-11.8-2.7-6.3-3.4-3.9-6-2.2-7 .4-.3.4-1 0-1.4-9-7.4-10.7-16.4-6.6-19.8 2.4-2 4.1-1.7 5.2-1 .6.3 1.3-.1 1.3-.7.3-10.4 10.2-16.5 25.2-19.2 10.6-2 14.6-5.8 16-8.1.4-.6 1.3-.5 1.5.2s1.2.8 1.5.1l.5-.9c.2-.4.7-.6 1.1-.4 6.1 2.7 10.2 12.5 5.6 20-4.8 7.9-26.8 12.4-32.4 14.6q-5.6 2.3.8 15.3h-1.6z" fill="url(#AO)"></path><path d="M329.4 869c-4.6-.5-13.3-11.3-7.6-14.9q5.8-3.6 9.1 9.3z" fill="url(#AP)"></path><path d="M456.4 822.5q2.5 1.4 11.6 4l21.6 4.2q.5 10-13 10.9-15.4-.6-27.2-15.6v-14.5q5.1.5 7 11z" fill="url(#AQ)"></path><path d="M359.8 786.8l37.8-54.4c2.5-3.6 7.7-4.2 10.9-1.2l14.1 12.9c3.6 3.4 9.5 2.2 11.6-2.4l34.7-76.1c2.5-5.4 10-5.7 13-.6l71.9 122.3c2.9 4.8-.6 11-6.3 11H365.8c-5.9 0-9.4-6.7-6-11.5z" fill="url(#AR)"></path><circle cx="545" cy="661.3" r="26.1" fill="url(#AS)"></circle><path d="M1397.2 295.2l-5-32.4q3.8-.3 7.6-.3c19 0 36.6 6.1 51 16.4l-19.6 27.6c-9.2-7.1-20.7-11.3-33.3-11.3q-.3 0-.7 0z" fill="url(#AT)"></path><path d="M1415.7 401.8l19.6 28.2c-10.8 4.8-22.9 7.5-35.5 7.5-48.4 0-97.5-36-97.5-84.3 0-45.9 44.1-86.3 89.9-90.4l5 32.4c-30 .4-60.3 26.7-60.3 56.8 0 30.2 30.7 52.8 61 52.8 6.2 0 12.2-1.1 17.8-3z" fill="url(#AU)"></path><path d="m1435.3 430l-19.6-28.2c21.5-7.4 37-27.8 37-51.8 0-17.7-8.4-33.5-21.5-43.5l19.6-27.6c22.1 15.9 36.5 41.8 36.5 71.1 0 35.7-21.4 66.3-52 80z" fill="url(#AV)"></path><path d="m1606.9 311.3l-20-25.2c17.8-14.6 40.3-23.6 62.6-23.6 28.5 0 53.8 13.6 69.8 34.7l-22.6 28.4c-8.9-18-27.5-30.4-49-30.4-14.7 0-29.4 6.2-40.8 16.1z" class="Bi"></path><path d="M1646.2 404.7l1.5 32.8c-47.7-.9-95.6-36.6-95.6-84.3 0-26 14.2-50.3 34.8-67.1l20 25.2c-12 10.5-20.2 25.1-20.2 40.7 0 29.7 29.7 52 59.5 52.7z" class="Bg"></path><path d="M1695.9 376.1l31.5 13.8c-14.5 28.3-43.9 47.6-77.9 47.6q-.9 0-1.8 0l-1.5-32.8q.7.1 1.5.1c20.8 0 38.9-11.6 48.2-28.7z" class="Bf"></path><path d="M1737.1 350a86.48 86.48 0 0 1-9.7 39.9l-31.5-13.8c4.2-7.8 6.6-16.7 6.6-26.1 0-8.8-2.1-17.1-5.8-24.4l22.6-28.4c11.1 14.6 17.8 32.9 17.8 52.8z" class="Bg"></path><path d="m1855.9 312l-21-24.4c18-15.4 41.3-25.1 64.4-25.1 17.4 0 33.6 5.1 47.2 13.8l-17.6 28.8c-8.9-6.2-19.7-9.9-31.4-9.9-15.1 0-30.2 6.5-41.6 16.8z" class="Bi"></path><path d="m1928.9 305.1l17.6-28.8c21.6 13.9 36.7 36.9 39.8 63.6l-34.1 6.9c-1-17.2-10-32.3-23.3-41.7z" fill="url(#AW)"></path><path d="m1867.3 397.3l-17.1 27.8c-27.7-14.5-48.3-40.6-48.3-71.9 0-25.3 13.4-48.8 33-65.6l21 24.4c-11.6 10.5-19.4 24.7-19.4 40 0 19.8 13.2 36.3 30.8 45.3z" fill="#e8eefd"></path><path d="M1986.3 339.9q.5 5 .5 10.1c0 48.3-39.1 87.5-87.5 87.5-17 0-34.1-4.5-49.1-12.4l17.1-27.8c9.2 4.8 19.7 7.5 30.2 7.5 30.2 0 54.8-24.6 54.8-54.8q-.1-1.6-.1-3.2z" fill="url(#AX)"></path><path d="M1490.1 71.9v.9c0 9.5-7.7 17.2-17.2 17.2h-325.4c-6 0-11.6-3.2-14.7-8.3l-1.6-2.8c-6.9-11.4 1.4-26 14.8-26l327 1.9c9.5 0 17.1 7.7 17.1 17.1zm45.9-16.8l72.6.6c11.2.1 19.4 10.7 16.5 21.6-2.1 7.5-8.9 12.7-16.6 12.7h-72.6c-9.5 0-17.2-7.7-17.2-17.2v-.5c0-9.5 7.8-17.2 17.3-17.2zm-124.6 78.4v1c0 9.4-7.7 17.1-17.1 17.1h-246.8c-6 0-11.6-3.1-14.7-8.3l-1.6-2.7c-6.9-11.5 1.4-26.1 14.8-26l248.3 1.8c9.5 0 17.1 7.7 17.1 17.1zm45.9-16.7l72.6.5c11.3.1 19.4 10.7 16.5 21.6-2 7.5-8.8 12.7-16.6 12.7h-72.6c-9.5 0-17.2-7.7-17.2-17.1v-.6c0-9.5 7.8-17.2 17.3-17.1z" class="Bf"></path><path d="M995.3 220.7c2 2.1 1.9 5.5-.2 7.5l-72.3 68.4c-8.2 7.8-19.1 12.1-30.4 12.1H646.6c-3 0-5.4-2.4-5.4-5.3s2.4-5.3 5.4-5.3h245.8c8.6 0 16.8-3.3 23.1-9.2l72.2-68.4c1.1-1 2.4-1.5 3.7-1.5 1.4 0 2.8.6 3.9 1.7zM859.9 336.4a5.27 5.27 0 0 1-5.3 5.3h-208c-3 0-5.4-2.4-5.4-5.3s2.4-5.3 5.4-5.3h208a5.27 5.27 0 0 1 5.3 5.3zm-33.8 33a5.34 5.34 0 0 1-5.3 5.3H646.6c-3 0-5.4-2.4-5.4-5.3 0-3 2.4-5.3 5.4-5.3h174.2a5.27 5.27 0 0 1 5.3 5.3z" class="Bg"></path></svg>