<svg xmlns="http://www.w3.org/2000/svg" xmlns:v="https://vecta.io/nano" viewBox="0 0 183 197" width="1000" height="1077"><style>.A{mix-blend-mode:multiply}.B{mix-blend-mode:multiply}.C{mix-blend-mode:multiply}.D{mix-blend-mode:multiply}.E{mix-blend-mode:multiply}</style><defs><linearGradient id="A" gradientUnits="userSpaceOnUse"></linearGradient><linearGradient id="B" x1="12" y1="21" x2="161.6" y2="21" href="#A"><stop stop-color="#7c9de2"></stop></linearGradient><linearGradient id="C" x1="12" y1="3" x2="170.1" y2="3" href="#A"><stop stop-color="#7c9de2"></stop></linearGradient><linearGradient id="D" x1="38.2" y1=".1" x2="93.3" y2=".1" href="#A"><stop stop-color="#7c9de2"></stop></linearGradient><linearGradient id="E" x1="42.8" y1="156.7" x2="84.1" y2="156.7" href="#A"><stop stop-color="#7c9de2"></stop></linearGradient><linearGradient id="F" x1="98.5" y1="21" x2="161.6" y2="21" href="#A"><stop stop-color="#7c9de2"></stop></linearGradient></defs><path class="A" d="M92.4 42.1c9.9-4.8 18.5-12.2 29-15.6 10.4-3.5 24.2-1.2 28.7 8.8 5.2 11.6-4.7 24-6.5 36.5-2.2 15.7 8.5 29.9 14.7 44.4 6.1 14.3 7.9 31 1.8 45.2-6.1 14.3-21.4 25-36.8 22.9-20.3-2.8-32.7-24.7-52.2-31.1-9.9-3.2-20.6-2.1-31-2.8s-21.7-4.2-27-13.2c-4.8-8.2-3-18.6-.2-27.8 2.7-9.1 6.5-18.4 5.2-27.9-.8-6.1-3.6-11.7-5.7-17.5-3.1-8.6-4.2-19.7 4.6-25.4 6.9-4.6 12.9-.7 19.7 2.4 17.7 8.2 37.7 9.8 55.7 1.1z" fill="url(#B)"></path><path class="B" d="M43.7 29.2C45.7 19 46 7.5 60 7c9.8-.4 18.5 5.7 26.3 11.5q26.1 19.3 52.2 38.6c13.5 10 27.5 20.6 34.8 35.7 13 26.7-2.9 63.3-31.3 71.9-11.7 3.6-24.2 2.8-36.2 4.9-10.7 1.8-20.9 5.8-31.7 6.9-10.7 1-22.8-1.7-29-10.5-9.1-13-2-32.6-11-45.5C27.7 111.4 14.8 108 9.9 98c-6-12.5 4-26.7 14.1-36.3 10.4-10 17.1-18.4 19.7-32.5z" fill="url(#C)"></path><path class="C" d="M41.5 28.5c-6.2-4.9-11.2-19.1-2.1-23.7 4.3-2.2 9.5-.4 13.7 1.8 4.3 2.3 8.7 5 13.4 4.6 6.4-.6 11.6-6.6 17.9-6.1 4.7.4 8.6 4.6 9.3 9.3.6 4.6-1.5 9.4-4.8 12.7-3.4 3.3-7.9 5.3-12.4 6.5-10.4 2.6-26 1.8-35-5.1z" opacity=".4" fill="url(#D)"></path><path class="D" d="M63.9 161c6.7.9 13.5 3.7 17.7 8.9 4.3 5.3 5.4 13.4 1.5 19-2.3 3.3-6 5.4-9.9 6.5-8.8 2.4-18.8-.4-25-7-4.6-4.8-9.6-15.8-6.4-22.6 3.3-6.9 15.4-5.6 22.1-4.8z" opacity=".4" fill="url(#E)"></path><path class="E" d="M160.1 161.4c-6.1 14.3-21.4 25-36.8 22.9-9.5-1.3-17.3-6.8-24.8-13 10-3.2 19.3-9.9 25.4-18.6 12.2-17.2 14-40 10.7-60.8-2.6-16-8-31.8-7.6-48.1.1-6.3 1.5-12.9 4-18.8 8 0 15.9 3.2 19.1 10.3 5.2 11.6-4.7 24-6.5 36.5-2.2 15.7 8.5 29.9 14.7 44.4 6.1 14.3 7.9 31 1.8 45.2z" opacity=".4" fill="url(#F)"></path><path d="M70.2 132.1c-14-6.7-23.6-20.9-23.6-37.4 0-5.9 1.2-11.4 3.3-16.4zm-17.5-59c7.3-12 20.4-20 35.4-20 11.2 0 21.3 4.4 28.7 11.5-2.1-.5-4.4.4-6 1.8-3 2.6-4.1 7.1-2.6 10.7 1.1 2.7 3.5 4.6 4.9 7.1q5.6 9.2-5 34.7L94.3 77.3q1.5-.1 3-.2c1.4-.2 2.4-1.3 2.2-2.5s-1.4-2-2.7-1.9c-6.6.6-13.3.6-20 0-1.3-.1-2.5.7-2.7 1.9q0 0 0 0c-.2 1.2.8 2.3 2.2 2.5q2 .1 4 .2l6.2 16.5-9.1 25.1-13.9-41.7q1.1 0 2.1-.1c1.3-.2 2.2-1.3 2-2.5-.1-1.2-1.2-2-2.4-1.9q-6.3.6-12.5.4zm48.9 60.8c-4.2 1.5-8.7 2.3-13.5 2.3-4.1 0-8.1-.6-11.8-1.7l.1-.2 12.2-35zm28.1-39.2c0 15.6-8.6 29.2-21.4 36.3l11.8-33.9q0-.1 0-.1c1.7-4.5 3.2-9.2 3.7-14 .4-3.9.1-8-1.2-11.6 4.5 6.6 7.1 14.6 7.1 23.3z" fill="#fff"></path></svg>